<?xml version="1.0" encoding="utf-8"?>
<svg version="1.1" xmlns:xlink="http://www.w3.org/1999/xlink" width="5px" height="9px" xmlns="http://www.w3.org/2000/svg">
  <g transform="matrix(1 0 0 1 -335 -647 )">
    <path d="M 0.283163265306143 7.90446428571431  L 3.52295918367349 4.5  L 0.280612244897952 1.09821428571428  C 0.040816326530603 0.846428571428589  0.040816326530603 0.439285714285688  0.280612244897952 0.190178571428589  C 0.520408163265301 -0.0589285714285666  0.908163265306143 -0.0589285714285666  1.14795918367349 0.190178571428589  L 4.82142857142856 4.04464285714283  C 5.05357142857144 4.28839285714287  5.05867346938777 4.67946428571429  4.83928571428572 4.93124999999998  L 1.15051020408163 8.8125  C 1.03061224489795 8.93839285714284  0.872448979591809 9  0.716836734693857 9  C 0.561224489795904 9  0.403061224489818 8.93839285714284  0.283163265306143 8.8125  C 0.0433673469387941 8.56071428571431  0.0433673469387941 8.15357142857141  0.283163265306143 7.90446428571431  Z " fill-rule="nonzero" fill="#515a6e" stroke="none" transform="matrix(1 0 0 1 335 647 )" />
  </g>
</svg>