<?xml version="1.0" encoding="utf-8"?>
<svg version="1.1" xmlns:xlink="http://www.w3.org/1999/xlink" width="407px" height="102px" xmlns="http://www.w3.org/2000/svg">
  <g>
    <path d="M 1 2  A 1 1 0 0 1 2 1 L 405 1  A 1 1 0 0 1 406 2 L 406 100  A 1 1 0 0 1 405 101 L 2 101  A 1 1 0 0 1 1 100 L 1 2  Z " fill-rule="nonzero" fill="#ffffff" stroke="none" />
    <path d="M 0.5 2  A 1.5 1.5 0 0 1 2 0.5 L 405 0.5  A 1.5 1.5 0 0 1 406.5 2 L 406.5 100  A 1.5 1.5 0 0 1 405 101.5 L 2 101.5  A 1.5 1.5 0 0 1 0.5 100 L 0.5 2  Z " stroke-width="1" stroke="#e8eaec" fill="none" stroke-opacity="0.8" />
  </g>
</svg>