<?xml version="1.0" encoding="utf-8"?>
<svg version="1.1" xmlns:xlink="http://www.w3.org/1999/xlink" width="8px" height="5px" xmlns="http://www.w3.org/2000/svg">
  <g transform="matrix(1 0 0 1 -187 -136 )">
    <path d="M 0.973809523809521 4.71683673469391  L 4 1.47704081632651  L 7.02380952380956 4.71938775510205  C 7.24761904761908 4.9591836734694  7.60952380952381 4.9591836734694  7.83095238095241 4.71938775510205  C 8.05476190476195 4.47959183673476  8.05238095238091 4.09183673469391  7.83095238095241 3.85204081632656  L 4.40476190476197 0.178571428571445  C 4.1880952380953 -0.0535714285714448  3.8404761904762 -0.0586734693877702  3.61666666666667 0.160714285714278  L 0.166666666666671 3.84948979591837  C 0.0547619047619463 3.96938775510205  0 4.12755102040819  0 4.28316326530614  C 0 4.4387755102041  0.0547619047619463 4.59693877551024  0.166666666666671 4.71683673469391  C 0.390476190476193 4.95663265306121  0.752380952380918 4.95663265306121  0.973809523809521 4.71683673469391  Z " fill-rule="nonzero" fill="#808695" stroke="none" transform="matrix(1 0 0 1 187 136 )" />
  </g>
</svg>