<?xml version="1.0" encoding="utf-8"?>
<svg version="1.1" xmlns:xlink="http://www.w3.org/1999/xlink" width="8px" height="5px" xmlns="http://www.w3.org/2000/svg">
  <g transform="matrix(1 0 0 1 -187 -152 )">
    <path d="M 0.973809523809535 0.192857142857122  L 4 3.21666666666667  L 7.02380952380955 0.190476190476204  C 7.24761904761908 -0.0333333333333314  7.60952380952381 -0.0333333333333314  7.83095238095243 0.190476190476204  C 8.0523809523809 0.414285714285683  8.0523809523809 0.776190476190465  7.83095238095243 1  L 4.40476190476195 4.42857142857142  C 4.18809523809531 4.64523809523809  3.84047619047621 4.65000000000001  3.61666666666667 4.4452380952381  L 0.166666666666657 1.00238095238097  C 0.0547619047619321 0.890476190476221  0 0.742857142857133  0 0.59761904761902  C 0 0.452380952380992  0.0547619047619321 0.304761904761904  0.166666666666657 0.192857142857122  C 0.390476190476193 -0.0309523809523569  0.752380952380918 -0.0309523809523569  0.973809523809535 0.192857142857122  Z " fill-rule="nonzero" fill="#cac8ce" stroke="none" transform="matrix(1 0 0 1 187 152 )" />
  </g>
</svg>