<?xml version="1.0" encoding="utf-8"?>
<svg version="1.1" xmlns:xlink="http://www.w3.org/1999/xlink" width="18px" height="18px" xmlns="http://www.w3.org/2000/svg">
  <g transform="matrix(1 0 0 1 -120 -236 )">
    <path d="M 120.5 237  A 0.5 0.5 0 0 1 121 236.5 L 137 236.5  A 0.5 0.5 0 0 1 137.5 237 L 137.5 253  A 0.5 0.5 0 0 1 137 253.5 L 121 253.5  A 0.5 0.5 0 0 1 120.5 253 L 120.5 237  Z " fill-rule="nonzero" fill="#ffffff" stroke="none" />
    <path d="M 120.5 237  A 0.5 0.5 0 0 1 121 236.5 L 137 236.5  A 0.5 0.5 0 0 1 137.5 237 L 137.5 253  A 0.5 0.5 0 0 1 137 253.5 L 121 253.5  A 0.5 0.5 0 0 1 120.5 253 L 120.5 237  Z " stroke-width="1" stroke="#dcdee2" fill="none" />
  </g>
</svg>