<?xml version="1.0" encoding="utf-8"?>
<svg version="1.1" xmlns:xlink="http://www.w3.org/1999/xlink" width="8px" height="5px" xmlns="http://www.w3.org/2000/svg">
  <g transform="matrix(1 0 0 1 -107 -243 )">
    <path d="M 0.973809523809521 0.264285714285734  L 4 3.28809523809525  L 7.02380952380952 0.261904761904759  C 7.24761904761905 0.0380952380952522  7.60952380952381 0.0380952380952522  7.83095238095238 0.261904761904759  C 8.05238095238096 0.485714285714266  8.05238095238096 0.847619047619048  7.83095238095238 1.07142857142856  L 4.4047619047619 4.5  C 4.18809523809524 4.7166666666667  3.8404761904762 4.72142857142859  3.61666666666666 4.51666666666671  L 0.166666666666671 1.07380952380953  C 0.0547619047619037 0.961904761904748  0 0.814285714285745  0 0.669047619047603  C 0 0.523809523809518  0.0547619047619037 0.376190476190459  0.166666666666671 0.264285714285734  C 0.390476190476193 0.0404761904761699  0.752380952380946 0.0404761904761699  0.973809523809521 0.264285714285734  Z " fill-rule="nonzero" fill="#515a6e" stroke="none" transform="matrix(1 0 0 1 107 243 )" />
  </g>
</svg>