<?xml version="1.0" encoding="utf-8"?>
<svg version="1.1" xmlns:xlink="http://www.w3.org/1999/xlink" width="510px" height="203px" xmlns="http://www.w3.org/2000/svg">
  <defs>
    <filter x="-5px" y="-5px" width="510px" height="203px" filterUnits="userSpaceOnUse" id="filter49">
      <feOffset dx="0" dy="0" in="SourceAlpha" result="shadowOffsetInner" />
      <feGaussianBlur stdDeviation="2.5" in="shadowOffsetInner" result="shadowGaussian" />
      <feComposite in2="shadowGaussian" operator="atop" in="SourceAlpha" result="shadowComposite" />
      <feColorMatrix type="matrix" values="0 0 0 0 0.501960784313725  0 0 0 0 0.525490196078431  0 0 0 0 0.584313725490196  0 0 0 0.349019607843137 0  " in="shadowComposite" />
    </filter>
    <g id="widget50">
      <path d="M 1 2  A 1 1 0 0 1 2 1 L 498 1  A 1 1 0 0 1 499 2 L 499 191  A 1 1 0 0 1 498 192 L 2 192  A 1 1 0 0 1 1 191 L 1 2  Z " fill-rule="nonzero" fill="#ffffff" stroke="none" />
      <path d="M 0.5 2  A 1.5 1.5 0 0 1 2 0.5 L 498 0.5  A 1.5 1.5 0 0 1 499.5 2 L 499.5 191  A 1.5 1.5 0 0 1 498 192.5 L 2 192.5  A 1.5 1.5 0 0 1 0.5 191 L 0.5 2  Z " stroke-width="1" stroke="#e8eaec" fill="none" stroke-opacity="0.8" />
    </g>
  </defs>
  <g transform="matrix(1 0 0 1 5 5 )">
    <use xlink:href="#widget50" filter="url(#filter49)" />
    <use xlink:href="#widget50" />
  </g>
</svg>