<?xml version="1.0" encoding="utf-8"?>
<svg version="1.1" xmlns:xlink="http://www.w3.org/1999/xlink" width="416px" height="193px" xmlns="http://www.w3.org/2000/svg">
  <g transform="matrix(1 0 0 1 0 -35 )">
    <path d="M 1 37  A 1 1 0 0 1 2 36 L 414 36  A 1 1 0 0 1 415 37 L 415 226  A 1 1 0 0 1 414 227 L 2 227  A 1 1 0 0 1 1 226 L 1 37  Z " fill-rule="nonzero" fill="#ffffff" stroke="none" />
    <path d="M 0.5 37  A 1.5 1.5 0 0 1 2 35.5 L 414 35.5  A 1.5 1.5 0 0 1 415.5 37 L 415.5 226  A 1.5 1.5 0 0 1 414 227.5 L 2 227.5  A 1.5 1.5 0 0 1 0.5 226 L 0.5 37  Z " stroke-width="1" stroke="#e8eaec" fill="none" stroke-opacity="0.8" />
  </g>
</svg>