<?xml version="1.0" encoding="utf-8"?>
<svg version="1.1" xmlns:xlink="http://www.w3.org/1999/xlink" width="8px" height="8px" xmlns="http://www.w3.org/2000/svg">
  <g transform="matrix(1 0 0 1 -95 -12 )">
    <path d="M 7.78627160493829 7.30153086419753  L 4.51002469135801 4.01540740740739  L 7.7850864197531 0.757333333333321  C 7.93995061728396 0.603259259259261  7.94074074074075 0.353580246913594  7.78666666666669 0.19871604938271  C 7.63219753086418 0.0434567901234573  7.38291358024691 0.0430617283950596  7.22804938271605 0.197135802469148  L 3.95219753086417 3.45560493827162  L 0.704790123456803 0.198320987654313  C 0.551111111111084 0.0442469135802526  0.30103703703702 0.0434567901234573  0.146172839506164 0.197530864197546  C -0.0082962962962938 0.351604938271606  -0.00869135802469145 0.60167901234567  0.145382716049369 0.756543209876554  L 3.392 4.01303703703704  L 0.118518518518499 7.26913580246912  C -0.0363456790123564 7.42320987654321  -0.0371358024691517 7.67288888888888  0.116938271604965 7.82775308641976  C 0.193975308641996 7.90518518518519  0.295506172839509 7.9442962962963  0.397037037037023 7.9442962962963  C 0.497777777777799 7.9442962962963  0.598518518518517 7.90597530864198  0.675555555555547 7.82933333333332  L 3.94982716049384 4.57244444444444  L 7.22686419753086 7.85935802469135  C 7.30390123456789 7.9367901234568  7.40503703703706 7.97550617283952  7.50656790123458 7.97550617283952  C 7.60770370370369 7.97550617283952  7.70844444444447 7.9367901234568  7.7854814814815 7.86014814814814  C 7.93995061728396 7.70607407407408  7.94034567901235 7.45639506172839  7.78627160493829 7.30153086419753  Z " fill-rule="nonzero" fill="#9aa8b4" stroke="none" transform="matrix(1 0 0 1 95 12 )" />
  </g>
</svg>