<?xml version="1.0" encoding="utf-8"?>
<svg version="1.1" xmlns:xlink="http://www.w3.org/1999/xlink" width="9px" height="9px" xmlns="http://www.w3.org/2000/svg">
  <g>
    <path d="M 9 4.5  C 9 2.01418269230766  6.98581730769229 0  4.5 0  C 2.01418269230771 0  0 2.01418269230766  0 4.5  C 0 6.98581730769234  2.01418269230771 9  4.5 9  C 6.98581730769229 9  9 6.98581730769234  9 4.5  Z M 6.12908653846156 6.12908653846154  C 5.99495192307694 6.26538461538462  5.77427884615386 6.26538461538462  5.64014423076921 6.12908653846154  L 4.5 4.9889423076923  L 3.35985576923079 6.12908653846154  C 3.22572115384614 6.26322115384613  3.00504807692306 6.26322115384613  2.87091346153844 6.12908653846154  C 2.80384615384614 6.06201923076924  2.76923076923079 5.9733173076923  2.76923076923079 5.88461538461542  C 2.76923076923079 5.79591346153848  2.80384615384614 5.70721153846154  2.87091346153844 5.64014423076924  L 4.0110576923077 4.5  L 2.87091346153844 3.35985576923076  C 2.80384615384614 3.29278846153846  2.76923076923079 3.20408653846152  2.76923076923079 3.11538461538458  C 2.76923076923079 3.0266826923077  2.80384615384614 2.93798076923076  2.87091346153844 2.87091346153846  C 3.00504807692306 2.73677884615387  3.22572115384614 2.73677884615387  3.35985576923079 2.87091346153846  L 4.5 4.0110576923077  L 5.64014423076921 2.87091346153846  C 5.77427884615386 2.73677884615387  5.99495192307694 2.73677884615387  6.12908653846156 2.87091346153846  C 6.26322115384613 3.00504807692306  6.26322115384613 3.22572115384617  6.12908653846156 3.35985576923076  L 4.9889423076923 4.5  L 6.12908653846156 5.64014423076924  C 6.26322115384613 5.77427884615383  6.26322115384613 5.99495192307694  6.12908653846156 6.12908653846154  Z " fill-rule="nonzero" fill="#5c6b77" stroke="none" />
  </g>
</svg>