<?xml version="1.0" encoding="utf-8"?>
<svg version="1.1" xmlns:xlink="http://www.w3.org/1999/xlink" width="300px" height="110px" xmlns="http://www.w3.org/2000/svg">
  <g>
    <path d="M 1 2  A 1 1 0 0 1 2 1 L 298 1  A 1 1 0 0 1 299 2 L 299 108  A 1 1 0 0 1 298 109 L 2 109  A 1 1 0 0 1 1 108 L 1 2  Z " fill-rule="nonzero" fill="#ffffff" stroke="none" />
    <path d="M 0.5 2  A 1.5 1.5 0 0 1 2 0.5 L 298 0.5  A 1.5 1.5 0 0 1 299.5 2 L 299.5 108  A 1.5 1.5 0 0 1 298 109.5 L 2 109.5  A 1.5 1.5 0 0 1 0.5 108 L 0.5 2  Z " stroke-width="1" stroke="#e8eaec" fill="none" stroke-opacity="0.8" />
  </g>
</svg>