<?xml version="1.0" encoding="utf-8"?>
<svg version="1.1" xmlns:xlink="http://www.w3.org/1999/xlink" width="25px" height="25px" xmlns="http://www.w3.org/2000/svg">
  <g transform="matrix(1 0 0 1 -34 -29 )">
    <path d="M 24.9528301886792 12.4943396226415  C 24.9528301886792 5.61683141720147  19.3775082054401 0.0415094339622328  12.5 0.0415094339622328  C 5.62249179455995 0.0415094339622328  0.0471698113207708 5.61683141720147  0.0471698113207708 12.4943396226415  C 0.0471698113207708 19.3718478280816  5.62249179455995 24.9471698113207  12.5 24.9471698113207  C 19.3775082054401 24.9471698113207  24.9528301886792 19.3718478280816  24.9528301886792 12.4943396226415  Z M 13.2849056603774 18.6226415094339  L 13.2849056603774 18.6075471698113  C 13.036094216644 18.8423737073564  12.706269652373 18.9721407490368  12.3641509433962 18.9698113207547  C 12.0182981649932 18.9765337236622  11.6850568046635 18.8399593956582  11.4433962264151 18.5924528301887  C 11.1982217933821 18.3554385194683  11.0616943024498 18.0277725412307  11.0660377358491 17.6867924528302  C 11.0519945327084 17.3440075469382  11.1901102507892 17.0125298235443  11.4433962264151 16.7811320754717  C 11.6876100042368 16.5391600492096  12.0205283173444 16.4081757948721  12.3641509433962 16.4188679245283  C 12.7126460004953 16.4057821320611  13.0511451293626 16.5368140529129  13.3 16.7811320754717  C 13.5532859756259 17.0125298235443  13.6914016937067 17.3440075469382  13.677358490566 17.6867924528302  C 13.682525934002 18.0397736010133  13.5402998379321 18.3789281377954  13.2849056603774 18.6226415094339  Z M 15.8509433962264 11.6792452830189  L 15.8509433962264 11.6641509433962  C 15.3742968327422 12.1550438216309  14.870352484278 12.618672622218  14.3415094339622 13.0528301886793  C 14.0311307032046 13.302497133255  13.7787585778291 13.6166746770897  13.6018867924528 13.9735849056604  C 13.4065169901604 14.3348003285578  13.307730667776 14.7403441783464  13.3150943396226 15.1509433962264  L 13.3150943396226 15.4528301886792  L 11.4283018867924 15.4528301886792  L 11.4283018867924 15.1509433962264  C 11.4071407386429 14.5661120840606  11.5316247454144 13.9851867191269  11.7905660377359 13.4603773584906  C 12.327979858073 12.6116978086154  13.0010825005117 11.8570069670932  13.7830188679245 11.2264150943396  L 14.0849056603774 10.8943396226415  C 14.3936593394045 10.5308272798454  14.5693492622573 10.0729686930169  14.5830188679245 9.59622641509435  C 14.5741763302906 9.07748266253452  14.369242369986 8.58132675863925  14.0094339622642 8.20754716981128  C 13.5983893439657 7.83464670215466  13.053872587899 7.64406583753129  12.5 7.67924528301887  C 11.8279690249278 7.62305557816694  11.1736386118693 7.91323689178421  10.7641509433962 8.44905660377361  C 10.4150126282902 8.98627618686874  10.2458476029168 9.62064503201918  10.2811320754717 10.2603773584905  L 8.46981132075473 10.2603773584905  C 8.41920421228156 9.14454117004362  8.82208335372388 8.0556786256048  9.5867924528302 7.24150943396222  C 10.4178837086188 6.45341055734497  11.5376743175139 6.04373106628577  12.6811320754717 6.10943396226412  C 13.7023391590921 6.02207215721421  14.7181190026262 6.33004796083895  15.5188679245283 6.96981132075473  C 16.2460938453297 7.61243670749025  16.6406413197539 8.5515708367534  16.5905660377358 9.52075471698112  C 16.5966476578655 10.3034234704529  16.3357609450778 11.0647867343029  15.8509433962264 11.6792452830189  Z " fill-rule="nonzero" fill="#ff9900" stroke="none" transform="matrix(1 0 0 1 34 29 )" />
  </g>
</svg>