<?xml version="1.0" encoding="utf-8"?>
<svg version="1.1" xmlns:xlink="http://www.w3.org/1999/xlink" width="20px" height="20px" xmlns="http://www.w3.org/2000/svg">
  <g transform="matrix(1 0 0 1 -1733 -11 )">
    <path d="M 1743 11  C 1748.6 11  1753 15.4  1753 21  C 1753 26.6  1748.6 31  1743 31  C 1737.4 31  1733 26.6  1733 21  C 1733 15.4  1737.4 11  1743 11  Z " fill-rule="nonzero" fill="#ed4014" stroke="none" />
    <path d="M 1743 11.5  C 1748.32 11.5  1752.5 15.68  1752.5 21  C 1752.5 26.32  1748.32 30.5  1743 30.5  C 1737.68 30.5  1733.5 26.32  1733.5 21  C 1733.5 15.68  1737.68 11.5  1743 11.5  Z " stroke-width="1" stroke="#ffffff" fill="none" />
  </g>
</svg>