<?xml version="1.0" encoding="utf-8"?>
<svg version="1.1" xmlns:xlink="http://www.w3.org/1999/xlink" width="17px" height="15px" xmlns="http://www.w3.org/2000/svg">
  <g transform="matrix(1 0 0 1 -268 -23 )">
    <path d="M 6.12 5.82249999999999  C 6.12 5.916  6.19650000000001 5.99249999999999  6.29000000000002 6  L 16.49 6  C 16.5835 5.99249999999999  16.66 5.916  16.66 5.82249999999999  L 16.66 4.63249999999999  C 16.66 4.539  16.5835 4.46249999999999  16.49 4.46249999999999  L 6.29000000000002 4.46249999999999  C 6.19650000000001 4.46249999999999  6.12 4.539  6.12 4.63249999999999  L 6.12 5.82249999999999  Z M 6.12 9.1375  L 6.12 10.3275  C 6.12 10.421  6.19650000000001 10.4975  6.29000000000002 10.4975  L 16.49 10.4975  C 16.5835 10.4975  16.66 10.421  16.66 10.3275  L 16.66 9.1375  C 16.66 9.044  16.5835 8.9675  16.49 9  L 6.29000000000002 9  C 6.19650000000001 8.9675  6.12 9.044  6.12 9.1375  Z M 17 0.170000000000002  C 17 0.0764999999999958  16.9235 0  16.83 0  L 0.170000000000016 0  C 0.07650000000001 0  0 0.0764999999999958  0 0.170000000000002  L 0 1.36  C 0 1.45350000000001  0.07650000000001 1.53  0.170000000000016 1.53  L 16.83 1.53  C 16.9235 1.53  17 1.45350000000001  17 1.36  L 17 0.170000000000002  Z M 17 13.6  C 17 13.5065  16.9235 13.43  16.83 13.43  L 0.170000000000016 13.43  C 0.07650000000001 13.43  0 13.5065  0 13.6  L 0 14.79  C 0 14.8835  0.07650000000001 14.96  0.170000000000016 15  L 16.83 15  C 16.9235 14.96  17 14.8835  17 14.79  L 17 13.6  Z M 0.0722499999999968 7.333375  C -0.0233749999999873 7.40774999999999  -0.0233749999999873 7.55225  0.0722499999999968 7.62662499999999  L 3.39362499999999 10.2425  C 3.51687500000003 10.34025  3.69962500000003 10.253125  3.69962500000003 10.095875  L 3.69962500000003 4.864125  C 3.69962500000003 4.706875  3.51900000000001 4.61975  3.39362499999999 4.7175  L 0.0722499999999968 7.333375  Z " fill-rule="nonzero" fill="#515a6e" stroke="none" transform="matrix(1 0 0 1 268 23 )" />
  </g>
</svg>