<?xml version="1.0" encoding="utf-8"?>
<svg version="1.1" xmlns:xlink="http://www.w3.org/1999/xlink" width="17px" height="18px" xmlns="http://www.w3.org/2000/svg">
  <g transform="matrix(1 0 0 1 -311 -21 )">
    <path d="M 16.8794471153846 2.60516826923077  C 16.8774038461538 2.47031250000001  16.7200721153846 2.39471153846154  16.6138221153846 2.47848557692308  L 15.4614182692308 3.37956730769231  C 13.8901442307692 1.37103365384615  11.4463942307692 0.0817307692307736  8.70228365384617 0.0817307692307736  C 3.96394230769232 0.0817307692307736  0.128725961538464 3.91286057692308  0.122596153846132 8.65324519230769  C 0.116466346153857 13.3977163461539  3.95985576923079 17.2451923076923  8.70228365384617 17.2451923076923  C 12.4067307692308 17.2451923076923  15.5635817307692 14.8954326923077  16.7650240384615 11.6037259615385  C 16.7956730769231 11.5179086538461  16.7507211538461 11.421875  16.6649038461538 11.3932692307692  L 15.5063701923077 10.9948317307692  C 15.4225961538461 10.9662259615385  15.3306490384616 11.0091346153846  15.3 11.0929086538462  C 15.2632211538461 11.1950721153846  15.2223557692308 11.2972355769231  15.1794471153846 11.3973557692308  C 14.8259615384615 12.2350961538462  14.3192307692308 12.9870192307692  13.6735576923077 13.6326923076923  C 13.0278846153846 14.2783653846154  12.2759615384616 14.7850961538462  11.4402644230769 15.140625  C 10.5759615384615 15.5063701923077  9.65444711538464 15.6923076923077  8.7063701923077 15.6923076923077  C 7.75625000000002 15.6923076923077  6.83677884615383 15.5063701923077  5.97247596153846 15.140625  C 5.13677884615385 14.7871394230769  4.38485576923074 14.2804086538462  3.73918269230768 13.6326923076923  C 3.09350961538462 12.9870192307692  2.58677884615383 12.2350961538462  2.23329326923079 11.3973557692308  C 1.86754807692307 10.5310096153846  1.68161057692305 9.61153846153846  1.68161057692305 8.66141826923077  C 1.68161057692305 7.71129807692307  1.86754807692307 6.79182692307693  2.23329326923079 5.92548076923077  C 2.58677884615383 5.08774038461539  3.09350961538462 4.33581730769231  3.73918269230768 3.69014423076923  C 4.38485576923074 3.04447115384616  5.13677884615385 2.53774038461539  5.97247596153846 2.18221153846154  C 6.83677884615383 1.81646634615385  7.75829326923076 1.63052884615385  8.7063701923077 1.63052884615385  C 9.65649038461538 1.63052884615385  10.5759615384615 1.81646634615385  11.4402644230769 2.18221153846154  C 12.2759615384616 2.53569711538462  13.0278846153846 3.04242788461538  13.6735576923077 3.69014423076923  C 13.8758413461538 3.89242788461539  14.0658653846154 4.10697115384616  14.2415865384615 4.33173076923077  L 13.0115384615385 5.29206730769231  C 12.9032451923077 5.37584134615385  12.9400240384616 5.54747596153847  13.0728365384616 5.58016826923077  L 16.6608173076923 6.45877403846154  C 16.7629807692308 6.48329326923077  16.8631009615385 6.40564903846155  16.8631009615385 6.30144230769231  L 16.8794471153846 2.60516826923077  Z " fill-rule="nonzero" fill="#515a6e" stroke="none" transform="matrix(1 0 0 1 311 21 )" />
  </g>
</svg>