<?xml version="1.0" encoding="utf-8"?>
<svg version="1.1" xmlns:xlink="http://www.w3.org/1999/xlink" width="10px" height="10px" xmlns="http://www.w3.org/2000/svg">
  <g transform="matrix(1 0 0 1 -1603 -21 )">
    <path d="M 7.58802816901402 1.35714285714286  C 7.47887323943655 1.24642857142857  7.30281690140851 1.24642857142857  7.19366197183103 1.35714285714286  L 0.0809859154928745 8.57142857142858  C 0.0281690140845967 8.625  0 8.69642857142858  0 8.77142857142857  L 0 9.71785714285716  C 0 9.875  0.12676056338023 10  0.278169014084597 10  L 1.20422535211264 10  C 1.2781690140846 10  1.35211267605632 9.97142857142856  1.40492957746483 9.91785714285714  L 8.52112676056345 2.70357142857142  C 8.63028169014092 2.59285714285716  8.63028169014092 2.41428571428571  8.52112676056345 2.30357142857142  L 7.58802816901402 1.35714285714286  Z M 9.86267605633793 1.09642857142856  C 9.85915492957747 0.939285714285717  9.80281690140851 0.789285714285711  9.70422535211264 0.678571428571416  L 9.19718309859149 0.164285714285711  L 9.19014084507035 0.157142857142844  C 9.08098591549287 0.0607142857142833  8.93661971830988 0  8.78521126760575 0  C 8.63028169014092 0  8.4859154929577 0.0607142857142833  8.37676056338023 0.160714285714278  L 7.97887323943655 0.56785714285715  C 7.92605633802827 0.625  7.92605633802827 0.714285714285722  7.97887323943655 0.767857142857139  L 8.34507042253517 1.13928571428571  L 9.10915492957747 1.91428571428571  C 9.16549295774644 1.97142857142856  9.25352112676046 1.97142857142856  9.30985915492965 1.91428571428571  L 9.70774647887333 1.5107142857143  C 9.80633802816897 1.40000000000001  9.86267605633793 1.25714285714287  9.86267605633793 1.09642857142856  Z " fill-rule="nonzero" fill="#515a6e" stroke="none" transform="matrix(1 0 0 1 1603 21 )" />
  </g>
</svg>