<?xml version="1.0" encoding="utf-8"?>
<svg version="1.1" xmlns:xlink="http://www.w3.org/1999/xlink" width="132px" height="83px" xmlns="http://www.w3.org/2000/svg">
  <defs>
    <filter x="-5px" y="-5px" width="132px" height="83px" filterUnits="userSpaceOnUse" id="filter27">
      <feOffset dx="0" dy="0" in="SourceAlpha" result="shadowOffsetInner" />
      <feGaussianBlur stdDeviation="2.5" in="shadowOffsetInner" result="shadowGaussian" />
      <feComposite in2="shadowGaussian" operator="atop" in="SourceAlpha" result="shadowComposite" />
      <feColorMatrix type="matrix" values="0 0 0 0 0.501960784313725  0 0 0 0 0.525490196078431  0 0 0 0 0.584313725490196  0 0 0 0.349019607843137 0  " in="shadowComposite" />
    </filter>
    <g id="widget28">
      <path d="M 1 2  A 1 1 0 0 1 2 1 L 120 1  A 1 1 0 0 1 121 2 L 121 71  A 1 1 0 0 1 120 72 L 2 72  A 1 1 0 0 1 1 71 L 1 2  Z " fill-rule="nonzero" fill="#ffffff" stroke="none" />
      <path d="M 0.5 2  A 1.5 1.5 0 0 1 2 0.5 L 120 0.5  A 1.5 1.5 0 0 1 121.5 2 L 121.5 71  A 1.5 1.5 0 0 1 120 72.5 L 2 72.5  A 1.5 1.5 0 0 1 0.5 71 L 0.5 2  Z " stroke-width="1" stroke="#e8eaec" fill="none" stroke-opacity="0.8" />
    </g>
  </defs>
  <g transform="matrix(1 0 0 1 5 5 )">
    <use xlink:href="#widget28" filter="url(#filter27)" />
    <use xlink:href="#widget28" />
  </g>
</svg>