<?xml version="1.0" encoding="utf-8"?>
<svg version="1.1" xmlns:xlink="http://www.w3.org/1999/xlink" width="14px" height="14px" xmlns="http://www.w3.org/2000/svg">
  <g transform="matrix(1 0 0 1 -17 -43 )">
    <path d="M 13.9963541666667 8.59484536082473  C 13.3255208333333 8.33505154639177  12.8442708333334 7.68917525773196  12.8442708333334 6.9278350515464  C 12.8442708333334 6.17010309278351  13.321875 5.52422680412371  14 5.26443298969072  C 13.8213541666667 4.52474226804124  13.5260416666667 3.8319587628866  13.1359375 3.20412371134022  C 12.9026041666667 3.30515463917524  12.6546875 3.35927835051547  12.403125 3.35927835051547  C 11.94375 3.35927835051547  11.484375 3.18608247422681  11.1307291666667 2.83969072164949  C 10.5875 2.3020618556701  10.4671875 1.51185567010309  10.7588541666667 0.855154639175268  C 10.128125 0.469072164948457  9.42447916666667 0.176804123711349  8.68072916666666 0  C 8.421875 0.667525773195877  7.765625 1.14381443298969  7 1.14381443298969  C 6.234375 1.14381443298969  5.578125 0.667525773195877  5.31927083333334 0  C 4.57187500000001 0.176804123711349  3.87187499999998 0.469072164948457  3.23750000000002 0.855154639175268  C 3.53281250000001 1.50824742268041  3.40885416666667 2.3020618556701  2.86562499999999 2.83969072164949  C 2.515625 3.18608247422681  2.05260416666668 3.35927835051547  1.59322916666665 3.35927835051547  C 1.34166666666668 3.35927835051547  1.09375 3.30876288659795  0.860416666666659 3.20412371134022  C 0.473958333333332 3.83556701030928  0.178645833333341 4.52835051546391  0 5.26804123711341  C 0.674479166666668 5.52422680412371  1.15572916666665 6.17010309278351  1.15572916666665 6.93144329896906  C 1.15572916666665 7.68917525773196  0.678124999999991 8.33505154639174  0.00364583333332291 8.59484536082473  C 0.182291666666668 9.33453608247423  0.477604166666659 10.0273195876289  0.867708333333351 10.6551546391753  C 1.10104166666665 10.5541237113402  1.34895833333333 10.5036082474227  1.59687500000002 10.5036082474227  C 2.05625000000001 10.5036082474227  2.515625 10.6768041237113  2.86927083333332 11.0231958762887  C 3.40885416666667 11.5572164948454  3.53281250000001 12.3510309278351  3.24114583333334 13.0041237113402  C 3.87552083333335 13.390206185567  4.57916666666666 13.6824742268041  5.32291666666666 13.8592783505155  C 5.58177083333332 13.1917525773196  6.234375 12.7190721649485  7 12.7190721649485  C 7.765625 12.7190721649485  8.41822916666668 13.1917525773196  8.67708333333333 13.8592783505155  C 9.42447916666667 13.6824742268041  10.1244791666666 13.390206185567  10.7588541666667 13.0041237113402  C 10.4671875 12.3510309278351  10.5911458333333 11.560824742268  11.1307291666667 11.0231958762887  C 11.4807291666667 10.6768041237113  11.9401041666667 10.5036082474227  12.403125 10.5036082474227  C 12.6510416666667 10.5036082474227  12.9026041666667 10.5541237113402  13.1322916666666 10.6551546391753  C 13.5223958333333 10.0273195876289  13.8177083333333 9.33092783505155  13.9963541666667 8.59484536082473  Z M 9.94947916666668 6.92422680412372  C 9.94947916666668 8.51546391752578  8.64791666666665 9.81082474226804  7.03281250000001 9.81082474226804  C 5.41770833333332 9.81082474226804  4.11614583333334 8.51546391752578  4.11614583333334 6.92422680412372  C 4.11614583333334 5.33298969072165  5.41770833333332 4.03762886597937  7.03281250000001 4.03762886597937  C 8.64791666666665 4.03762886597937  9.94947916666668 5.33298969072165  9.94947916666668 6.92422680412372  Z " fill-rule="nonzero" fill="#515a6e" stroke="none" transform="matrix(1 0 0 1 17 43 )" />
  </g>
</svg>