<?xml version="1.0" encoding="utf-8"?>
<svg version="1.1" xmlns:xlink="http://www.w3.org/1999/xlink" width="14px" height="12px" xmlns="http://www.w3.org/2000/svg">
  <g transform="matrix(1 0 0 1 -17 -82 )">
    <path d="M 13.7778846153846 6.44471153846155  C 13.9225961538461 6.30000000000001  13.9966346153846 6.13173076923076  13.9966346153846 5.94999999999999  C 13.9966346153846 5.77163461538461  13.9192307692308 5.60336538461539  13.7778846153846 5.46201923076922  L 10.9341346153846 2.62836538461538  C 10.8466346153846 2.54086538461539  10.7288461538461 2.49038461538461  10.6009615384615 2.49038461538461  C 10.4764423076923 2.49038461538461  10.3552884615385 2.53749999999999  10.2677884615385 2.62836538461538  C 10.0826923076923 2.81346153846154  10.0826923076923 3.10961538461538  10.2677884615385 3.29471153846154  L 12.4620192307692 5.51923076923077  L 3.83653846153845 5.51923076923077  C 3.57740384615386 5.45528846153846  3.36538461538461 5.6673076923077  3.36538461538461 5.9264423076923  C 3.36538461538461 6.18557692307692  3.57740384615386 6.39759615384614  3.83653846153845 6.32692307692307  L 12.4721153846154 6.32692307692307  L 10.3317307692308 8.55480769230769  C 10.15 8.73653846153846  10.15 9.03605769230768  10.3317307692308 9.22115384615384  C 10.4225961538461 9.30528846153845  10.54375 9.35576923076923  10.6649038461539 9.35576923076923  C 10.7927884615385 9.35576923076923  10.9105769230769 9.30865384615385  10.9980769230769 9.21778846153845  L 13.7778846153846 6.44471153846155  Z M 1.54807692307693 11.8461538461538  L 7.80769230769232 11.8461538461538  C 8.66249999999999 11.8461538461538  9.35576923076923 11.1528846153846  9.35576923076923 10.2980769230769  C 9.35576923076923 10.0389423076923  9.14375000000001 9.82692307692307  8.88461538461539 9.82692307692307  C 8.62548076923076 9.82692307692307  8.41346153846155 10.0389423076923  8.41346153846155 10.2980769230769  C 8.41346153846155 10.63125  8.14086538461538 10.9038461538462  7.80769230769232 10.9038461538462  L 1.54807692307693 10.9038461538462  C 1.21490384615385 10.9038461538462  0.942307692307679 10.63125  0.942307692307679 10.2980769230769  L 0.942307692307679 1.54807692307692  C 0.942307692307679 1.21490384615385  1.21490384615385 0.942307692307693  1.54807692307693 0.942307692307693  L 7.80769230769232 0.942307692307693  C 8.14086538461538 0.942307692307693  8.41346153846155 1.21490384615385  8.41346153846155 1.54807692307692  C 8.41346153846155 1.80721153846154  8.62548076923076 2.01923076923077  8.88461538461539 2.01923076923077  C 9.14375000000001 2.01923076923077  9.35576923076923 1.80721153846154  9.35576923076923 1.54807692307692  C 9.35576923076923 0.693269230769232  8.66249999999999 0  7.80769230769232 0  L 1.54807692307693 0  C 0.693269230769232 0  0 0.693269230769232  0 1.54807692307692  L 0 10.2980769230769  C 0 11.1528846153846  0.693269230769232 11.8461538461538  1.54807692307693 11.8461538461538  Z " fill-rule="nonzero" fill="#515a6e" stroke="none" transform="matrix(1 0 0 1 17 82 )" />
  </g>
</svg>