<?xml version="1.0" encoding="utf-8"?>
<svg version="1.1" xmlns:xlink="http://www.w3.org/1999/xlink" width="8px" height="8px" xmlns="http://www.w3.org/2000/svg">
  <g transform="matrix(1 0 0 1 -140 -102 )">
    <path d="M 8 4  C 8 2.93157894736839  7.58421052631589 1.92631578947373  6.8289473684209 1.17105263157896  C 6.07368421052624 0.415789473684299  5.06842105263158 0  4 0  C 2.93157894736842 0  1.92631578947376 0.415789473684299  1.1710526315791 1.17105263157896  C 0.415789473684107 1.92631578947373  0 2.93157894736839  0 4  C 0 5.06842105263161  0.415789473684107 6.07368421052627  1.1710526315791 6.82894736842104  C 1.92631578947376 7.5842105263157  2.93157894736842 8  4 8  C 5.06842105263158 8  6.07368421052624 7.5842105263157  6.8289473684209 6.82894736842104  C 7.58421052631589 6.07368421052627  8 5.06842105263161  8 4  Z " fill-rule="nonzero" fill="#2d8cf0" stroke="none" transform="matrix(1 0 0 1 140 102 )" />
  </g>
</svg>