<?xml version="1.0" encoding="utf-8"?>
<svg version="1.1" xmlns:xlink="http://www.w3.org/1999/xlink" width="8px" height="11px" xmlns="http://www.w3.org/2000/svg">
  <g transform="matrix(1 0 0 1 -38 -25 )">
    <path d="M 7.43181818181819 1.83333333333333  L 0.42897727272728 1.83333333333333  L 1.09943181818181 10.1606770833333  C 1.09943181818181 10.6247395833333  1.47159090909091 11  1.93181818181819 11  L 5.9375 11  C 6.39772727272728 11  6.76988636363637 10.6247395833333  6.76988636363637 10.1606770833333  L 7.43181818181819 1.83333333333333  Z M 2.71022727272728 9.42447916666667  L 2.17897727272728 9.42447916666667  L 1.98863636363637 2.75  L 2.51420454545453 2.75  L 2.71022727272728 9.42447916666667  Z M 4.17613636363637 2.75  L 4.17613636363637 9.42447916666667  L 3.66477272727272 9.42447916666667  L 3.66477272727272 2.75  L 4.17613636363637 2.75  Z M 5.85227272727272 2.75  L 5.66193181818181 9.42447916666667  L 5.13352272727272 9.42447916666667  L 5.32670454545453 2.75  L 5.85227272727272 2.75  Z M 7.84090909090909 1.546875  C 7.84090909090909 1.04270833333334  7.48863636363637 0.802083333333329  6.98863636363637 0.802083333333329  L 5.96590909090909 0.802083333333329  L 5.21875 0.143229166666671  C 5.11363636363637 0.0515625000000028  4.98011363636363 0  4.84375 0  L 3.00284090909091 0  C 2.86363636363637 0  2.72727272727272 0.0515625000000028  2.62215909090909 0.143229166666671  L 1.875 0.802083333333329  L 0.85227272727272 0.802083333333329  C 0.35227272727272 0.802083333333329  0 1.04270833333334  0 1.546875  L 7.84090909090909 1.546875  Z " fill-rule="nonzero" fill="#ffffff" stroke="none" transform="matrix(1 0 0 1 38 25 )" />
  </g>
</svg>