<?xml version="1.0" encoding="utf-8"?>
<svg version="1.1" xmlns:xlink="http://www.w3.org/1999/xlink" width="12px" height="8px" xmlns="http://www.w3.org/2000/svg">
  <g transform="matrix(1 0 0 1 -11 -26 )">
    <path d="M 5.98129175946552 8  C 8.55768374164809 8  10.4899777282851 5.84166666666657  11.8636971046771 4.27777777777776  C 12.0053452115813 4.1166666666667  12.0133630289533 3.87222222222217  11.8770601336303 3.70277777777779  C 10.4766146993318 1.93888888888883  8.53897550111361 0  5.98129175946552 0  C 3.83251670378623 0  2.1380846325167 1.40555555555559  0.112249443207114 3.70277777777779  C -0.0347438752783962 3.87222222222217  -0.0374164810690711 4.125  0.109576837416439 4.29444444444438  C 1.84409799554569 6.28611111111106  3.37282850779511 8  5.98129175946552 8  Z M 3.58396436525608 3.8833333333333  C 3.64008908685964 2.60000000000007  4.63964365256124 1.56111111111117  5.87438752783963 1.50277777777783  C 7.29086859688194 1.43611111111117  8.45612472160356 2.64722222222228  8.38930957683742 4.1166666666667  C 8.33318485523387 5.39999999999993  7.33363028953227 6.43888888888883  6.09888641425386 6.49722222222217  C 4.68240534521154 6.56388888888883  3.51714922048997 5.35277777777772  3.58396436525608 3.8833333333333  Z M 8.12903225806451 4  C 8.12903225806451 3.95937499999996  8.12600806451615 3.91874999999992  8.12600806451615 3.87812500000008  C 7.9566532258065 3.95625000000008  7.7721774193548 4  7.57560483870964 4  C 6.81350806451613 4  6.19354838709678 3.34062499999992  6.19354838709678 2.53125  C 6.19354838709678 2.34375  6.22681451612901 2.16562500000004  6.28729838709676 2.00312500000008  C 6.25705645161289 2.00312500000008  6.22681451612901 2  6.19354838709678 2  C 5.07762096774192 2  4.17943548387099 2.98124999999992  4.26411290322577 4.15312499999992  C 4.33669354838707 5.13124999999996  5.09879032258069 5.91874999999992  6.04536290322579 5.99375000000004  C 7.17943548387095 6.08125000000008  8.12903225806451 5.15312499999992  8.12903225806451 4  Z " fill-rule="nonzero" fill="#ffffff" stroke="none" transform="matrix(1 0 0 1 11 26 )" />
  </g>
</svg>