<?xml version="1.0" encoding="utf-8"?>
<svg version="1.1" xmlns:xlink="http://www.w3.org/1999/xlink" width="60px" height="60px" xmlns="http://www.w3.org/2000/svg">
  <g transform="matrix(1 0 0 1 -211 -233 )">
    <path d="M 212 237  A 3 3 0 0 1 215 234 L 267 234  A 3 3 0 0 1 270 237 L 270 289  A 3 3 0 0 1 267 292 L 215 292  A 3 3 0 0 1 212 289 L 212 237  Z " fill-rule="nonzero" fill="#ffffff" stroke="none" />
    <path d="M 211.5 237  A 3.5 3.5 0 0 1 215 233.5 L 267 233.5  A 3.5 3.5 0 0 1 270.5 237 L 270.5 289  A 3.5 3.5 0 0 1 267 292.5 L 215 292.5  A 3.5 3.5 0 0 1 211.5 289 L 211.5 237  Z " stroke-width="1" stroke-dasharray="3,1" stroke="#dcdee2" fill="none" stroke-dashoffset="0.5" />
  </g>
</svg>