<?xml version="1.0" encoding="utf-8"?>
<svg version="1.1" xmlns:xlink="http://www.w3.org/1999/xlink" width="8px" height="5px" xmlns="http://www.w3.org/2000/svg">
  <g transform="matrix(1 0 0 1 -228 -24 )">
    <path d="M 0.973809523809507 0.264285714285734  L 4 3.28809523809537  L 7.02380952380952 0.261904761904816  C 7.24761904761903 0.0380952380951385  7.60952380952381 0.0380952380951385  7.8309523809524 0.261904761904816  C 8.05238095238093 0.485714285714266  8.05238095238093 0.847619047618991  7.8309523809524 1.07142857142867  L 4.40476190476193 4.5  C 4.18809523809523 4.7166666666667  3.84047619047618 4.72142857142876  3.61666666666667 4.51666666666665  L 0.166666666666686 1.07380952380959  C 0.0547619047619037 0.961904761904862  0 0.814285714285688  0 0.66904761904766  C 0 0.523809523809632  0.0547619047619037 0.376190476190459  0.166666666666686 0.264285714285734  C 0.390476190476193 0.0404761904762836  0.752380952380975 0.0404761904762836  0.973809523809507 0.264285714285734  Z " fill-rule="nonzero" fill="#ffffff" stroke="none" fill-opacity="0.698039215686274" transform="matrix(1 0 0 1 228 24 )" />
  </g>
</svg>