<?xml version="1.0" encoding="utf-8"?>
<svg version="1.1" xmlns:xlink="http://www.w3.org/1999/xlink" width="13px" height="13px" xmlns="http://www.w3.org/2000/svg">
  <g transform="matrix(1 0 0 1 -28 -20 )">
    <path d="M 1.08177458033573 0  C 0.483213429256622 0  0 0.483213429256622  0 1.08177458033573  L 0 11.8901678657075  C 0 12.4856115107914  0.483213429256622 12.9719424460432  1.08177458033573 13  L 11.8901678657075 13  C 12.4856115107914 12.9719424460432  12.9719424460432 12.4887290167866  13 11.8901678657075  L 13 1.08177458033573  C 12.9719424460432 0.486330935251829  12.4887290167866 0  11.8901678657075 0  L 1.08177458033573 0  Z M 3.32014388489209 9.80767386091129  C 3.28585131894489 10.0851318944844  3.06139088729013 10.3095923261391  2.78393285371708 10.3438848920863  C 2.37553956834533 10.3968824940048  2.03261390887289 10.0539568345324  2.08561151079138 9.64556354916071  C 2.11990407673858 9.36810551558756  2.34436450839324 9.1436450839329  2.6218225419664 9.1093525179856  C 3.03021582733814 9.05635491606711  3.37314148681058 9.39928057553955  3.32014388489209 9.80767386091129  Z M 3.32014388489209 6.56546762589929  C 3.28585131894489 6.84292565947244  3.06139088729013 7.06738609112712  2.78393285371708 7.1016786570743  C 2.37553956834533 7.15467625899279  2.03261390887289 6.81175059952035  2.08561151079138 6.40335731414872  C 2.11990407673858 6.12589928057555  2.34436450839324 5.90143884892089  2.6218225419664 5.86714628297359  C 3.03021582733814 5.8141486810552  3.37314148681058 6.15707434052756  3.32014388489209 6.56546762589929  Z M 3.32014388489209 3.32326139088728  C 3.28585131894489 3.60071942446045  3.06139088729013 3.82517985611511  2.78393285371708 3.85947242206231  C 2.37553956834533 3.9124700239808  2.03261390887289 3.56954436450835  2.08561151079138 3.16115107913672  C 2.11990407673858 2.88369304556356  2.34436450839324 2.65923261390888  2.6218225419664 2.6249400479616  C 3.03021582733814 2.57194244604321  3.37314148681058 2.91486810551555  3.32014388489209 3.32326139088728  Z M 10.9330935251798 9.726618705036  C 10.9330935251798 9.96666666666667  10.736690647482 10.1630695443645  10.4966426858513 10.1630695443645  L 4.88513189448445 10.1630695443645  C 4.64508393285368 10.1630695443645  4.44868105515592 9.96666666666667  4.44868105515592 9.726618705036  C 4.44868105515592 9.48657074340524  4.64508393285368 9.29016786570747  4.88513189448445 9.29016786570747  L 10.4966426858513 9.29016786570747  C 10.736690647482 9.29016786570747  10.9330935251798 9.48657074340524  10.9330935251798 9.726618705036  Z M 10.9330935251798 6.484412470024  C 10.9330935251798 6.72446043165466  10.736690647482 6.92086330935254  10.4966426858513 6.92086330935254  L 4.88513189448445 6.92086330935254  C 4.64508393285368 6.92086330935254  4.44868105515592 6.72446043165466  4.44868105515592 6.484412470024  C 4.44868105515592 6.24436450839325  4.64508393285368 6.04796163069547  4.88513189448445 6.04796163069547  L 10.4966426858513 6.04796163069547  C 10.736690647482 6.04796163069547  10.9330935251798 6.24436450839325  10.9330935251798 6.484412470024  Z M 10.9330935251798 3.24220623501201  C 10.9330935251798 3.48225419664267  10.736690647482 3.67865707434053  10.4966426858513 3.67865707434053  L 4.88513189448445 3.67865707434053  C 4.64508393285368 3.67865707434053  4.44868105515592 3.48225419664267  4.44868105515592 3.24220623501201  C 4.44868105515592 3.00215827338134  4.64508393285368 2.80575539568346  4.88513189448445 2.80575539568346  L 10.4966426858513 2.80575539568346  C 10.736690647482 2.80575539568346  10.9330935251798 3.00215827338134  10.9330935251798 3.24220623501201  Z " fill-rule="nonzero" fill="#ffffff" stroke="none" fill-opacity="0.698039215686274" transform="matrix(1 0 0 1 28 20 )" />
  </g>
</svg>