<?xml version="1.0" encoding="utf-8"?>
<svg version="1.1" xmlns:xlink="http://www.w3.org/1999/xlink" width="14px" height="13px" xmlns="http://www.w3.org/2000/svg">
  <g transform="matrix(1 0 0 1 -28 -20 )">
    <path d="M 14 2.87067307692308  L 7.16826923076923 2.87067307692308  L 7.16826923076923 0  L 0 0  L 0 13  L 14 13  L 14 2.87067307692308  Z M 2.86730769230769 10.0490384615385  L 2.86730769230769 11.4860576923077  L 1.43365384615385 11.4860576923077  L 1.43365384615385 10.0490384615385  L 2.86730769230769 10.0490384615385  Z M 2.86730769230769 7.17836538461539  L 2.86730769230769 8.61538461538461  L 1.43365384615385 8.61538461538461  L 1.43365384615385 7.17836538461539  L 2.86730769230769 7.17836538461539  Z M 2.86730769230769 4.30769230769231  L 2.86730769230769 5.74471153846154  L 1.43365384615385 5.74471153846154  L 1.43365384615385 4.30769230769231  L 2.86730769230769 4.30769230769231  Z M 2.86730769230769 1.43365384615385  L 2.86730769230769 2.87067307692308  L 1.43365384615385 2.87067307692308  L 1.43365384615385 1.43365384615385  L 2.86730769230769 1.43365384615385  Z M 5.73461538461538 10.0490384615385  L 5.73461538461538 11.4860576923077  L 4.30096153846154 11.4860576923077  L 4.30096153846154 10.0490384615385  L 5.73461538461538 10.0490384615385  Z M 5.73461538461538 7.17836538461538  L 5.73461538461538 8.61538461538461  L 4.30096153846154 8.61538461538461  L 4.30096153846154 7.17836538461538  L 5.73461538461538 7.17836538461538  Z M 5.73461538461538 4.30769230769231  L 5.73461538461538 5.74471153846154  L 4.30096153846154 5.74471153846154  L 4.30096153846154 4.30769230769231  L 5.73461538461538 4.30769230769231  Z M 5.73461538461538 1.43365384615385  L 5.73461538461538 2.87067307692308  L 4.30096153846154 2.87067307692308  L 4.30096153846154 1.43365384615385  L 5.73461538461538 1.43365384615385  Z M 12.5663461538462 4.30769230769231  L 12.5663461538462 11.4860576923077  L 7.16826923076923 11.4860576923077  L 7.16826923076923 10.0490384615385  L 8.60192307692307 10.0490384615385  L 8.60192307692307 8.61538461538461  L 7.16826923076923 8.61538461538461  L 7.16826923076923 7.17836538461539  L 8.60192307692307 7.17836538461539  L 8.60192307692307 5.74134615384615  L 7.16826923076923 5.74134615384615  L 7.16826923076923 4.30769230769231  L 12.5663461538462 4.30769230769231  Z M 11.3009615384615 7.18173076923077  L 11.3009615384615 5.74471153846154  L 9.86730769230769 5.74471153846154  L 9.86730769230769 7.18173076923077  L 11.3009615384615 7.18173076923077  Z M 11.3009615384615 10.0524038461538  L 11.3009615384615 8.61538461538461  L 9.86730769230769 8.61538461538461  L 9.86730769230769 10.0524038461538  L 11.3009615384615 10.0524038461538  Z " fill-rule="nonzero" fill="#ffffff" stroke="none" transform="matrix(1 0 0 1 28 20 )" />
  </g>
</svg>