<?xml version="1.0" encoding="utf-8"?>
<svg version="1.1" xmlns:xlink="http://www.w3.org/1999/xlink" width="15px" height="17px" xmlns="http://www.w3.org/2000/svg">
  <g transform="matrix(1 0 0 1 -28 -18 )">
    <path d="M 6.96022727272727 2.78734615384615  L 7.03977272727272 2.78734615384615  C 7.32148295454546 2.78734615384615  7.99077840909091 2.95961538461538  7.99077840909091 2.95961538461538  C 9.80397727272728 3.36142307692307  11.0802443181818 4.9765  11.0802443181818 6.8  L 11.0802443181818 11.7081538461538  L 11.4509659090909 12.0683076923077  L 11.7607159090909 12.3691923076923  L 2.2392840909091 12.3691923076923  L 2.54903409090909 12.0683076923077  L 2.91975568181819 11.7081538461538  L 2.91975568181819 6.8  C 2.91975568181819 4.97653846153846  4.19602272727273 3.36142307692307  6.00922159090909 2.95961538461538  C 6.00922159090909 2.95961538461538  6.72684090909091 2.78734615384615  6.96022727272727 2.78734615384615  Z M 8.23530113636363 1.2  C 8.23530113636363 0.519923076923078  7.70007954545454 0  7 0  C 6.29992045454546 0  5.76469886363637 0.519923076923078  5.76469886363637 1.2  L 5.76469886363637 1.75996153846154  C 3.41751136363636 2.28007692307693  1.64702840909091 4.36  1.64702840909091 6.8  L 1.64702840909091 11.2  L 0 12.8  L 0 13.6  L 14 13.6  L 14 12.8  L 12.3529715909091 11.2  L 12.3529715909091 6.8  C 12.3529715909091 4.36  10.5824488636364 2.28007692307693  8.23530113636363 1.75996153846154  L 8.23530113636363 1.2  Z M 7 16  C 7.90598295454545 16  8.64702840909091 15.2800384615385  8.64702840909091 14.4  L 5.35293181818182 14.4  C 5.35293181818182 15.2800384615385  6.09401704545455 16  7 16  Z " fill-rule="nonzero" fill="#bababd" stroke="none" fill-opacity="0.898039215686275" transform="matrix(1 0 0 1 28 18 )" />
  </g>
</svg>