<?xml version="1.0" encoding="utf-8"?>
<svg version="1.1" xmlns:xlink="http://www.w3.org/1999/xlink" width="13px" height="13px" xmlns="http://www.w3.org/2000/svg">
  <g transform="matrix(1 0 0 1 -28 -20 )">
    <path d="M 11.75 12  C 12.4375 12.0095238095238  13 11.4465773809524  13 10.7585317460317  L 13 1.25099206349206  C 13 0.562946428571429  12.4375 0  11.75 0  L 1.25 0  C 0.5625 0  0 0.562946428571429  0 1.25099206349206  L 0 10.7585317460317  C 0 11.4465773809524  0.5625 12.0095238095238  1.25 12  L 11.75 12  Z M 1.375 1  L 11.625 1  C 11.9 0.875694444444449  12.125 1.10087301587301  12.1333333333333 1.37609126984127  L 12.1333333333333 5.50436507936508  C 12.125 5.77958333333333  11.9 6.00476190476191  11.625 6.06666666666667  L 8.91249999999999 6.06666666666667  C 8.7 6.00476190476191  8.5125 6.13611607142857  8.440625 6.3362748015873  C 8.3125 6.6990625  7.99375000000001 7.00555555555556  7.625 7.05714285714286  L 5.375 7.05714285714286  C 5.003125 7.00555555555556  4.684375 6.6990625  4.559375 6.3362748015873  C 4.49062500000001 6.13611607142857  4.3 6.00476190476191  4.08750000000001 6.06666666666667  L 1.375 6.06666666666667  C 1.09999999999999 6.00476190476191  0.875 5.77958333333333  0.86666666666666 5.50436507936508  L 0.86666666666666 1.37609126984127  C 0.875 1.10087301587301  1.09999999999999 0.875694444444449  1.375 1  Z M 11.0190476190476 2.43312629399586  C 11.0190476190476 2.18443064182195  10.8213392857143 1.98095238095238  10.5796957671958 1.98095238095238  L 2.42030423280423 1.98095238095238  C 2.17866071428571 1.98095238095238  1.98095238095237 2.18443064182195  1.98095238095237 2.43312629399586  C 1.98095238095237 2.68182194616977  2.17866071428571 2.88530020703934  2.42030423280423 2.84761904761905  L 10.5796957671958 2.84761904761905  C 10.8213392857143 2.88530020703934  11.0190476190476 2.68182194616977  11.0190476190476 2.43312629399586  Z M 11.0190476190476 4.50020703933748  C 11.0190476190476 4.25151138716356  10.8213392857143 4.048033126294  10.5796957671958 4.08571428571429  L 2.42030423280423 4.08571428571429  C 2.17866071428571 4.048033126294  1.98095238095237 4.25151138716356  1.98095238095237 4.50020703933748  C 1.98095238095237 4.74890269151139  2.17866071428571 4.95238095238096  2.42030423280423 4.95238095238096  L 10.5796957671958 4.95238095238096  C 10.8213392857143 4.95238095238096  11.0190476190476 4.74890269151139  11.0190476190476 4.50020703933748  Z " fill-rule="nonzero" fill="#ffffff" stroke="none" fill-opacity="0.698039215686274" transform="matrix(1 0 0 1 28 20 )" />
  </g>
</svg>