<?xml version="1.0" encoding="utf-8"?>
<svg version="1.1" xmlns:xlink="http://www.w3.org/1999/xlink" width="13px" height="11px" xmlns="http://www.w3.org/2000/svg">
  <g transform="matrix(1 0 0 1 -28 -21 )">
    <path d="M 0.5 9.25  L 7.853125 9.25  C 8.046875 8.809375  8.4875 8.5  9 8.5  C 9.5125 8.5  9.953125 8.809375  10.146875 9.25  L 12.5 9.25  C 12.775 9.25  13 9.47499999999999  13 9.75  C 13 10.025  12.775 10.25  12.5 10.25  L 10.146875 10.25  C 9.953125 10.690625  9.5125 11  9 11  C 8.4875 11  8.046875 10.690625  7.853125 10.25  L 0.5 10.25  C 0.225000000000001 10.25  0 10.025  0 9.75  C 0 9.47499999999999  0.225000000000001 9.25  0.5 9.25  Z M 0.5 5  L 2.853125 5  C 3.046875 4.559375  3.4875 4.25  4 4.25  C 4.5125 4.25  4.953125 4.559375  5.146875 5  L 12.5 5  C 12.775 5  13 5.22499999999999  13 5.5  C 13 5.775  12.775 6  12.5 6  L 5.146875 6  C 4.953125 6.440625  4.5125 6.75  4 6.75  C 3.4875 6.75  3.046875 6.440625  2.853125 6  L 0.5 6  C 0.225000000000001 6  0 5.775  0 5.5  C 0 5.22499999999999  0.225000000000001 5  0.5 5  Z M 0.5 0.75  L 7.853125 0.75  C 8.046875 0.309375000000003  8.4875 0  9 0  C 9.5125 0  9.953125 0.309375000000003  10.146875 0.75  L 12.5 0.75  C 12.775 0.75  13 0.974999999999994  13 1.25  C 13 1.52500000000001  12.775 1.75  12.5 1.75  L 10.146875 1.75  C 9.953125 2.190625  9.5125 2.5  9 2.5  C 8.4875 2.5  8.046875 2.190625  7.853125 1.75  L 0.5 1.75  C 0.225000000000001 1.75  0 1.52500000000001  0 1.25  C 0 0.974999999999994  0.225000000000001 0.75  0.5 0.75  Z " fill-rule="nonzero" fill="#ffffff" stroke="none" transform="matrix(1 0 0 1 28 21 )" />
  </g>
</svg>