<?xml version="1.0" encoding="utf-8"?>
<svg version="1.1" xmlns:xlink="http://www.w3.org/1999/xlink" width="13px" height="12px" xmlns="http://www.w3.org/2000/svg">
  <g transform="matrix(1 0 0 1 -28 -20 )">
    <path d="M 12.8849557522124 2.86172566371681  C 12.9022123893805 2.50221238938053  12.6174778761062 2.20884955752213  12.2407079646018 2.19159292035398  L 9.8679203539823 2.07654867256637  L 9.72986725663716 0.529203539823001  C 9.70110619469027 0.204203539823013  9.41061946902654 -0.0230088495575274  9.0712389380531 0.00287610619469092  L 0.560840707964601 0.701769911504428  C 0.221460176991144 0.730530973451323  -0.0230088495575274 1.0037610619469  0.00287610619469092 1.32588495575222  L 0.612610619469024 8.10774336283185  C 0.641371681415933 8.43274336283186  0.934734513274336 8.65995575221238  1.2712389380531 8.63407079646018  L 1.70265486725664 8.59955752212389  L 1.63362831858407 9.91681415929203  C 1.61637168141593 10.279203539823  1.89823008849558 10.5725663716814  2.2778761061947 10.5926991150442  L 11.7719026548673 11.0442477876106  C 12.1515486725664 11.0615044247788  12.4650442477876 10.7969026548673  12.4851769911504 10.4345132743363  L 12.8849557522124 2.86172566371681  Z M 2.74380530973451 1.73141592920354  C 2.3641592920354 1.71991150442477  2.05066371681416 1.98451327433628  2.03340707964603 2.34402654867256  L 1.82920353982301 6.22101769911504  L 1.32588495575222 6.93141592920354  L 0.862831858407077 1.81194690265487  L 0.862831858407077 1.78318584070796  C 0.891592920353986 1.63938053097345  0.989380530973449 1.52433628318585  1.13893805309735 1.51283185840708  L 8.64557522123894 0.897345132743368  C 8.79513274336283 0.885840707964604  8.92455752212389 0.983628318584067  8.94756637168142 1.12455752212389  C 8.94756637168142 1.13030973451328  8.95619469026549 1.13030973451328  8.95619469026549 1.13606194690266  C 8.95619469026549 1.13893805309735  8.96482300884956 1.14181415929204  8.96482300884956 1.14756637168142  L 9.04247787610619 2.03340707964601  L 2.74380530973451 1.73141592920354  Z M 11.9300884955752 3.43119469026549  L 11.6396017699115 9.1575221238938  L 9.20066371681416 6.29579646017699  L 8.125 7.28230088495575  L 6.13473451327434 4.95840707964601  L 2.60575221238938 8.71747787610619  L 2.90486725663717 2.99115044247787  L 2.90486725663717 2.97964601769911  C 2.93362831858407 2.82433628318584  3.08318584070797 2.71216814159291  3.24712389380531 2.72079646017698  L 11.6223451327434 3.12345132743363  C 11.7891592920354 3.1320796460177  11.9185840707965 3.25862831858407  11.9214601769911 3.41681415929203  C 11.9214601769911 3.42256637168141  11.9300884955752 3.4254424778761  11.9300884955752 3.43119469026549  Z M 9.20353982300885 4.60176991150442  C 9.20353982300885 5.1108407079646  9.61482300884956 5.5221238938053  10.1238938053097 5.5221238938053  C 10.6300884955752 5.5221238938053  11.0442477876106 5.10796460176991  11.0442477876106 4.60176991150442  C 11.0442477876106 4.09557522123893  10.6329646017699 3.68141592920354  10.1238938053097 3.68141592920354  C 9.61769911504425 3.68141592920354  9.20353982300885 4.09269911504424  9.20353982300885 4.60176991150442  Z " fill-rule="nonzero" fill="#ffffff" stroke="none" fill-opacity="0.698039215686274" transform="matrix(1 0 0 1 28 20 )" />
  </g>
</svg>