<?xml version="1.0" encoding="utf-8"?>
<svg version="1.1" xmlns:xlink="http://www.w3.org/1999/xlink" width="12px" height="12px" viewBox="123 326.5  12 12" xmlns="http://www.w3.org/2000/svg">
  <path d="M 129 326.5  C 132.36 326.5  135 329.14  135 332.5  C 135 335.86  132.36 338.5  129 338.5  C 125.64 338.5  123 335.86  123 332.5  C 123 329.14  125.64 326.5  129 326.5  Z " fill-rule="nonzero" fill="#f0f0f0" stroke="none" />
  <path d="M 129 327  C 132.08 327  134.5 329.42  134.5 332.5  C 134.5 335.58  132.08 338  129 338  C 125.92 338  123.5 335.58  123.5 332.5  C 123.5 329.42  125.92 327  129 327  Z " stroke-width="1" stroke="#797979" fill="none" />
  <path d="M 129 335.5  C 127.32 335.5  126 334.18  126 332.5  C 126 330.82  127.32 329.5  129 329.5  C 130.68 329.5  132 330.82  132 332.5  C 132 334.18  130.68 335.5  129 335.5  " fill-rule="nonzero" fill="#797979" stroke="none" />
</svg>