<?xml version="1.0" encoding="utf-8"?>
<svg version="1.1" xmlns:xlink="http://www.w3.org/1999/xlink" width="12px" height="12px" viewBox="198 289  12 12" xmlns="http://www.w3.org/2000/svg">
  <path d="M 204 289  C 207.36 289  210 291.64  210 295  C 210 298.36  207.36 301  204 301  C 200.64 301  198 298.36  198 295  C 198 291.64  200.64 289  204 289  Z " fill-rule="nonzero" fill="#f0f0f0" stroke="none" />
  <path d="M 204 289.5  C 207.08 289.5  209.5 291.92  209.5 295  C 209.5 298.08  207.08 300.5  204 300.5  C 200.92 300.5  198.5 298.08  198.5 295  C 198.5 291.92  200.92 289.5  204 289.5  Z " stroke-width="1" stroke="#797979" fill="none" />
  <path d="M 204 298  C 202.32 298  201 296.68  201 295  C 201 293.32  202.32 292  204 292  C 205.68 292  207 293.32  207 295  C 207 296.68  205.68 298  204 298  " fill-rule="nonzero" fill="#797979" stroke="none" />
</svg>