<?xml version="1.0" encoding="utf-8"?>
<svg version="1.1" xmlns:xlink="http://www.w3.org/1999/xlink" width="12px" height="12px" viewBox="386 289  12 12" xmlns="http://www.w3.org/2000/svg">
  <path d="M 392 289  C 395.36 289  398 291.64  398 295  C 398 298.36  395.36 301  392 301  C 388.64 301  386 298.36  386 295  C 386 291.64  388.64 289  392 289  Z " fill-rule="nonzero" fill="#f0f0f0" stroke="none" />
  <path d="M 392 289.5  C 395.08 289.5  397.5 291.92  397.5 295  C 397.5 298.08  395.08 300.5  392 300.5  C 388.92 300.5  386.5 298.08  386.5 295  C 386.5 291.92  388.92 289.5  392 289.5  Z " stroke-width="1" stroke="#797979" fill="none" />
  <path d="M 392 298  C 390.32 298  389 296.68  389 295  C 389 293.32  390.32 292  392 292  C 393.68 292  395 293.32  395 295  C 395 296.68  393.68 298  392 298  " fill-rule="nonzero" fill="#797979" stroke="none" />
</svg>