<?xml version="1.0" encoding="utf-8"?>
<svg version="1.1" xmlns:xlink="http://www.w3.org/1999/xlink" width="24px" height="24px" xmlns="http://www.w3.org/2000/svg">
  <g transform="matrix(1 0 0 1 -855 -189 )">
    <path d="M 23.35 20.525  L 14.825 12  L 23.35 3.47500000000002  C 24.125 2.70000000000005  24.125 1.42499999999995  23.35 0.649999999999977  C 22.575 -0.125  21.3 -0.125  20.525 0.649999999999977  L 12 9.17499999999995  L 3.47500000000002 0.649999999999977  C 2.70000000000005 -0.125  1.42499999999995 -0.125  0.649999999999977 0.649999999999977  C 0.262500000000045 1.03750000000002  0.0625 1.54999999999995  0.0625 2.0625  C 0.0625 2.57500000000005  0.262500000000045 3.08749999999998  0.649999999999977 3.47500000000002  L 9.17499999999995 12  L 0.649999999999977 20.525  C 0.262500000000045 20.9125  0.0625 21.425  0.0625 21.9375  C 0.0625 22.45  0.262500000000045 22.9625  0.649999999999977 23.35  C 1.42499999999995 24.125  2.70000000000005 24.125  3.47500000000002 23.35  L 12 14.825  L 20.525 23.35  C 21.3 24.125  22.575 24.125  23.35 23.35  C 24.125 22.575  24.125 21.3  23.35 20.525  Z " fill-rule="nonzero" fill="#5c6b77" stroke="none" transform="matrix(1 0 0 1 855 189 )" />
  </g>
</svg>