<?xml version="1.0" encoding="utf-8"?>
<svg version="1.1" xmlns:xlink="http://www.w3.org/1999/xlink" width="11px" height="10px" xmlns="http://www.w3.org/2000/svg">
  <g>
    <path d="M 11 1.85439560439556  C 11 1.28777472527474  10.5240384615385 0.824175824175825  9.94230769230771 0.824175824175825  L 8.88461538461542 0.824175824175825  L 8.88461538461542 1.44230769230768  C 8.88461538461542 1.55563186813191  8.78942307692307 1.64835164835159  8.67307692307693 1.64835164835159  L 8.25 1.64835164835159  C 8.13365384615383 1.64835164835159  8.03846153846152 1.55563186813191  8.03846153846152 1.44230769230768  L 8.03846153846152 0.824175824175825  L 2.96153846153848 0.824175824175825  L 2.96153846153848 1.44230769230768  C 2.96153846153848 1.55563186813191  2.86634615384617 1.64835164835159  2.75 1.64835164835159  L 2.32692307692307 1.64835164835159  C 2.21057692307693 1.64835164835159  2.11538461538458 1.55563186813191  2.11538461538458 1.44230769230768  L 2.11538461538458 0.824175824175825  L 1.05769230769229 0.824175824175825  C 0.475961538461519 0.824175824175825  0 1.28777472527474  0 1.85439560439556  L 0 8.85989010989005  C 0 9.42651098901098  0.475961538461519 9.89010989010984  1.05769230769229 9.89010989010984  L 9.94230769230771 9.89010989010984  C 10.5240384615385 9.89010989010984  11 9.42651098901098  11 8.85989010989005  L 11 1.85439560439556  Z M 10.1538461538462 3.9148351648351  L 10.1538461538462 8.55082417582418  C 10.1538461538462 8.83413461538458  9.91586538461542 9.06593406593402  9.625 9.06593406593402  L 1.375 9.06593406593402  C 1.08413461538458 9.06593406593402  0.84615384615384 8.83413461538458  0.84615384615384 8.55082417582418  L 0.84615384615384 3.9148351648351  C 0.84615384615384 3.80151098901098  0.941346153846183 3.70879120879118  1.05769230769229 3.70879120879118  L 9.94230769230771 3.70879120879118  C 10.0586538461538 3.70879120879118  10.1538461538462 3.80151098901098  10.1538461538462 3.9148351648351  Z M 2.96153846153848 0.824175824175825  L 2.96153846153848 0.20604395604397  C 2.96153846153848 0.0927197802197952  2.86634615384617 0  2.75 0  L 2.32692307692307 0  C 2.21057692307693 0  2.11538461538458 0.0927197802197952  2.11538461538458 0.20604395604397  L 2.11538461538458 0.824175824175825  L 2.96153846153848 0.824175824175825  Z M 8.88461538461542 0.824175824175825  L 8.88461538461542 0.20604395604397  C 8.88461538461542 0.0927197802197952  8.78942307692307 0  8.67307692307693 0  L 8.25 0  C 8.13365384615383 0  8.03846153846152 0.0927197802197952  8.03846153846152 0.20604395604397  L 8.03846153846152 0.824175824175825  L 8.88461538461542 0.824175824175825  Z " fill-rule="nonzero" fill="#808695" stroke="none" />
  </g>
</svg>