<?xml version="1.0" encoding="utf-8"?>
<svg version="1.1" xmlns:xlink="http://www.w3.org/1999/xlink" width="10px" height="10px" xmlns="http://www.w3.org/2000/svg">
  <g transform="matrix(1 0 0 1 -657 -20 )">
    <path d="M 4.51019284179688 5  L 0.101622568359403 9.40857032226563  C -0.0329593750000186 9.54315226562494  -0.0333276464843948 9.76281459960933  0.101928945312466 9.89807108398418  C 0.238128466796866 10.0342705664061  0.456342441406264 10.0334647460936  0.591429726562524 9.89837743164071  L 5 5.48980710937508  L 9.40857027343748 9.89837743164071  C 9.5431522167969 10.032959375  9.7628146289062 10.0333275878907  9.89807105468753 9.89807108398418  C 10.0342705664063 9.76187160156246  10.0334647070313 9.54365763671876  9.89837743164071 9.40857032226563  L 5.48980715820312 5  L 9.89837743164071 0.591429677734368  C 10.032959375 0.45684773437506  10.0333276464844 0.237185410156144  9.89807105468753 0.101928906250123  C 9.76187153320313 -0.0342705761718207  9.54365755859374 -0.0334647460936139  9.40857027343748 0.101622568359289  L 5 4.51019289062492  L 0.591429726562524 0.101622568359289  C 0.456847783203102 -0.0329593750000186  0.237185371093688 -0.0333275878906534  0.101928945312466 0.101928906250123  C -0.034270566406235 0.238128388672067  -0.0334647070312712 0.456342363281237  0.101622568359403 0.591429677734368  L 4.51019284179688 5  Z " fill-rule="nonzero" fill="#515a6e" stroke="none" transform="matrix(1 0 0 1 657 20 )" />
  </g>
</svg>