<?xml version="1.0" encoding="utf-8"?>
<svg version="1.1" xmlns:xlink="http://www.w3.org/1999/xlink" width="310px" height="120px" xmlns="http://www.w3.org/2000/svg">
  <defs>
    <filter x="-5px" y="-5px" width="310px" height="120px" filterUnits="userSpaceOnUse" id="filter336">
      <feOffset dx="0" dy="0" in="SourceAlpha" result="shadowOffsetInner" />
      <feGaussianBlur stdDeviation="2.5" in="shadowOffsetInner" result="shadowGaussian" />
      <feComposite in2="shadowGaussian" operator="atop" in="SourceAlpha" result="shadowComposite" />
      <feColorMatrix type="matrix" values="0 0 0 0 0.501960784313725  0 0 0 0 0.525490196078431  0 0 0 0 0.584313725490196  0 0 0 0.349019607843137 0  " in="shadowComposite" />
    </filter>
    <g id="widget337">
      <path d="M 1 2  A 1 1 0 0 1 2 1 L 298 1  A 1 1 0 0 1 299 2 L 299 108  A 1 1 0 0 1 298 109 L 2 109  A 1 1 0 0 1 1 108 L 1 2  Z " fill-rule="nonzero" fill="#ffffff" stroke="none" />
      <path d="M 0.5 2  A 1.5 1.5 0 0 1 2 0.5 L 298 0.5  A 1.5 1.5 0 0 1 299.5 2 L 299.5 108  A 1.5 1.5 0 0 1 298 109.5 L 2 109.5  A 1.5 1.5 0 0 1 0.5 108 L 0.5 2  Z " stroke-width="1" stroke="#e8eaec" fill="none" stroke-opacity="0.8" />
    </g>
  </defs>
  <g transform="matrix(1 0 0 1 5 5 )">
    <use xlink:href="#widget337" filter="url(#filter336)" />
    <use xlink:href="#widget337" />
  </g>
</svg>