<?xml version="1.0" encoding="utf-8"?>
<svg version="1.1" xmlns:xlink="http://www.w3.org/1999/xlink" width="14px" height="18px" xmlns="http://www.w3.org/2000/svg">
  <g transform="matrix(1 0 0 1 -1727 -21 )">
    <path d="M 13.7454545454545 14.8909090909091  C 13.7454545454545 14.5288636363636  13.4529545454545 14.2363636363636  13.090909090909 14.2363636363636  L 12.5999999999999 14.2363636363636  L 12.5999999999999 7.28181818181818  C 12.5999999999999 4.39568181818183  10.4665909090909 2.01068181818181  7.69090909090914 1.61386363636365  L 7.69090909090914 0.818181818181813  C 7.69090909090914 0.366136363636372  7.32477272727283 0  6.87272727272739 0  C 6.42068181818172 0  6.0545454545454 0.366136363636372  6.0545454545454 0.818181818181813  L 6.0545454545454 1.61386363636365  C 3.27886363636367 2.01068181818181  1.14545454545464 4.39568181818183  1.14545454545464 7.28181818181818  L 1.14545454545464 14.2363636363636  L 0.654545454545541 14.2363636363636  C 0.292500000000018 14.2363636363636  0 14.5288636363636  0 14.8909090909091  L 0 15.5454545454545  C 0 15.6354545454545  0.0736363636362967 15.7090909090909  0.163636363636442 15.7090909090909  L 4.58181818181811 15.7090909090909  C 4.58181818181811 16.9731818181818  5.60863636363638 18  6.87272727272739 18  C 8.13681818181817 18  9.16363636363644 16.9731818181818  9.16363636363644 15.7090909090909  L 13.5818181818181 15.7090909090909  C 13.6718181818183 15.7090909090909  13.7454545454545 15.6354545454545  13.7454545454545 15.5454545454545  L 13.7454545454545 14.8909090909091  Z M 7.85454545454536 15.7090909090909  C 7.85454545454536 16.2511363636364  7.41477272727275 16.6909090909091  6.87272727272739 16.6909090909091  C 6.3306818181818 16.6909090909091  5.89090909090919 16.2511363636364  5.89090909090919 15.7090909090909  L 7.85454545454536 15.7090909090909  Z M 11.1272727272728 14.2363636363636  L 2.61818181818171 14.2363636363636  L 2.61818181818171 7.28181818181818  C 2.61818181818171 6.14454545454547  3.05999999999995 5.07681818181817  3.8638636363637 4.27295454545455  C 4.66772727272723 3.46909090909091  5.73545454545456 3.02727272727273  6.87272727272739 3.02727272727273  C 8.00999999999999 3.02727272727273  9.07772727272732 3.46909090909091  9.88159090909085 4.27295454545455  C 10.6854545454546 5.07681818181817  11.1272727272728 6.14454545454547  11.1272727272728 7.28181818181818  L 11.1272727272728 14.2363636363636  Z " fill-rule="nonzero" fill="#515a6e" stroke="none" transform="matrix(1 0 0 1 1727 21 )" />
  </g>
</svg>