<?xml version="1.0" encoding="utf-8"?>
<svg version="1.1" xmlns:xlink="http://www.w3.org/1999/xlink" width="17px" height="17px" xmlns="http://www.w3.org/2000/svg">
  <g transform="matrix(1 0 0 1 -1682 -22 )">
    <path d="M 0 8.5  C 0 13.1954326923077  3.80456730769242 17  8.5 17  C 13.1954326923076 17  17 13.1954326923077  17 8.5  C 17 3.80456730769231  13.1954326923076 0  8.5 0  C 3.80456730769242 0  0 3.80456730769231  0 8.5  Z M 3.29783653846175 13.7021634615385  C 1.90841346153843 12.3127403846154  1.14423076923072 10.465625  1.14423076923072 8.5  C 1.14423076923072 6.534375  1.90841346153843 4.68725961538461  3.29783653846175 3.29783653846154  C 4.68725961538462 1.90841346153846  6.53437499999995 1.14423076923077  8.5 1.14423076923077  C 10.465625 1.14423076923077  12.3127403846154 1.90841346153846  13.7021634615382 3.29783653846154  C 15.0915865384616 4.68725961538461  15.8557692307693 6.534375  15.8557692307693 8.5  C 15.8557692307693 10.465625  15.0915865384616 12.3127403846154  13.7021634615382 13.7021634615385  C 12.3127403846154 15.0915865384615  10.465625 15.8557692307692  8.5 15.8557692307692  C 6.53437499999995 15.8557692307692  4.68725961538462 15.0915865384615  3.29783653846175 13.7021634615385  Z M 5.82857142857142 6.80177083333333  L 7.31037946428569 6.80177083333333  C 7.34377232142856 6.19024305555555  7.79874999999993 5.7853125  8.42904017857154 5.7853125  C 9.05098214285704 5.7853125  9.55187499999988 6.16131944444444  9.55187499999988 6.67368055555555  C 9.55187499999988 7.18604166666666  9.25551339285721 7.4504861111111  8.55008928571419 7.8678125  C 7.79457589285721 8.30579861111111  7.49404017857137 8.8346875  7.56500000000005 9.68586805555555  L 7.57752232142866 10.0412152777778  L 9.02593750000005 10.0412152777778  L 9.02593750000005 9.71479166666666  C 9.02593750000005 9.18590277777778  9.27220982142853 8.88013888888889  9.99850446428582 8.4628125  C 10.7707142857143 8.01243055555555  11.1714285714286 7.44635416666667  11.1714285714286 6.62822916666666  C 11.1714285714286 5.39277777777778  10.0945089285715 4.53333333333333  8.52921874999993 4.53333333333333  C 6.85122767857138 4.53333333333333  5.85779017857135 5.47128472222222  5.82857142857142 6.80177083333333  Z M 8.32468749999998 12.4666666666667  C 8.82140624999988 12.4666666666667  9.22212053571434 12.0947916666667  9.22212053571434 11.6154861111111  C 9.22212053571434 11.1361805555555  8.82140624999988 10.7643055555556  8.32468749999998 10.7643055555556  C 7.83214285714303 10.7643055555556  7.43142857142857 11.1403125  7.43142857142857 11.6154861111111  C 7.43142857142857 12.0947916666667  7.82796875000008 12.4666666666667  8.32468749999998 12.4666666666667  Z " fill-rule="nonzero" fill="#515a6e" stroke="none" transform="matrix(1 0 0 1 1682 22 )" />
  </g>
</svg>