<?xml version="1.0" encoding="utf-8"?>
<svg version="1.1" xmlns:xlink="http://www.w3.org/1999/xlink" width="18px" height="18px" xmlns="http://www.w3.org/2000/svg">
  <g transform="matrix(1 0 0 1 -1862 -21 )">
    <path d="M 7.7297727272728 16.9527272727273  C 8.15318181818179 17.1225  8.49272727272728 17.1225  8.91613636363627 17.1225  C 9.59522727272724 17.1225  10.2743181818182 17.0386363636364  10.9534090909092 16.8688636363636  C 10.8695454545455 16.6990909090909  10.6997727272728 16.6152272727273  10.4440909090908 16.6990909090909  C 10.6977272727272 15.5106818181818  10.8675000000001 14.9175  11.3768181818182 14.4081818181818  C 11.7163636363637 14.1545454545455  11.8861363636363 13.7290909090909  11.6304545454545 13.3895454545455  C 11.4606818181819 13.1359090909091  11.1211363636364 12.9661363636364  10.8675000000001 13.05  C 10.3581818181817 13.1338636363636  10.6977272727272 12.4568181818182  10.2743181818182 12.3709090909091  C 9.850909090909 12.2870454545455  9.25568181818176 11.4381818181818  8.66249999999991 11.1825  C 8.32295454545465 11.0127272727273  7.98340909090916 10.5893181818182  7.47409090909082 10.5893181818182  C 7.05068181818183 10.5893181818182  6.37159090909086 11.0127272727273  6.37159090909086 10.6731818181818  C 6.37159090909086 9.65454545454546  6.28772727272735 8.97545454545455  6.28772727272735 8.6359090909091  C 6.28772727272735 8.38227272727273  6.1179545454545 8.55204545454546  6.79704545454547 8.55204545454546  C 7.13659090909096 8.55204545454546  6.9668181818181 7.87295454545455  7.30636363636359 7.87295454545455  C 7.64590909090907 7.87295454545455  8.40886363636355 8.2125  8.57863636363641 8.04272727272728  C 8.74840909090904 7.95886363636364  9.93681818181813 11.0986363636364  9.93681818181813 8.55204545454546  C 9.93681818181813 8.2125  9.7670454545455 7.70318181818182  9.93681818181813 7.44954545454546  C 10.3602272727273 6.77045454545455  10.7856818181817 6.0075  11.1252272727272 5.2425  C 10.7856818181817 5.15863636363636  10.3622727272727 5.15863636363636  10.0227272727273 5.2425  C 9.85295454545462 5.32636363636364  10.106590909091 5.58204545454546  9.85295454545462 5.58204545454546  C 9.00409090909102 5.75181818181819  8.24113636363631 5.32840909090909  8.49477272727268 4.90295454545455  C 8.74840909090904 4.47954545454546  9.7670454545455 4.73318181818182  9.85295454545462 3.88431818181818  C 9.93681818181813 3.375  9.93681818181813 2.86568181818182  9.93681818181813 2.44227272727273  C 11.0393181818181 2.61204545454546  10.9554545454546 1.17  9.51340909090914 0.83045454545455  L 9.08999999999992 0.83045454545455  C 5.18522727272716 0.83045454545455  1.87568181818187 3.54681818181818  1.11068181818177 7.36568181818182  C 1.45022727272726 7.70522727272728  2.04340909090911 7.70522727272728  2.29909090909086 7.28181818181818  C 2.21522727272736 7.19795454545454  2.21522727272736 7.19795454545454  2.29909090909086 7.11204545454545  C 2.63863636363635 7.36568181818182  3.14795454545447 7.36568181818182  3.14795454545447 7.79113636363636  C 3.14795454545447 9.23318181818182  3.2318181818182 10.7611363636364  4.50613636363641 10.7611363636364  C 5.01545454545453 10.9309090909091  5.35500000000002 11.3543181818182  5.52477272727265 11.8636363636364  C 5.60863636363638 12.2031818181818  6.1179545454545 11.8636363636364  6.54340909090911 11.8636363636364  C 6.79704545454547 11.8636363636364  6.54340909090911 12.2870454545455  6.54340909090911 13.1359090909091  C 6.54340909090911 13.9847727272727  8.49477272727268 15.4268181818182  8.49477272727268 15.4268181818182  C 8.49477272727268 15.9361363636364  8.49477272727268 16.3595454545455  8.57863636363641 16.8688636363636  C 8.32500000000005 16.8688636363636  7.98545454545456 16.8688636363636  7.7297727272728 16.9527272727273  Z M 16.9813636363635 7.61727272727273  C 16.8954545454546 7.27568181818182  16.7256818181818 6.76636363636364  16.5559090909092 6.25704545454546  C 16.5559090909092 6.25704545454546  16.4720454545454 6.25704545454546  16.4720454545454 6.17318181818182  C 15.9627272727273 4.815  14.6904545454545 5.83363636363637  15.1138636363637 6.93613636363636  C 12.7370454545455 8.71772727272727  13.4161363636363 9.99204545454545  14.1811363636364 10.6711363636364  C 14.6045454545454 11.0945454545455  14.9440909090908 11.52  15.1997727272728 12.0293181818182  C 14.9461363636365 12.7084090909091  15.9627272727273 12.5386363636364  16.6418181818183 11.52  C 16.9813636363635 10.6711363636364  17.0652272727273 9.73840909090909  17.0652272727273 8.80363636363636  L 17.0652272727273 8.04068181818182  C 17.0652272727273 7.87090909090909  17.0652272727273 7.70113636363636  16.9813636363635 7.61727272727273  Z M 17.9140909090909 8.97340909090909  C 17.9140909090909 13.8968181818182  13.9254545454546 17.8875  9.0020454545454 17.8875  C 4.07863636363641 17.8875  0.0899999999999181 13.8988636363636  0.0899999999999181 8.97545454545455  C 0.0899999999999181 4.05204545454546  4.07863636363641 0.0613636363636374  9.0020454545454 0.0613636363636374  C 13.9254545454546 0.0613636363636374  17.9140909090909 4.05  17.9140909090909 8.97340909090909  Z M 17.0652272727273 8.97545454545455  C 17.0652272727273 4.56136363636364  13.4161363636363 0.910227272727269  9.0020454545454 0.910227272727269  C 4.58795454545452 0.910227272727269  0.938863636363749 4.55931818181818  0.938863636363749 8.97340909090909  C 0.938863636363749 13.3875  4.58795454545452 17.0386363636364  9.0020454545454 17.0386363636364  C 13.4161363636363 17.0386363636364  17.0652272727273 13.3895454545455  17.0652272727273 8.97545454545455  Z " fill-rule="nonzero" fill="#515a6e" stroke="none" transform="matrix(1 0 0 1 1862 21 )" />
  </g>
</svg>