<?xml version="1.0" encoding="utf-8"?>
<svg version="1.1" xmlns:xlink="http://www.w3.org/1999/xlink" width="16px" height="16px" xmlns="http://www.w3.org/2000/svg">
  <g transform="matrix(1 0 0 1 -1640 -22 )">
    <path d="M 6.27696153846159 14.2769615384615  C 6.27692307692314 13.3968076923077  5.55696153846156 12.6769230769231  4.676923076923 12.6769230769231  C 3.79684615384622 12.6769230769231  3.07692307692309 13.3968461538462  3.07692307692309 14.2769615384615  C 3.07692307692309 15.1570384615385  3.79684615384622 15.8769615384615  4.676923076923 15.8769615384615  C 5.55700000000002 15.8769615384615  6.27696153846159 15.1570384615385  6.27696153846159 14.2769615384615  Z M 2.59999999999991 0.123076923076923  L 0 0.123076923076923  L 0 1.72307692307692  L 1.59999999999991 1.72307692307692  L 4.48011538461537 7.557  L 3.27596153846162 9.51676923076923  C 3.1560384615384 9.71676923076923  3.07596153846157 9.99684615384615  3.07596153846157 10.2769615384615  C 3.07596153846157 11.3481153846154  3.80769230769238 11.8769615384615  4.79999999999995 11.8769615384615  L 14.1538461538462 11.8769615384615  L 14.1538461538462 10.3385  L 4.99588461538451 10.3385  C 4.87596153846152 10.3385  4.79588461538469 10.2584230769231  4.79588461538469 10.1385  C 4.79588461538469 10.0986538461538  4.88076923076915 9.9385  4.88076923076915 9.9385  L 5.68007692307697 8.67696153846154  L 11.6398461538461 8.67696153846154  C 12.2398846153847 8.67696153846154  12.7601538461538 8.35707692307692  13.0398461538462 7.83711538461539  L 15.9199230769232 2.88326923076923  C 15.9675 2.78861538461538  16 2.64303846153846  16 2.48330769230769  C 16 2.04307692307692  15.6398461538461 1.72311538461538  15.2 2  L 3.36015384615393 2  L 2.59999999999991 0.123076923076923  Z M 14.1538461538462 14.2769230769231  C 14.1538461538462 13.3968076923077  13.4338846153846 12.6769230769231  12.5538076923076 12.6769230769231  C 11.6737307692308 12.6769230769231  10.9538076923077 13.3968461538462  10.9538076923077 14.2769615384615  C 10.9538076923077 15.1570384615385  11.6737307692308 15.8769615384615  12.5538076923076 15.8769615384615  C 13.4338846153846 15.8769615384615  14.1538461538462 15.157  14.1538461538462 14.2769230769231  Z " fill-rule="nonzero" fill="#515a6e" stroke="none" transform="matrix(1 0 0 1 1640 22 )" />
  </g>
</svg>