<?xml version="1.0" encoding="utf-8"?>
<svg version="1.1" xmlns:xlink="http://www.w3.org/1999/xlink" width="13px" height="12px" xmlns="http://www.w3.org/2000/svg">
  <g transform="matrix(1 0 0 1 -1597 -24 )">
    <path d="M 7.5648936170212 7.62758620689655  L 7.53723404255311 7.65517241379311  C 7.43351063829778 7.75862068965517  7.29175531914893 7.81724137931033  7.14654255319147 7.81724137931033  L 5.71515957446809 7.81724137931033  C 5.41090425531911 7.81724137931033  5.16196808510631 7.56896551724137  5.16196808510631 7.26551724137931  L 5.16196808510631 5.83448275862068  C 5.16196808510631 5.68965517241378  5.22074468085111 5.54827586206898  5.32446808510645 5.44482758620688  L 5.35212765957453 5.41724137931035  L 10.4553191489363 0.327586206896541  C 10.5417553191489 0.241379310344826  10.4795212765957 0.0931034482758548  10.358510638298 0.0931034482758548  L 2.02952127659569 0.0931034482758548  C 0.909308510638311 0.0931034482758548  0 1  0 2.11724137931034  L 0 9.84137931034482  C 0 10.9586206896552  0.909308510638311 11.8655172413793  2.02952127659569 11.8655172413793  L 10.880585106383 11.8655172413793  C 12.0007978723404 11.8655172413793  12.9101063829787 10.9586206896552  12.9101063829787 9.84137931034482  L 12.9101063829787 2.63448275862069  C 12.9101063829787 2.51034482758621  12.7614361702128 2.45172413793102  12.675 2.53793103448277  L 7.5648936170212 7.62758620689655  Z " fill-rule="nonzero" fill="#515a6e" stroke="none" transform="matrix(1 0 0 1 1597 24 )" />
  </g>
</svg>