<?xml version="1.0" encoding="utf-8"?>
<svg version="1.1" xmlns:xlink="http://www.w3.org/1999/xlink" width="14px" height="14px" xmlns="http://www.w3.org/2000/svg">
  <g transform="matrix(1 0 0 1 -17 -13 )">
    <path d="M 13.7083333333333 14  C 13.8942708333333 14  14.0328125 13.8286458333333  13.9927083333333 13.6463541666667  C 13.7302083333333 12.4869791666667  12.2317708333333 11.921875  11.7140625 11.7395833333333  C 11.1453125 11.5390625  10.3359375 11.4916666666667  9.81458333333336 11.375  C 9.515625 11.309375  9.08177083333334 11.1453125  8.93593750000002 10.9703125  C 8.79010416666665 10.7953125  8.87760416666669 9.17291666666665  8.87760416666669 9.17291666666665  C 8.87760416666669 9.17291666666665  9.14739583333335 8.75364583333334  9.29322916666666 8.38177083333335  C 9.43906249999998 8.01354166666667  9.59947916666664 7  9.59947916666664 7  C 9.59947916666664 7  9.8984375 7  10.0041666666667 6.47499999999999  C 10.1171875 5.90260416666666  10.2958333333333 5.68020833333333  10.2739583333333 5.25364583333334  C 10.2520833333333 4.83437499999999  10.0223958333333 4.84531250000001  10.0223958333333 4.84531250000001  C 10.0223958333333 4.84531250000001  10.2447916666667 4.23645833333333  10.2703125 2.97499999999999  C 10.303125 1.4765625  9.12916666666666 0  7.00364583333334 0  C 4.84895833333331 0  3.70052083333331 1.4765625  3.73333333333335 2.97499999999999  C 3.76249999999999 4.23645833333333  3.97760416666665 4.84531250000001  3.97760416666665 4.84531250000001  C 3.97760416666665 4.84531250000001  3.74791666666664 4.83437499999999  3.72604166666667 5.25364583333334  C 3.70416666666665 5.68020833333333  3.8828125 5.90260416666666  3.99583333333334 6.47499999999999  C 4.09791666666666 7  4.4005208333333 7  4.4005208333333 7  C 4.4005208333333 7  4.56093750000002 8.01354166666667  4.70677083333334 8.38177083333335  C 4.85260416666665 8.75364583333334  5.12239583333331 9.17291666666665  5.12239583333331 9.17291666666665  C 5.12239583333331 9.17291666666665  5.20989583333335 10.7953125  5.06406249999998 10.9703125  C 4.91822916666666 11.1453125  4.484375 11.309375  4.18541666666664 11.375  C 3.6640625 11.4916666666667  2.85468750000001 11.5390625  2.28593749999999 11.7395833333333  C 1.76822916666669 11.921875  0.269791666666663 12.4869791666667  0.00729166666667425 13.6463541666667  C -0.0328124999999773 13.8286458333333  0.105729166666663 14  0.295312500000023 14  L 13.7083333333333 14  Z " fill-rule="nonzero" fill="#515a6e" stroke="none" transform="matrix(1 0 0 1 17 13 )" />
  </g>
</svg>