<?xml version="1.0" encoding="utf-8"?>
<svg version="1.1" xmlns:xlink="http://www.w3.org/1999/xlink" width="17px" height="10px" xmlns="http://www.w3.org/2000/svg">
  <g transform="matrix(1 0 0 1 -113 -371 )">
    <path d="M 8.01372866491261 9.96875  C 8.32743034473469 9.96875  8.59407677258309 9.734375  8.69864399919038 9.63541666666663  L 16.5986979693719 1.5  C 16.6875801119884 1.41145833333337  16.6875801119884 1.26041666666674  16.5986979693719 1.16666666666663  L 15.5634824259596 0.0729166666666288  C 15.5216555353168 0.0260416666666288  15.4589151993523 0  15.3961748633881 0  C 15.3334345274236 0  15.2706941914594 0.0260416666666288  15.2288673008163 0.0729166666666288  L 8.0241853875732 7.50520833333337  L 5.40477636106039 4.81770833333337  C 5.35772110908715 4.77083333333337  5.3002091344531 4.74479166666674  5.23746879848886 4.74479166666674  C 5.17472846252463 4.74479166666674  5.11721648789057 4.77083333333337  5.07016123591711 4.81770833333337  L 4.01926060851383 5.89583333333337  C 3.92515010456736 5.98958333333337  3.92515010456736 6.14583333333337  4.01926060851383 6.23958333333337  L 7.32358496930442 9.625  C 7.53271942251899 9.84375  7.79413748903744 9.96875  8.01372866491261 9.96875  Z M 4.07064471879289 10  C 4.38470146559825 10  4.65164970038268 9.76506881822502  4.75633528265098 9.66587565258669  L 5.46296296296305 8.94019933554819  L 1.45873944119558 4.83673469387759  C 1.41163092917463 4.78974845752259  1.35405385892727 4.76364499288093  1.29124250956625 4.76364499288093  C 1.22843116020499 4.76364499288093  1.1708540899574 4.78974845752259  1.12374557793669 4.83673469387759  L 0.0716554761388579 5.91741813004273  C -0.0225615479025691 6.01139060275273  -0.0225615479025691 6.16801139060271  0.0716554761388579 6.26198386331271  L 3.37971987582114 9.65543426672991  C 3.5890910403582 9.87470336972001  3.85080499602918 10  4.07064471879289 10  Z M 10.2261569561765 1.16658756525874  L 6.74536134575123 4.77408637873759  L 8.12721103169451 6.18889416231605  L 11.5975380838929 2.60227812055052  C 11.6865208288211 2.50830564784053  11.6917551079346 2.35690555291876  11.5975380838929 2.26293308020877  L 10.5611508194354 1.16658756525874  C 10.5192765865281 1.11960132890363  10.4564652371671 1.09349786426196  10.3936538878061 1.09349786426196  C 10.330842538445 1.09349786426196  10.268031189084 1.11960132890363  10.2261569561765 1.16658756525874  Z " fill-rule="nonzero" fill="#5cadff" stroke="none" transform="matrix(1 0 0 1 113 371 )" />
  </g>
</svg>