<?xml version="1.0" encoding="utf-8"?>
<svg version="1.1" xmlns:xlink="http://www.w3.org/1999/xlink" width="14px" height="14px" xmlns="http://www.w3.org/2000/svg">
  <g transform="matrix(1 0 0 1 -137 -99 )">
    <path d="M 2.71586538461555 2.71586538461537  C 3.86009615384622 1.57163461538465  5.38125 0.942307692307793  7 0.942307692307793  C 8.61875 0.942307692307793  10.1399038461538 1.57163461538465  11.2841346153845 2.71586538461537  C 12.4283653846156 3.8600961538462  13.0576923076924 5.38124999999997  13.0576923076924 7  C 13.0576923076924 8.61875000000003  12.4283653846156 10.1399038461538  11.2841346153845 11.2841346153846  C 10.1399038461538 12.4283653846153  8.61875 13.0576923076922  7 13.0576923076922  C 5.38125 13.0576923076922  3.86009615384622 12.4283653846153  2.71586538461555 11.2841346153846  C 1.57163461538445 10.1399038461538  0.942307692307566 8.61875000000003  0.942307692307566 7  C 0.942307692307566 5.38124999999997  1.57163461538445 3.8600961538462  2.71586538461555 2.71586538461537  Z M 14 7  C 14 3.13317307692313  10.8668269230769 0  7 0  C 3.13317307692311 0  0 3.13317307692313  0 7  C 0 10.8668269230769  3.13317307692311 14  7 14  C 10.8668269230769 14  14 10.8668269230769  14 7  Z " fill-rule="nonzero" fill="#dcdee2" stroke="none" transform="matrix(1 0 0 1 137 99 )" />
  </g>
</svg>