<?xml version="1.0" encoding="utf-8"?>
<svg version="1.1" xmlns:xlink="http://www.w3.org/1999/xlink" width="17px" height="13px" xmlns="http://www.w3.org/2000/svg">
  <g transform="matrix(1 0 0 1 -233 -257 )">
    <path d="M 15.6497395833333 13  C 16.42890625 13  17 12.2868055555555  17 11.496875  L 17 3.55243055555547  C 17 2.76250000000005  16.42890625 2.16666666666674  15.6497395833333 2.16666666666674  L 13.2369791666667 2.16666666666674  C 13.0333333333333 2.16666666666674  12.84296875 2.07638888888891  12.7057291666667 1.92291666666665  C 11.4484375 0.487499999999955  10.9747395833333 0  10.4611979166667 0  L 6.67604166666669 0  C 6.15807291666667 0  5.64895833333333 0.487499999999955  4.38723958333333 1.92743055555547  C 4.25442708333333 2.08090277777774  4.05963541666665 2.16666666666674  3.86041666666665 2.16666666666674  L 3.67890624999998 2.16666666666674  L 3.67890624999998 1.80555555555543  C 3.67890624999998 1.60694444444448  3.51953125 1.44444444444457  3.32473958333333 1.44444444444457  L 2.17369791666667 1.44444444444457  C 1.97890624999999 1.44444444444457  1.81953124999998 1.60694444444448  1.81953124999998 1.80555555555543  L 1.81953124999998 2.16666666666674  L 1.48749999999998 2.16666666666674  C 0.703906250000017 2.16666666666674  0 2.76250000000005  0 3.55243055555547  L 0 11.496875  C 0 12.2868055555555  0.703906250000017 13  1.48307291666666 13  L 15.6497395833333 13  Z M 4.71927083333333 7.17708333333326  C 4.80781249999998 5.19548611111122  6.37942708333333 3.59305555555557  8.32291666666666 3.50277777777774  C 10.5497395833333 3.39895833333344  12.3825520833333 5.2677083333333  12.2807291666667 7.53819444444457  C 12.1921875 9.51979166666661  10.6205729166667 11.1222222222223  8.67708333333334 11.2125000000001  C 6.45026041666665 11.3163194444444  4.61744791666669 9.44756944444453  4.71927083333333 7.17708333333326  Z M 12.1744791666667 4.19791666666674  C 12.1744791666667 3.8729166666667  12.43125 3.61111111111109  12.75 3.61111111111109  C 13.06875 3.61111111111109  13.3255208333333 3.8729166666667  13.3255208333333 4.19791666666674  C 13.3255208333333 4.52291666666656  13.06875 4.7847222222224  12.75 4.7847222222224  C 12.43125 4.7847222222224  12.1744791666667 4.52291666666656  12.1744791666667 4.19791666666674  Z M 6.03225806451613 7.04166666666674  C 6.03225806451613 8.55833333333339  7.23870967741934 9.75  8.7741935483871 9.75  C 10.3096774193548 9.75  11.516129032258 8.55833333333339  11.516129032258 7.04166666666674  C 11.516129032258 5.52500000000009  10.3096774193548 4.33333333333326  8.7741935483871 4.33333333333326  C 7.23870967741934 4.33333333333326  6.03225806451613 5.52500000000009  6.03225806451613 7.04166666666674  Z " fill-rule="nonzero" fill="#5c6b77" stroke="none" transform="matrix(1 0 0 1 233 257 )" />
  </g>
</svg>