<?xml version="1.0" encoding="utf-8"?>
<svg version="1.1" xmlns:xlink="http://www.w3.org/1999/xlink" width="13px" height="13px" xmlns="http://www.w3.org/2000/svg">
  <g transform="matrix(1 0 0 1 -28 -20 )">
    <path d="M 13 6.5  C 13 2.909375  10.090625 0  6.5 0  C 2.909375 0  0 2.909375  0 6.5  C 0 10.090625  2.909375 13  6.5 13  C 10.090625 13  13 10.090625  13 6.5  Z M 0.978125000000006 7.578125  C 0.909374999999997 7.228125  0.875 6.865625  0.875 6.5  C 0.875 4.996875  1.45937499999999 3.584375  2.52187500000001 2.521875  C 3.58437499999999 1.459375  4.996875 0.875  6.5 0.875  C 8.003125 0.875  9.41562500000001 1.459375  10.478125 2.521875  C 11.484375 3.528125  12.0625 4.85  12.121875 6.2625  C 11.846875 5.940625  11.365625 5.5125  10.753125 5.5125  C 9.89375 5.5125  9.45 6.315625  9.15937500000001 6.846875  C 9.11562499999999 6.925  9.075 7  9.03749999999999 7.065625  C 8.68125000000001 7.665625  8.184375 8.003125  7.709375 7.96874999999999  C 7.290625 7.940625  6.934375 7.61875  6.703125 7.06875  C 6.41562500000001 6.378125  5.79375 5.6375  5.05 5.53125  C 4.69687500000001 5.48125  4.171875 5.55625  3.653125 6.2  C 3.55312499999999 6.325  3.4375 6.49375  3.30624999999999 6.6875  C 2.98125 7.171875  2.4875 7.9  2.11562500000001 7.9625  C 1.575 8.05  1.15000000000001 7.728125  0.978125000000006 7.578125  Z " fill-rule="nonzero" fill="#ffffff" stroke="none" fill-opacity="0.698039215686274" transform="matrix(1 0 0 1 28 20 )" />
  </g>
</svg>