<?xml version="1.0" encoding="utf-8"?>
<svg version="1.1" xmlns:xlink="http://www.w3.org/1999/xlink" width="12px" height="13px" xmlns="http://www.w3.org/2000/svg">
  <g transform="matrix(1 0 0 1 -28 -20 )">
    <path d="M 11.9192609649123 11.4270855263158  C 11.9192609649123 12.2419802631579  11.2552489035088 12.9052368421053  10.4393135964912 12.9052368421053  L 1.55962938596491 12.9052368421053  C 0.743708333333331 12.9052368421053  0.0796820175438597 12.2419802631579  0.0796820175438597 11.4270855263158  L 0.0796820175438597 1.57291447368421  C 0.0796820175438597 0.757763157894736  0.743694078947371 0.0947631578947394  1.55962938596491 0.0947631578947394  L 10.4393135964912 0.0947631578947394  C 11.2552346491228 0.0947631578947394  11.9192609649123 0.758019736842108  11.9192609649123 1.57291447368421  L 11.9192609649123 11.4270855263158  Z M 1.55962938596491 1.08015460526316  C 1.2874846491228 1.08045394736842  1.06688377192982 1.3008125  1.06622807017544 1.57285745614035  L 1.06622807017544 11.4270997807018  C 1.06622807017544 11.6990734649123  1.28764144736842 11.9197313596491  1.55950109649123 11.9197313596491  L 10.4391853070175 11.9197313596491  C 10.7114725877193 11.9197313596491  10.9321447368421 11.6992302631579  10.9324583333333 11.4271282894737  L 10.9324583333333 1.57292872807017  C 10.9319451754386 1.30084100877193  10.7113300438596 1.08043969298246  10.4391995614035 1.08029714912281  L 1.55962938596491 1.08029714912281  Z M 7.98795833333334 7.00598793859649  L 2.54282565789474 7.00598793859649  C 2.27038157894737 7.00598793859649  2.04970942982456 6.78548684210526  2.04939583333334 6.51338486842106  C 2.04939583333334 6.24138267543859  2.27043859649123 6.02072478070176  2.54279714912281 6.02072478070176  L 7.98792982456141 6.02072478070176  C 8.26055921052631 6.02072478070176  8.48117434210526 6.24125438596491  8.48133114035087 6.51334210526316  C 8.48133114035087 6.78533004385965  8.26067324561403 7.00598793859649  7.98792982456141 7.00598793859649  Z M 9.43544846491228 9.94162171052632  L 2.54080153508772 9.94162171052632  C 2.26825767543859 9.94162171052632  2.04759978070176 9.72102083333333  2.04752850877193 9.44887609649123  C 2.04767105263159 9.17675986842105  2.2683004385965 8.95624451754386  2.54041666666667 8.95624451754386  L 9.43546271929824 8.95624451754386  C 9.70755043859648 8.95624451754386  9.92809429824561 9.17680263157895  9.92809429824561 9.44887609649123  C 9.92809429824561 9.72096381578947  9.70753618421053 9.94150767543859  9.43546271929824 9.94150767543859  Z M 2.04855482456141 3.31803618421053  C 2.04876864035087 3.72625328947368  2.37975548245615 4.05711184210526  2.78801535087719 4.05711184210526  C 3.19710197368421 4.05711184210526  3.52806030701754 3.72633881578948  3.52834539473685 3.31819298245614  C 3.52820285087719 2.90989035087719  3.1971875 2.57896052631579  2.78888486842105 2.57896052631579  C 2.37972697368421 2.57896052631579  2.04874013157895 2.90980482456141  2.04852631578947 3.31802192982456  Z M 5.24564254385965 3.31803618421053  C 5.24585635964912 3.72625328947368  5.57684320175439 4.05711184210526  5.98510307017544 4.05711184210526  C 5.98634320175438 4.05711184210526  6.72531907894736 3.72633881578948  6.72560416666667 3.31819298245614  C 6.72546162280702 2.90989035087719  6.39444627192982 2.57896052631579  5.98614364035087 2.57896052631579  C 5.57685745614035 2.57896052631579  5.24587061403508 2.90980482456141  5.24565679824562 3.31802192982456  Z M 8.45416228070175 3.31803618421053  C 8.45437609649123 3.72625328947368  8.78536293859649 4.05711184210526  9.19362280701755 4.05711184210526  C 9.19483442982455 4.05711184210526  9.93382456140351 3.72633881578948  9.9341096491228 3.31819298245614  C 9.93396710526315 2.90989035087719  9.60295175438597 2.57896052631579  9.19464912280702 2.57896052631579  C 8.78536293859649 2.57896052631579  8.45437609649123 2.90980482456141  8.45416228070175 3.31802192982456  Z " fill-rule="nonzero" fill="#ffffff" stroke="none" transform="matrix(1 0 0 1 28 20 )" />
  </g>
</svg>