<?xml version="1.0" encoding="utf-8"?>
<svg version="1.1" xmlns:xlink="http://www.w3.org/1999/xlink" width="13px" height="13px" xmlns="http://www.w3.org/2000/svg">
  <g transform="matrix(1 0 0 1 -28 -20 )">
    <path d="M 12.7940259740259 12.8480519480519  C 13.0168831168831 12.6353246753247  13.0236363636363 12.2841558441559  12.8142857142858 12.0612987012987  L 9.20805194805193 8.42129870129877  C 9.9137662337663 7.53662337662345  10.3392207792208 6.41558441558441  10.3392207792208 5.19662337662341  C 10.3392207792208 2.34337662337663  8.02623376623364 0.0303896103896193  5.16961038961037 0.0303896103896193  C 2.31298701298711 0.0303896103896193  0 2.34675324675322  0 5.2  C 0 8.05324675324678  2.31298701298711 10.3662337662337  5.16961038961037 10.3662337662337  C 6.40545454545463 10.3662337662337  7.53662337662345 9.93402597402594  8.42805194805206 9.21142857142853  L 12.0106493506492 12.8277922077922  C 12.1187012987012 12.9425974025973  12.2672727272728 13  12.4124675324676 13  C 12.5509090909092 13  12.6893506493508 12.9493506493507  12.7940259740259 12.8480519480519  Z M 8.03974025974021 8.06675324675314  C 7.27324675324689 8.83324675324685  6.25350649350651 9.25532467532462  5.16961038961037 9.25532467532462  C 4.08571428571425 9.25532467532462  3.06597402597416 8.83324675324685  2.29948051948054 8.06675324675314  C 1.53298701298692 7.30025974025973  1.11090909090896 6.28051948051954  1.11090909090896 5.2  C 1.11090909090896 4.11610389610387  1.53298701298692 3.09636363636358  2.29948051948054 2.33324675324685  C 3.06597402597416 1.56675324675315  4.08571428571425 1.14467532467538  5.16961038961037 1.14467532467538  C 6.25350649350651 1.14467532467538  7.27324675324689 1.56675324675315  8.03974025974021 2.33324675324685  C 8.80623376623382 3.09974025974027  9.22831168831178 4.11948051948046  9.22831168831178 5.2  C 9.22831168831178 6.28389610389613  8.80623376623382 7.30363636363642  8.03974025974021 8.06675324675314  Z " fill-rule="nonzero" fill="#ffffff" stroke="none" transform="matrix(1 0 0 1 28 20 )" />
  </g>
</svg>