<?xml version="1.0" encoding="utf-8"?>
<svg version="1.1" xmlns:xlink="http://www.w3.org/1999/xlink" width="13px" height="13px" xmlns="http://www.w3.org/2000/svg">
  <g transform="matrix(1 0 0 1 -28 -20 )">
    <path d="M 3.31250000000007 0.0625000000000711  C 2.75937500000005 0.0625000000000711  2.37499999999993 0.446875000000006  2.37499999999993 1.00000000000003  L 2.37499999999993 11.0625  C 2.37499999999993 11.3031250000001  2.17812500000004 11.5  1.93749999999999 11.5  C 1.69687499999993 11.5  1.50000000000004 11.3031250000001  1.50000000000004 11.0625  L 1.50000000000004 2.00000000000006  L 1.00000000000003 2.00000000000006  C 0.446875000000006 2.00000000000006  0 2.44687500000006  0 3.00000000000009  L 0 12  C 0 12.553125  0.446875000000006 13  1.00000000000003 13  L 12.0343750000001 13  C 12.565625 13  13 12.56875  13 12.0343750000001  L 13 1.00000000000003  C 13 0.446875000000006  12.553125 0  12 0  L 3.31250000000007 0.0625000000000711  Z M 3.99999999999993 2.4375  C 3.99999999999993 2.19687499999995  4.19687500000002 2.00000000000006  4.43750000000006 2.00000000000006  L 7.06250000000008 2.00000000000006  C 7.30312499999994 2.00000000000006  7.50000000000003 2.19687499999995  7.50000000000003 2.4375  C 7.50000000000003 2.67812500000005  7.30312499999994 2.87499999999994  7.06250000000008 2.87499999999994  L 4.43750000000006 2.87499999999994  C 4.19687500000002 2.87499999999994  3.99999999999993 2.67812500000005  3.99999999999993 2.4375  Z M 3.99999999999993 7.43749999999996  C 3.99999999999993 7.19687499999991  4.19687500000002 7.00000000000001  4.43750000000006 7.00000000000001  L 9.06249999999996 7.00000000000001  C 9.30312499999999 7.00000000000001  9.50000000000009 7.19687499999991  9.50000000000009 7.43749999999996  C 9.50000000000009 7.67812499999999  9.30312499999999 7.87500000000008  9.06249999999996 7.87500000000008  L 4.43750000000006 7.87500000000008  C 4.19687500000002 7.87500000000008  3.99999999999993 7.67812499999999  3.99999999999993 7.43749999999996  Z M 10.9999999999999 9.93750000000003  C 10.9999999999999 10.1781250000001  10.8031250000001 10.375  10.5625 10.375  L 4.43750000000006 10.375  C 4.19687500000002 10.375  3.99999999999993 10.1781250000001  3.99999999999993 9.93750000000003  C 3.99999999999993 9.69687499999998  4.19687500000002 9.50000000000009  4.43750000000006 9.50000000000009  L 10.5625 9.50000000000009  C 10.8031250000001 9.50000000000009  10.9999999999999 9.69687499999998  10.9999999999999 9.93750000000003  Z M 10.9999999999999 4.93750000000007  C 10.9999999999999 5.17812499999992  10.8031250000001 5.37500000000001  10.5625 5.37500000000001  L 4.43750000000006 5.37500000000001  C 4.19687500000002 5.37500000000001  3.99999999999993 5.17812499999992  3.99999999999993 4.93750000000007  C 3.99999999999993 4.69687500000003  4.19687500000002 4.49999999999994  4.43750000000006 4.49999999999994  L 10.5625 4.49999999999994  C 10.8031250000001 4.49999999999994  10.9999999999999 4.69687500000003  10.9999999999999 4.93750000000007  Z " fill-rule="nonzero" fill="#ffffff" stroke="none" fill-opacity="0.698039215686274" transform="matrix(1 0 0 1 28 20 )" />
  </g>
</svg>