<?xml version="1.0" encoding="utf-8"?>
<svg version="1.1" xmlns:xlink="http://www.w3.org/1999/xlink" width="13px" height="13px" xmlns="http://www.w3.org/2000/svg">
  <g transform="matrix(1 0 0 1 -28 -20 )">
    <path d="M 13 6.5  C 13 2.90937500000003  10.090625 0  6.5 0  C 2.90937500000001 0  0 2.90937500000003  0 6.5  C 0 10.090625  2.90937500000001 13  6.5 13  C 10.090625 13  13 10.090625  13 6.5  Z M 9.82187500000001 4.52187500000001  C 9.87812500000001 4.57500000000003  9.87812500000001 4.65312499999997  9.828125 4.70312500000004  L 5.65000000000001 8.89999999999995  L 5.64687499999999 8.89999999999995  C 5.59375000000001 8.95312499999997  5.45 9.07187500000002  5.284375 9.07187500000002  C 5.16562500000001 9.07187500000002  5.03124999999999 9.00624999999998  4.91875 8.89375000000004  L 3.16875 7.14375  C 3.11875000000001 7.09375000000003  3.11875000000001 7.01562499999999  3.16875 6.96562500000002  L 3.72499999999999 6.40937500000004  C 3.75 6.38437500000001  3.78125 6.37187499999999  3.8125 6.37187499999999  C 3.84375 6.37187499999999  3.875 6.38437500000001  3.90000000000001 6.40937500000004  L 5.28750000000001 7.79687500000004  L 9.09999999999999 3.95624999999997  C 9.125 3.93125000000003  9.15625 3.91875000000002  9.1875 3.91875000000002  C 9.221875 3.91875000000002  9.25312500000001 3.93125000000003  9.27499999999999 3.95624999999997  L 9.82187500000001 4.52187500000001  Z " fill-rule="nonzero" fill="#ffffff" stroke="none" transform="matrix(1 0 0 1 28 20 )" />
  </g>
</svg>