<?xml version="1.0" encoding="utf-8"?>
<svg version="1.1" xmlns:xlink="http://www.w3.org/1999/xlink" width="13px" height="12px" xmlns="http://www.w3.org/2000/svg">
  <g transform="matrix(1 0 0 1 -28 -20 )">
    <path d="M 12.8297853535354 11.0948106060606  C 12.9858838383838 10.8246338383838  12.9857196969697 10.491755050505  12.8296212121212 10.2215782828283  L 7.25587121212122 0.566944444444445  C 7.09989076301767 0.296778380781099  6.81163261573759 0.130343244734867  6.49967171717172 0.130328282828287  C 6.18769993012356 0.130302608919479  5.89942292249175 0.296748634597925  5.74347222222222 0.566944444444445  L 0.169393939393942 10.2215782828283  C 0.0132954545454567 10.491755050505  0.0132954545454567 10.8246338383838  0.169393939393942 11.0948106060606  C 0.325492424242427 11.3649873737374  0.613724747474748 11.5314267676768  0.92559343434344 11.5314267676768  L 12.0735858585859 11.5314267676768  C 12.3856186868687 11.5314267676768  12.6736868686869 11.3649873737374  12.8297853535354 11.0948106060606  Z M 5.82275252525253 3.93972222222223  C 5.82242424242425 3.61308080808081  6.13412878787879 3.27659090909091  6.61243686868687 3.26411616161616  C 7.00916666666666 3.26083333333334  7.40244949494949 3.61308080808081  7.40244949494949 3.93972222222223  L 7.20646464646464 7.31791666666666  C 7.20646464646464 7.64455808080808  6.93924242424242 7.91194444444444  6.61260101010102 7.91194444444444  C 6.2859595959596 7.91194444444444  6.01873737373738 7.64472222222223  6.01873737373738 7.31791666666666  L 5.82275252525253 3.93972222222223  Z M 7.42854797979798 9.55155303030303  C 7.42854797979798 10.0022853535354  7.06316919191919 10.3676641414141  6.61243686868687 10.3676641414141  C 6.16170454545454 10.3676641414141  5.79632575757576 10.0022853535354  5.79632575757576 9.55155303030303  C 5.79632575757576 9.10082070707071  6.16170454545454 8.73544191919191  6.61243686868687 8.73544191919191  C 7.06316919191919 8.73544191919191  7.42854797979798 9.10082070707071  7.42854797979798 9.55155303030303  Z " fill-rule="nonzero" fill="#ffffff" stroke="none" fill-opacity="0.698039215686274" transform="matrix(1 0 0 1 28 20 )" />
  </g>
</svg>