<?xml version="1.0" encoding="utf-8"?>
<svg version="1.1" xmlns:xlink="http://www.w3.org/1999/xlink" width="13px" height="14px" xmlns="http://www.w3.org/2000/svg">
  <g transform="matrix(1 0 0 1 -28 -20 )">
    <path d="M 12.9966145833333 8.06406250000001  C 12.3736979166667 7.8203125  11.9268229166667 7.21432291666667  11.9268229166667 6.5  C 11.9268229166667 5.7890625  12.3703125 5.18307291666667  13 4.93932291666667  C 12.8341145833333 4.2453125  12.5598958333333 3.59531250000001  12.19765625 3.00624999999999  C 11.9809895833333 3.10104166666667  11.75078125 3.15182291666667  11.5171875 3.15182291666667  C 11.090625 3.15182291666667  10.6640625 2.98932291666667  10.3356770833333 2.66432291666666  C 9.83125 2.15989583333334  9.71953125 1.41848958333334  9.99036458333333 0.802343750000006  C 9.40468749999999 0.440104166666671  8.75130208333333 0.165885416666669  8.06067708333333 0  C 7.8203125 0.626302083333329  7.2109375 1.07317708333333  6.5 1.07317708333333  C 5.7890625 1.07317708333333  5.1796875 0.626302083333329  4.93932291666667 0  C 4.2453125 0.165885416666669  3.59531250000001 0.440104166666671  3.00624999999999 0.802343750000006  C 3.28046875 1.41510416666667  3.16536458333333 2.15989583333334  2.6609375 2.66432291666666  C 2.3359375 2.98932291666667  1.90598958333334 3.15182291666667  1.47942708333333 3.15182291666667  C 1.24583333333334 3.15182291666667  1.015625 3.10442708333333  0.798958333333331 3.00624999999999  C 0.440104166666671 3.59869791666667  0.165885416666669 4.24869791666667  0 4.94270833333333  C 0.626302083333329 5.18307291666667  1.07317708333333 5.7890625  1.07317708333333 6.50338541666667  C 1.07317708333333 7.21432291666667  0.629687500000003 7.8203125  0.00338541666666003 8.06406250000001  C 0.169270833333329 8.75807291666666  0.443489583333331 9.40807291666667  0.805729166666666 9.99713541666667  C 1.02239583333333 9.90234375  1.25260416666667 9.85494791666667  1.48281249999999 9.85494791666667  C 1.909375 9.85494791666667  2.3359375 10.0174479166667  2.66432291666666 10.3424479166667  C 3.16536458333333 10.8434895833333  3.28046875 11.58828125  3.00963541666667 12.2010416666667  C 3.59869791666667 12.56328125  4.25208333333333 12.8375  4.94270833333333 13.0033854166667  C 5.18307291666666 12.3770833333333  5.7890625 11.93359375  6.5 11.93359375  C 7.2109375 11.93359375  7.81692708333334 12.3770833333333  8.05729166666667 13.0033854166667  C 8.75130208333333 12.8375  9.40130208333333 12.56328125  9.99036458333333 12.2010416666667  C 9.71953125 11.58828125  9.83463541666667 10.846875  10.3356770833333 10.3424479166667  C 10.6606770833333 10.0174479166667  11.0872395833333 9.85494791666667  11.5171875 9.85494791666667  C 11.7473958333333 9.85494791666667  11.9809895833333 9.90234375  12.1942708333333 9.99713541666667  C 12.5565104166667 9.40807291666667  12.8307291666667 8.7546875  12.9966145833333 8.06406250000001  Z M 9.23880208333333 6.49661458333334  C 9.23880208333333 7.98958333333333  8.03020833333333 9.20494791666667  6.53046875 9.20494791666667  C 5.03072916666666 9.20494791666667  3.82213541666667 7.98958333333333  3.82213541666667 6.49661458333334  C 3.82213541666667 5.00364583333334  5.03072916666666 3.78828125  6.53046875 3.78828125  C 8.03020833333333 3.78828125  9.23880208333333 5.00364583333334  9.23880208333333 6.49661458333334  Z " fill-rule="nonzero" fill="#ffffff" stroke="none" transform="matrix(1 0 0 1 28 20 )" />
  </g>
</svg>