<?xml version="1.0" encoding="utf-8"?>
<svg version="1.1" xmlns:xlink="http://www.w3.org/1999/xlink" width="14px" height="14px" xmlns="http://www.w3.org/2000/svg">
  <g transform="matrix(1 0 0 1 -28 -19 )">
    <path d="M 0 7  C 0 10.8634615384615  3.12980769230769 14  6.99326923076923 14  C 10.8634615384615 14  14 10.8634615384615  14 7  C 14 3.13653846153846  10.8634615384615 0  6.99326923076923 0  C 3.12980769230769 0  0 3.13653846153846  0 7  Z M 1.40000000000001 7  C 1.40000000000001 3.90721153846154  3.90721153846154 1.4  7 1.4  C 10.0927884615385 1.4  12.6 3.90721153846154  12.6 7  C 12.6 10.0927884615385  10.0927884615385 12.6  7 12.6  C 3.90721153846154 12.6  1.40000000000001 10.0927884615385  1.40000000000001 7  Z M 9.99708333333334 9.94215277777778  L 10.5333333333333 9.07104166666667  L 7.31583333333333 7.1825  L 7.31583333333333 3.46666666666667  L 6.24333333333334 3.46666666666667  L 6.24333333333334 7.71333333333333  L 9.99708333333334 9.94215277777778  Z " fill-rule="nonzero" fill="#ffffff" stroke="none" transform="matrix(1 0 0 1 28 19 )" />
  </g>
</svg>