<?xml version="1.0" encoding="utf-8"?>
<svg version="1.1" xmlns:xlink="http://www.w3.org/1999/xlink" width="8px" height="5px" xmlns="http://www.w3.org/2000/svg">
  <g transform="matrix(1 0 0 1 -965 -205 )">
    <path d="M 0.973809523809535 0.192857142857065  L 4 3.2166666666667  L 7.02380952380955 0.190476190476147  C 7.24761904761908 -0.0333333333337578  7.60952380952381 -0.0333333333337578  7.83095238095243 0.190476190476147  C 8.0523809523809 0.414285714286052  8.0523809523809 0.77619047619055  7.83095238095243 1  L 4.40476190476195 4.42857142857201  C 4.18809523809531 4.64523809523826  3.84047619047621 4.65000000000009  3.61666666666667 4.44523809523844  L 0.166666666666657 1.00238095238092  C 0.0547619047619321 0.89047619047642  0 0.742857142857247  0 0.597619047618991  C 0 0.452380952380736  0.0547619047619321 0.304761904762017  0.166666666666657 0.192857142857065  C 0.390476190476193 -0.0309523809523853  0.752380952380918 -0.0309523809523853  0.973809523809535 0.192857142857065  Z " fill-rule="nonzero" fill="#808695" stroke="none" transform="matrix(1 0 0 1 965 205 )" />
  </g>
</svg>