<?xml version="1.0" encoding="utf-8"?>
<svg version="1.1" xmlns:xlink="http://www.w3.org/1999/xlink" width="7px" height="4px" xmlns="http://www.w3.org/2000/svg">
  <g transform="matrix(1 0 0 1 -1533 -33 )">
    <path d="M 0.852083333333354 0.226530612244915  L 3.5 2.81836734693877  L 6.14583333333334 0.224489795918352  C 6.34166666666667 0.0326530612244724  6.65833333333333 0.0326530612244724  6.85208333333333 0.224489795918352  C 7.04583333333335 0.416326530612231  7.04583333333335 0.726530612244915  6.85208333333333 0.918367346938794  L 3.85416666666669 3.85714285714285  C 3.66458333333333 4.04285714285712  3.36041666666668 4.04693877551021  3.16458333333333 3.87142857142859  L 0.145833333333314 0.920408163265314  C 0.0479166666666799 0.824489795918375  0 0.697959183673483  0 0.573469387755118  C 0 0.448979591836746  0.0479166666666799 0.322448979591854  0.145833333333314 0.226530612244915  C 0.341666666666669 0.0346938775510353  0.658333333333331 0.0346938775510353  0.852083333333354 0.226530612244915  Z " fill-rule="nonzero" fill="#2b85e4" stroke="none" transform="matrix(1 0 0 1 1533 33 )" />
  </g>
</svg>