<?xml version="1.0" encoding="utf-8"?>
<svg version="1.1" xmlns:xlink="http://www.w3.org/1999/xlink" width="10px" height="10px" xmlns="http://www.w3.org/2000/svg">
  <g transform="matrix(1 0 0 1 -133 -4 )">
    <path d="M 9.92152099557518 5.04039907079647  C 9.92152099557518 2.30212676991152  7.7017389269912 0.082344701327429  4.9634666261062 0.082344701327429  C 2.2251943252212 0.082344701327429  0.00541225663721434 2.30212676991152  0.00541225663721434 5.04039907079647  C 0.00541225663721434 7.77867137168141  2.2251943252212 9.99845344026545  4.9634666261062 9.99845344026545  C 7.7017389269912 9.99845344026545  9.92152099557518 7.77867137168141  9.92152099557518 5.04039907079647  Z M 7.94967560840712 3.15955323008848  C 8.08404113938059 3.29612610619472  8.08404113938059 3.51743871681413  7.94967560840712 3.65403424778759  L 4.51891705752212 7.15911832964599  C 4.50722374999998 7.176663960177  4.49420602876103 7.19341720132741  4.47886775442475 7.20894790929202  C 4.34440034292038 7.34552079646016  4.12641574115037 7.34552079646016  3.99185776548677 7.20894790929202  L 2.28773599557519 5.47859825221241  C 2.15337045353976 5.34201403761062  2.15337045353976 5.12069012168143  2.28773599557519 4.98430966814163  C 2.42219209070799 4.84772545353985  2.64017668141594 4.84772545353985  2.77464410398227 4.98430966814163  L 4.23021793141595 6.46209286504421  L 7.46266561946902 3.15955323008848  C 7.59723491150442 3.02298034292033  7.81511763274341 3.02298034292033  7.94967560840712 3.15955323008848  Z " fill-rule="nonzero" fill="#19be6b" stroke="none" transform="matrix(1 0 0 1 133 4 )" />
  </g>
</svg>