<?xml version="1.0" encoding="utf-8"?>
<svg version="1.1" xmlns:xlink="http://www.w3.org/1999/xlink" width="11px" height="11px" xmlns="http://www.w3.org/2000/svg">
  <g transform="matrix(1 0 0 1 -123 -11 )">
    <path d="M 10.9325980392157 5.51617647058823  C 10.9325980392157 5.33823529411765  10.7883578431372 5.19264705882352  10.609068627451 5.19264705882352  C 10.4297794117647 5.19264705882352  10.2855392156863 5.33688725490197  10.2855392156863 5.51617647058823  C 10.2855392156863 8.14754901960785  8.14485294117647 10.2882352941177  5.51348039215686 10.2882352941177  C 2.88210784313725 10.2882352941177  0.741421568627445 8.14754901960785  0.741421568627445 5.51617647058823  C 0.741421568627445 2.88480392156863  2.88210784313725 0.744117647058815  5.51348039215686 0.744117647058815  C 7.00980392156862 0.744117647058815  8.4158088235294 1.44644607843138  9.31764705882354 2.63406862745097  L 7.87254901960785 2.39007352941177  C 7.69595588235293 2.36041666666667  7.52879901960785 2.47904411764706  7.49914215686275 2.65563725490196  C 7.46948529411765 2.83223039215687  7.58811274509803 2.99938725490196  7.76470588235294 3.02904411764706  L 9.95661764705882 3.39975490196078  C 9.97414215686274 3.40245098039216  9.99301470588235 3.40379901960784  10.0105392156863 3.40379901960784  C 10.0860294117647 3.40379901960784  10.1601715686274 3.37683823529412  10.2194852941176 3.32696078431373  C 10.2922794117647 3.26495098039216  10.334068627451 3.17463235294119  10.334068627451 3.08026960784314  L 10.334068627451 0.872181372549022  C 10.334068627451 0.69289215686274  10.1898284313725 0.548651960784312  10.0105392156863 0.548651960784312  C 9.83125 0.548651960784312  9.68700980392157 0.69289215686274  9.68700980392157 0.872181372549022  L 9.68700980392157 2.06115196078432  C 8.66249999999999 0.823651960784318  7.13517156862744 0.0970588235294088  5.51348039215686 0.0970588235294088  C 4.78149509803922 0.0970588235294088  4.07242647058824 0.239950980392152  3.40379901960784 0.523039215686282  C 2.75808823529412 0.795343137254903  2.17843137254903 1.18627450980392  1.68100490196078 1.68370098039216  C 1.18357843137255 2.1811274509804  0.792647058823533 2.76078431372549  0.520343137254898 3.40649509803922  C 0.237254901960782 4.07512254901961  0.0943627450980387 4.78553921568628  0.0943627450980387 5.51617647058823  C 0.0943627450980387 6.2468137254902  0.237254901960782 6.95723039215687  0.520343137254898 7.62585784313726  C 0.792647058823533 8.27156862745098  1.18357843137255 8.85122549019607  1.68100490196078 9.34865196078431  C 2.17843137254903 9.84607843137255  2.75808823529412 10.2370098039216  3.40379901960784 10.5093137254902  C 4.07242647058824 10.7924019607843  4.78149509803922 10.9352941176471  5.51348039215686 10.9352941176471  C 6.2454656862745 10.9352941176471  6.95453431372549 10.7924019607843  7.62316176470588 10.5093137254902  C 8.2688725490196 10.2370098039216  8.8485294117647 9.84607843137255  9.34595588235294 9.34865196078431  C 9.84338235294118 8.85122549019607  10.2343137254902 8.27156862745098  10.5066176470588 7.62585784313726  C 10.7897058823529 6.95723039215687  10.9325980392157 6.24816176470588  10.9325980392157 5.51617647058823  Z " fill-rule="nonzero" fill="#ffffff" stroke="none" transform="matrix(1 0 0 1 123 11 )" />
  </g>
</svg>