<?xml version="1.0" encoding="utf-8"?>
<svg version="1.1" xmlns:xlink="http://www.w3.org/1999/xlink" width="28px" height="31px" xmlns="http://www.w3.org/2000/svg">
  <g transform="matrix(1 0 0 1 -301 -198 )">
    <path d="M 21.21875 28.033203125  C 21.431891025641 27.7775607638889  21.5384615384615 27.4748263888889  21.5384615384615 27.125  C 21.5384615384615 26.7751736111111  21.431891025641 26.4724392361111  21.21875 26.216796875  C 21.005608974359 25.9611545138889  20.7532051282051 25.8333333333333  20.4615384615385 25.8333333333333  C 20.1698717948718 25.8333333333333  19.9174679487179 25.9611545138889  19.7043269230769 26.216796875  C 19.4911858974359 26.4724392361111  19.3846153846154 26.7751736111111  19.3846153846154 27.125  C 19.3846153846154 27.4748263888889  19.4911858974359 27.7775607638889  19.7043269230769 28.033203125  C 19.9174679487179 28.2888454861111  20.1698717948718 28.4166666666667  20.4615384615385 28.4166666666667  C 20.7532051282051 28.4166666666667  21.005608974359 28.2888454861111  21.21875 28.033203125  Z M 25.5264423076923 28.033203125  C 25.7395833333333 27.7775607638889  25.8461538461538 27.4748263888889  25.8461538461538 27.125  C 25.8461538461538 26.7751736111111  25.7395833333333 26.4724392361111  25.5264423076923 26.216796875  C 25.3133012820513 25.9611545138889  25.0608974358974 25.8333333333333  24.7692307692308 25.8333333333333  C 24.4775641025641 25.8333333333333  24.2251602564103 25.9611545138889  24.0120192307692 26.216796875  C 23.7988782051282 26.4724392361111  23.6923076923077 26.7751736111111  23.6923076923077 27.125  C 23.6923076923077 27.4748263888889  23.7988782051282 27.7775607638889  24.0120192307692 28.033203125  C 24.2251602564103 28.2888454861111  24.4775641025641 28.4166666666667  24.7692307692308 28.4166666666667  C 25.0608974358974 28.4166666666667  25.3133012820513 28.2888454861111  25.5264423076923 28.033203125  Z M 27.5288461538462 21.2317708333333  C 27.8429487179487 21.6085069444444  28 22.0659722222222  28 22.6041666666667  L 28 29.0625  C 28 29.6006944444444  27.8429487179487 30.0581597222222  27.5288461538462 30.4348958333333  C 27.2147435897436 30.8116319444444  26.8333333333333 31  26.3846153846154 31  L 1.61538461538462 31  C 1.16666666666667 31  0.78525641025641 30.8116319444444  0.471153846153846 30.4348958333333  C 0.157051282051282 30.0581597222222  0 29.6006944444444  0 29.0625  L 0 22.6041666666667  C 0 22.0659722222222  0.157051282051282 21.6085069444444  0.471153846153846 21.2317708333333  C 0.78525641025641 20.8550347222222  1.16666666666667 20.6666666666667  1.61538461538462 20.6666666666667  L 9.43990384615385 20.6666666666667  L 11.7115384615385 23.4114583333333  C 12.3621794871795 24.1649305555556  13.125 24.5416666666667  14 24.5416666666667  C 14.875 24.5416666666667  15.6378205128205 24.1649305555556  16.2884615384615 23.4114583333333  L 18.5769230769231 20.6666666666667  L 26.3846153846154 20.6666666666667  C 26.8333333333333 20.6666666666667  27.2147435897436 20.8550347222222  27.5288461538462 21.2317708333333  Z M 21.5384615384615 10.3333333333333  C 22.0096153846154 10.3333333333333  22.3405448717949 10.595703125  22.53125 11.1204427083333  C 22.7219551282051 11.6720920138889  22.6434294871795 12.1430121527778  22.2956730769231 12.533203125  L 14.7572115384615 21.5748697916667  C 14.5552884615385 21.8305121527778  14.3028846153846 21.9583333333333  14 21.9583333333333  C 13.6971153846154 21.9583333333333  13.4447115384615 21.8305121527778  13.2427884615385 21.5748697916667  L 5.70432692307692 12.533203125  C 5.35657051282051 12.1430121527778  5.27804487179487 11.6720920138889  5.46875 11.1204427083333  C 5.65945512820513 10.595703125  5.99038461538462 10.3333333333333  6.46153846153846 10.3333333333333  L 10.7692307692308 10.3333333333333  L 10.7692307692308 1.29166666666667  C 10.7692307692308 0.941840277777774  10.8758012820513 0.639105902777774  11.0889423076923 0.383463541666666  C 11.3020833333333 0.127821180555557  11.5544871794872 0  11.8461538461538 0  L 16.1538461538462 0  C 16.4455128205128 0  16.6979166666667 0.127821180555557  16.9110576923077 0.383463541666666  C 17.1241987179487 0.639105902777774  17.2307692307692 0.941840277777774  17.2307692307692 1.29166666666667  L 17.2307692307692 10.3333333333333  L 21.5384615384615 10.3333333333333  Z " fill-rule="nonzero" fill="#000000" stroke="none" transform="matrix(1 0 0 1 301 198 )" />
  </g>
</svg>