<?xml version="1.0" encoding="utf-8"?>
<svg version="1.1" xmlns:xlink="http://www.w3.org/1999/xlink" width="15px" height="15px" viewBox="217 12.5  15 15" xmlns="http://www.w3.org/2000/svg">
  <path d="M 224.5 12.5  C 228.7 12.5  232 15.8  232 20  C 232 24.2  228.7 27.5  224.5 27.5  C 220.3 27.5  217 24.2  217 20  C 217 15.8  220.3 12.5  224.5 12.5  Z " fill-rule="nonzero" fill="#ffffff" stroke="none" />
  <path d="M 224.5 13  C 228.42 13  231.5 16.08  231.5 20  C 231.5 23.92  228.42 27  224.5 27  C 220.58 27  217.5 23.92  217.5 20  C 217.5 16.08  220.58 13  224.5 13  Z " stroke-width="1" stroke="#409eff" fill="none" />
  <path d="M 224.5 23.75  C 222.4 23.75  220.75 22.1  220.75 20  C 220.75 17.9  222.4 16.25  224.5 16.25  C 226.6 16.25  228.25 17.9  228.25 20  C 228.25 22.1  226.6 23.75  224.5 23.75  " fill-rule="nonzero" fill="#409eff" stroke="none" />
</svg>