<?xml version="1.0" encoding="utf-8"?>
<svg version="1.1" xmlns:xlink="http://www.w3.org/1999/xlink" width="15px" height="15px" viewBox="347 12.5  15 15" xmlns="http://www.w3.org/2000/svg">
  <path d="M 354.5 12.5  C 358.7 12.5  362 15.8  362 20  C 362 24.2  358.7 27.5  354.5 27.5  C 350.3 27.5  347 24.2  347 20  C 347 15.8  350.3 12.5  354.5 12.5  Z " fill-rule="nonzero" fill="#ffffff" stroke="none" />
  <path d="M 354.5 13  C 358.42 13  361.5 16.08  361.5 20  C 361.5 23.92  358.42 27  354.5 27  C 350.58 27  347.5 23.92  347.5 20  C 347.5 16.08  350.58 13  354.5 13  Z " stroke-width="1" stroke="#409eff" fill="none" />
  <path d="M 354.5 23.75  C 352.4 23.75  350.75 22.1  350.75 20  C 350.75 17.9  352.4 16.25  354.5 16.25  C 356.6 16.25  358.25 17.9  358.25 20  C 358.25 22.1  356.6 23.75  354.5 23.75  " fill-rule="nonzero" fill="#409eff" stroke="none" />
</svg>