<?xml version="1.0" encoding="utf-8"?>
<svg version="1.1" xmlns:xlink="http://www.w3.org/1999/xlink" width="12px" height="12px" viewBox="247 226.5  12 12" xmlns="http://www.w3.org/2000/svg">
  <path d="M 253 226.5  C 256.36 226.5  259 229.14  259 232.5  C 259 235.86  256.36 238.5  253 238.5  C 249.64 238.5  247 235.86  247 232.5  C 247 229.14  249.64 226.5  253 226.5  Z " fill-rule="nonzero" fill="#f0f0f0" stroke="none" />
  <path d="M 253 227  C 256.08 227  258.5 229.42  258.5 232.5  C 258.5 235.58  256.08 238  253 238  C 249.92 238  247.5 235.58  247.5 232.5  C 247.5 229.42  249.92 227  253 227  Z " stroke-width="1" stroke="#797979" fill="none" />
  <path d="M 253 235.5  C 251.32 235.5  250 234.18  250 232.5  C 250 230.82  251.32 229.5  253 229.5  C 254.68 229.5  256 230.82  256 232.5  C 256 234.18  254.68 235.5  253 235.5  " fill-rule="nonzero" fill="#797979" stroke="none" />
</svg>