<?xml version="1.0" encoding="utf-8"?>
<svg version="1.1" xmlns:xlink="http://www.w3.org/1999/xlink" width="12px" height="12px" viewBox="247 259.5  12 12" xmlns="http://www.w3.org/2000/svg">
  <path d="M 253 259.5  C 256.36 259.5  259 262.14  259 265.5  C 259 268.86  256.36 271.5  253 271.5  C 249.64 271.5  247 268.86  247 265.5  C 247 262.14  249.64 259.5  253 259.5  Z " fill-rule="nonzero" fill="#f0f0f0" stroke="none" />
  <path d="M 253 260  C 256.08 260  258.5 262.42  258.5 265.5  C 258.5 268.58  256.08 271  253 271  C 249.92 271  247.5 268.58  247.5 265.5  C 247.5 262.42  249.92 260  253 260  Z " stroke-width="1" stroke="#797979" fill="none" />
  <path d="M 253 268.5  C 251.32 268.5  250 267.18  250 265.5  C 250 263.82  251.32 262.5  253 262.5  C 254.68 262.5  256 263.82  256 265.5  C 256 267.18  254.68 268.5  253 268.5  " fill-rule="nonzero" fill="#797979" stroke="none" />
</svg>