<?xml version="1.0" encoding="utf-8"?>
<svg version="1.1" xmlns:xlink="http://www.w3.org/1999/xlink" width="15px" height="15px" viewBox="360 226.5  15 15" xmlns="http://www.w3.org/2000/svg">
  <path d="M 367.5 226.5  C 371.7 226.5  375 229.8  375 234  C 375 238.2  371.7 241.5  367.5 241.5  C 363.3 241.5  360 238.2  360 234  C 360 229.8  363.3 226.5  367.5 226.5  Z " fill-rule="nonzero" fill="#ffffff" stroke="none" />
  <path d="M 367.5 227  C 371.42 227  374.5 230.08  374.5 234  C 374.5 237.92  371.42 241  367.5 241  C 363.58 241  360.5 237.92  360.5 234  C 360.5 230.08  363.58 227  367.5 227  Z " stroke-width="1" stroke="#409eff" fill="none" />
  <path d="M 367.5 237.75  C 365.4 237.75  363.75 236.1  363.75 234  C 363.75 231.9  365.4 230.25  367.5 230.25  C 369.6 230.25  371.25 231.9  371.25 234  C 371.25 236.1  369.6 237.75  367.5 237.75  " fill-rule="nonzero" fill="#409eff" stroke="none" />
</svg>