<?xml version="1.0" encoding="utf-8"?>
<svg version="1.1" xmlns:xlink="http://www.w3.org/1999/xlink" width="15px" height="15px" viewBox="230 226.5  15 15" xmlns="http://www.w3.org/2000/svg">
  <path d="M 237.5 226.5  C 241.7 226.5  245 229.8  245 234  C 245 238.2  241.7 241.5  237.5 241.5  C 233.3 241.5  230 238.2  230 234  C 230 229.8  233.3 226.5  237.5 226.5  Z " fill-rule="nonzero" fill="#ffffff" stroke="none" />
  <path d="M 237.5 227  C 241.42 227  244.5 230.08  244.5 234  C 244.5 237.92  241.42 241  237.5 241  C 233.58 241  230.5 237.92  230.5 234  C 230.5 230.08  233.58 227  237.5 227  Z " stroke-width="1" stroke="#409eff" fill="none" />
  <path d="M 237.5 237.75  C 235.4 237.75  233.75 236.1  233.75 234  C 233.75 231.9  235.4 230.25  237.5 230.25  C 239.6 230.25  241.25 231.9  241.25 234  C 241.25 236.1  239.6 237.75  237.5 237.75  " fill-rule="nonzero" fill="#409eff" stroke="none" />
</svg>