<?xml version="1.0" encoding="utf-8"?>
<svg version="1.1" xmlns:xlink="http://www.w3.org/1999/xlink" width="15px" height="15px" viewBox="226 21.5  15 15" xmlns="http://www.w3.org/2000/svg">
  <path d="M 233.5 21.5  C 237.7 21.5  241 24.8  241 29  C 241 33.2  237.7 36.5  233.5 36.5  C 229.3 36.5  226 33.2  226 29  C 226 24.8  229.3 21.5  233.5 21.5  Z " fill-rule="nonzero" fill="#ffffff" stroke="none" />
  <path d="M 233.5 22  C 237.42 22  240.5 25.08  240.5 29  C 240.5 32.92  237.42 36  233.5 36  C 229.58 36  226.5 32.92  226.5 29  C 226.5 25.08  229.58 22  233.5 22  Z " stroke-width="1" stroke="#409eff" fill="none" />
  <path d="M 233.5 32.75  C 231.4 32.75  229.75 31.1  229.75 29  C 229.75 26.9  231.4 25.25  233.5 25.25  C 235.6 25.25  237.25 26.9  237.25 29  C 237.25 31.1  235.6 32.75  233.5 32.75  " fill-rule="nonzero" fill="#409eff" stroke="none" />
</svg>