<?xml version="1.0" encoding="utf-8"?>
<svg version="1.1" xmlns:xlink="http://www.w3.org/1999/xlink" width="15px" height="15px" viewBox="226 67.5  15 15" xmlns="http://www.w3.org/2000/svg">
  <path d="M 233.5 67.5  C 237.7 67.5  241 70.8  241 75  C 241 79.2  237.7 82.5  233.5 82.5  C 229.3 82.5  226 79.2  226 75  C 226 70.8  229.3 67.5  233.5 67.5  Z " fill-rule="nonzero" fill="#ffffff" stroke="none" />
  <path d="M 233.5 68  C 237.42 68  240.5 71.08  240.5 75  C 240.5 78.92  237.42 82  233.5 82  C 229.58 82  226.5 78.92  226.5 75  C 226.5 71.08  229.58 68  233.5 68  Z " stroke-width="1" stroke="#409eff" fill="none" />
  <path d="M 233.5 78.75  C 231.4 78.75  229.75 77.1  229.75 75  C 229.75 72.9  231.4 71.25  233.5 71.25  C 235.6 71.25  237.25 72.9  237.25 75  C 237.25 77.1  235.6 78.75  233.5 78.75  " fill-rule="nonzero" fill="#409eff" stroke="none" />
</svg>