<?xml version="1.0" encoding="utf-8"?>
<svg version="1.1" xmlns:xlink="http://www.w3.org/1999/xlink" width="15px" height="15px" viewBox="363 12.5  15 15" xmlns="http://www.w3.org/2000/svg">
  <path d="M 370.5 12.5  C 374.7 12.5  378 15.8  378 20  C 378 24.2  374.7 27.5  370.5 27.5  C 366.3 27.5  363 24.2  363 20  C 363 15.8  366.3 12.5  370.5 12.5  Z " fill-rule="nonzero" fill="#f2f2f2" stroke="none" />
  <path d="M 370.5 13  C 374.42 13  377.5 16.08  377.5 20  C 377.5 23.92  374.42 27  370.5 27  C 366.58 27  363.5 23.92  363.5 20  C 363.5 16.08  366.58 13  370.5 13  Z " stroke-width="1" stroke="#cccccc" fill="none" />
  <path d="M 370.5 23.75  C 368.4 23.75  366.75 22.1  366.75 20  C 366.75 17.9  368.4 16.25  370.5 16.25  C 372.6 16.25  374.25 17.9  374.25 20  C 374.25 22.1  372.6 23.75  370.5 23.75  " fill-rule="nonzero" fill="#cccccc" stroke="none" />
</svg>