<?xml version="1.0" encoding="utf-8"?>
<svg version="1.1" xmlns:xlink="http://www.w3.org/1999/xlink" width="15px" height="15px" viewBox="753 12.5  15 15" xmlns="http://www.w3.org/2000/svg">
  <path d="M 760.5 12.5  C 764.7 12.5  768 15.8  768 20  C 768 24.2  764.7 27.5  760.5 27.5  C 756.3 27.5  753 24.2  753 20  C 753 15.8  756.3 12.5  760.5 12.5  Z " fill-rule="nonzero" fill="#ffffff" stroke="none" />
  <path d="M 760.5 13  C 764.42 13  767.5 16.08  767.5 20  C 767.5 23.92  764.42 27  760.5 27  C 756.58 27  753.5 23.92  753.5 20  C 753.5 16.08  756.58 13  760.5 13  Z " stroke-width="1" stroke="#409eff" fill="none" />
  <path d="M 760.5 23.75  C 758.4 23.75  756.75 22.1  756.75 20  C 756.75 17.9  758.4 16.25  760.5 16.25  C 762.6 16.25  764.25 17.9  764.25 20  C 764.25 22.1  762.6 23.75  760.5 23.75  " fill-rule="nonzero" fill="#409eff" stroke="none" />
</svg>