<?xml version="1.0" encoding="utf-8"?>
<svg version="1.1" xmlns:xlink="http://www.w3.org/1999/xlink" width="15px" height="15px" viewBox="233 12.5  15 15" xmlns="http://www.w3.org/2000/svg">
  <path d="M 240.5 12.5  C 244.7 12.5  248 15.8  248 20  C 248 24.2  244.7 27.5  240.5 27.5  C 236.3 27.5  233 24.2  233 20  C 233 15.8  236.3 12.5  240.5 12.5  Z " fill-rule="nonzero" fill="#f2f2f2" stroke="none" />
  <path d="M 240.5 13  C 244.42 13  247.5 16.08  247.5 20  C 247.5 23.92  244.42 27  240.5 27  C 236.58 27  233.5 23.92  233.5 20  C 233.5 16.08  236.58 13  240.5 13  Z " stroke-width="1" stroke="#cccccc" fill="none" />
  <path d="M 240.5 23.75  C 238.4 23.75  236.75 22.1  236.75 20  C 236.75 17.9  238.4 16.25  240.5 16.25  C 242.6 16.25  244.25 17.9  244.25 20  C 244.25 22.1  242.6 23.75  240.5 23.75  " fill-rule="nonzero" fill="#cccccc" stroke="none" />
</svg>