<?xml version="1.0" encoding="utf-8"?>
<svg version="1.1" xmlns:xlink="http://www.w3.org/1999/xlink" width="15px" height="15px" viewBox="493 12.5  15 15" xmlns="http://www.w3.org/2000/svg">
  <path d="M 500.5 12.5  C 504.7 12.5  508 15.8  508 20  C 508 24.2  504.7 27.5  500.5 27.5  C 496.3 27.5  493 24.2  493 20  C 493 15.8  496.3 12.5  500.5 12.5  Z " fill-rule="nonzero" fill="#f2f2f2" stroke="none" />
  <path d="M 500.5 13  C 504.42 13  507.5 16.08  507.5 20  C 507.5 23.92  504.42 27  500.5 27  C 496.58 27  493.5 23.92  493.5 20  C 493.5 16.08  496.58 13  500.5 13  Z " stroke-width="1" stroke="#cccccc" fill="none" />
  <path d="M 500.5 23.75  C 498.4 23.75  496.75 22.1  496.75 20  C 496.75 17.9  498.4 16.25  500.5 16.25  C 502.6 16.25  504.25 17.9  504.25 20  C 504.25 22.1  502.6 23.75  500.5 23.75  " fill-rule="nonzero" fill="#cccccc" stroke="none" />
</svg>