<?xml version="1.0" encoding="utf-8"?>
<svg version="1.1" xmlns:xlink="http://www.w3.org/1999/xlink" width="15px" height="15px" viewBox="623 12.5  15 15" xmlns="http://www.w3.org/2000/svg">
  <path d="M 630.5 12.5  C 634.7 12.5  638 15.8  638 20  C 638 24.2  634.7 27.5  630.5 27.5  C 626.3 27.5  623 24.2  623 20  C 623 15.8  626.3 12.5  630.5 12.5  Z " fill-rule="nonzero" fill="#ffffff" stroke="none" />
  <path d="M 630.5 13  C 634.42 13  637.5 16.08  637.5 20  C 637.5 23.92  634.42 27  630.5 27  C 626.58 27  623.5 23.92  623.5 20  C 623.5 16.08  626.58 13  630.5 13  Z " stroke-width="1" stroke="#409eff" fill="none" />
  <path d="M 630.5 23.75  C 628.4 23.75  626.75 22.1  626.75 20  C 626.75 17.9  628.4 16.25  630.5 16.25  C 632.6 16.25  634.25 17.9  634.25 20  C 634.25 22.1  632.6 23.75  630.5 23.75  " fill-rule="nonzero" fill="#409eff" stroke="none" />
</svg>