<?xml version="1.0" encoding="utf-8"?>
<svg version="1.1" xmlns:xlink="http://www.w3.org/1999/xlink" width="15px" height="15px" viewBox="493 83.5  15 15" xmlns="http://www.w3.org/2000/svg">
  <path d="M 500.5 83.5  C 504.7 83.5  508 86.8  508 91  C 508 95.2  504.7 98.5  500.5 98.5  C 496.3 98.5  493 95.2  493 91  C 493 86.8  496.3 83.5  500.5 83.5  Z " fill-rule="nonzero" fill="#ffffff" stroke="none" />
  <path d="M 500.5 84  C 504.42 84  507.5 87.08  507.5 91  C 507.5 94.92  504.42 98  500.5 98  C 496.58 98  493.5 94.92  493.5 91  C 493.5 87.08  496.58 84  500.5 84  Z " stroke-width="1" stroke="#409eff" fill="none" />
  <path d="M 500.5 94.75  C 498.4 94.75  496.75 93.1  496.75 91  C 496.75 88.9  498.4 87.25  500.5 87.25  C 502.6 87.25  504.25 88.9  504.25 91  C 504.25 93.1  502.6 94.75  500.5 94.75  " fill-rule="nonzero" fill="#409eff" stroke="none" />
</svg>