<?xml version="1.0" encoding="utf-8"?>
<svg version="1.1" xmlns:xlink="http://www.w3.org/1999/xlink" width="15px" height="15px" viewBox="233 82.5  15 15" xmlns="http://www.w3.org/2000/svg">
  <path d="M 240.5 82.5  C 244.7 82.5  248 85.8  248 90  C 248 94.2  244.7 97.5  240.5 97.5  C 236.3 97.5  233 94.2  233 90  C 233 85.8  236.3 82.5  240.5 82.5  Z " fill-rule="nonzero" fill="#ffffff" stroke="none" />
  <path d="M 240.5 83  C 244.42 83  247.5 86.08  247.5 90  C 247.5 93.92  244.42 97  240.5 97  C 236.58 97  233.5 93.92  233.5 90  C 233.5 86.08  236.58 83  240.5 83  Z " stroke-width="1" stroke="#409eff" fill="none" />
  <path d="M 240.5 93.75  C 238.4 93.75  236.75 92.1  236.75 90  C 236.75 87.9  238.4 86.25  240.5 86.25  C 242.6 86.25  244.25 87.9  244.25 90  C 244.25 92.1  242.6 93.75  240.5 93.75  " fill-rule="nonzero" fill="#409eff" stroke="none" />
</svg>