<?xml version="1.0" encoding="utf-8"?>
<svg version="1.1" xmlns:xlink="http://www.w3.org/1999/xlink" width="15px" height="15px" viewBox="363 67.5  15 15" xmlns="http://www.w3.org/2000/svg">
  <path d="M 370.5 67.5  C 374.7 67.5  378 70.8  378 75  C 378 79.2  374.7 82.5  370.5 82.5  C 366.3 82.5  363 79.2  363 75  C 363 70.8  366.3 67.5  370.5 67.5  Z " fill-rule="nonzero" fill="#ffffff" stroke="none" />
  <path d="M 370.5 68  C 374.42 68  377.5 71.08  377.5 75  C 377.5 78.92  374.42 82  370.5 82  C 366.58 82  363.5 78.92  363.5 75  C 363.5 71.08  366.58 68  370.5 68  Z " stroke-width="1" stroke="#409eff" fill="none" />
  <path d="M 370.5 78.75  C 368.4 78.75  366.75 77.1  366.75 75  C 366.75 72.9  368.4 71.25  370.5 71.25  C 372.6 71.25  374.25 72.9  374.25 75  C 374.25 77.1  372.6 78.75  370.5 78.75  " fill-rule="nonzero" fill="#409eff" stroke="none" />
</svg>