<?xml version="1.0" encoding="utf-8"?>
<svg version="1.1" xmlns:xlink="http://www.w3.org/1999/xlink" width="15px" height="15px" viewBox="363 24.5  15 15" xmlns="http://www.w3.org/2000/svg">
  <path d="M 370.5 24.5  C 374.7 24.5  378 27.8  378 32  C 378 36.2  374.7 39.5  370.5 39.5  C 366.3 39.5  363 36.2  363 32  C 363 27.8  366.3 24.5  370.5 24.5  Z " fill-rule="nonzero" fill="#f2f2f2" stroke="none" />
  <path d="M 370.5 25  C 374.42 25  377.5 28.08  377.5 32  C 377.5 35.92  374.42 39  370.5 39  C 366.58 39  363.5 35.92  363.5 32  C 363.5 28.08  366.58 25  370.5 25  Z " stroke-width="1" stroke="#cccccc" fill="none" />
  <path d="M 370.5 35.75  C 368.4 35.75  366.75 34.1  366.75 32  C 366.75 29.9  368.4 28.25  370.5 28.25  C 372.6 28.25  374.25 29.9  374.25 32  C 374.25 34.1  372.6 35.75  370.5 35.75  " fill-rule="nonzero" fill="#cccccc" stroke="none" />
</svg>