<?xml version="1.0" encoding="utf-8"?>
<svg version="1.1" xmlns:xlink="http://www.w3.org/1999/xlink" width="15px" height="15px" viewBox="493 68.5  15 15" xmlns="http://www.w3.org/2000/svg">
  <path d="M 500.5 68.5  C 504.7 68.5  508 71.8  508 76  C 508 80.2  504.7 83.5  500.5 83.5  C 496.3 83.5  493 80.2  493 76  C 493 71.8  496.3 68.5  500.5 68.5  Z " fill-rule="nonzero" fill="#ffffff" stroke="none" />
  <path d="M 500.5 69  C 504.42 69  507.5 72.08  507.5 76  C 507.5 79.92  504.42 83  500.5 83  C 496.58 83  493.5 79.92  493.5 76  C 493.5 72.08  496.58 69  500.5 69  Z " stroke-width="1" stroke="#409eff" fill="none" />
  <path d="M 500.5 79.75  C 498.4 79.75  496.75 78.1  496.75 76  C 496.75 73.9  498.4 72.25  500.5 72.25  C 502.6 72.25  504.25 73.9  504.25 76  C 504.25 78.1  502.6 79.75  500.5 79.75  " fill-rule="nonzero" fill="#409eff" stroke="none" />
</svg>