<?xml version="1.0" encoding="utf-8"?>
<svg version="1.1" xmlns:xlink="http://www.w3.org/1999/xlink" width="15px" height="15px" viewBox="753 67.5  15 15" xmlns="http://www.w3.org/2000/svg">
  <path d="M 760.5 67.5  C 764.7 67.5  768 70.8  768 75  C 768 79.2  764.7 82.5  760.5 82.5  C 756.3 82.5  753 79.2  753 75  C 753 70.8  756.3 67.5  760.5 67.5  Z " fill-rule="nonzero" fill="#f2f2f2" stroke="none" />
  <path d="M 760.5 68  C 764.42 68  767.5 71.08  767.5 75  C 767.5 78.92  764.42 82  760.5 82  C 756.58 82  753.5 78.92  753.5 75  C 753.5 71.08  756.58 68  760.5 68  Z " stroke-width="1" stroke="#cccccc" fill="none" />
  <path d="M 760.5 78.75  C 758.4 78.75  756.75 77.1  756.75 75  C 756.75 72.9  758.4 71.25  760.5 71.25  C 762.6 71.25  764.25 72.9  764.25 75  C 764.25 77.1  762.6 78.75  760.5 78.75  " fill-rule="nonzero" fill="#cccccc" stroke="none" />
</svg>