<?xml version="1.0" encoding="utf-8"?>
<svg version="1.1" xmlns:xlink="http://www.w3.org/1999/xlink" width="15px" height="15px" viewBox="623 67.5  15 15" xmlns="http://www.w3.org/2000/svg">
  <path d="M 630.5 67.5  C 634.7 67.5  638 70.8  638 75  C 638 79.2  634.7 82.5  630.5 82.5  C 626.3 82.5  623 79.2  623 75  C 623 70.8  626.3 67.5  630.5 67.5  Z " fill-rule="nonzero" fill="#f2f2f2" stroke="none" />
  <path d="M 630.5 68  C 634.42 68  637.5 71.08  637.5 75  C 637.5 78.92  634.42 82  630.5 82  C 626.58 82  623.5 78.92  623.5 75  C 623.5 71.08  626.58 68  630.5 68  Z " stroke-width="1" stroke="#cccccc" fill="none" />
  <path d="M 630.5 78.75  C 628.4 78.75  626.75 77.1  626.75 75  C 626.75 72.9  628.4 71.25  630.5 71.25  C 632.6 71.25  634.25 72.9  634.25 75  C 634.25 77.1  632.6 78.75  630.5 78.75  " fill-rule="nonzero" fill="#cccccc" stroke="none" />
</svg>