<?xml version="1.0" encoding="utf-8"?>
<svg version="1.1" xmlns:xlink="http://www.w3.org/1999/xlink" width="15px" height="15px" viewBox="226 24.5  15 15" xmlns="http://www.w3.org/2000/svg">
  <path d="M 233.5 24.5  C 237.7 24.5  241 27.8  241 32  C 241 36.2  237.7 39.5  233.5 39.5  C 229.3 39.5  226 36.2  226 32  C 226 27.8  229.3 24.5  233.5 24.5  Z " fill-rule="nonzero" fill="#ffffff" stroke="none" />
  <path d="M 233.5 25  C 237.42 25  240.5 28.08  240.5 32  C 240.5 35.92  237.42 39  233.5 39  C 229.58 39  226.5 35.92  226.5 32  C 226.5 28.08  229.58 25  233.5 25  Z " stroke-width="1" stroke="#409eff" fill="none" />
  <path d="M 233.5 35.75  C 231.4 35.75  229.75 34.1  229.75 32  C 229.75 29.9  231.4 28.25  233.5 28.25  C 235.6 28.25  237.25 29.9  237.25 32  C 237.25 34.1  235.6 35.75  233.5 35.75  " fill-rule="nonzero" fill="#409eff" stroke="none" />
</svg>