<?xml version="1.0" encoding="utf-8"?>
<svg version="1.1" xmlns:xlink="http://www.w3.org/1999/xlink" width="15px" height="15px" viewBox="356 24.5  15 15" xmlns="http://www.w3.org/2000/svg">
  <path d="M 363.5 24.5  C 367.7 24.5  371 27.8  371 32  C 371 36.2  367.7 39.5  363.5 39.5  C 359.3 39.5  356 36.2  356 32  C 356 27.8  359.3 24.5  363.5 24.5  Z " fill-rule="nonzero" fill="#f2f2f2" stroke="none" />
  <path d="M 363.5 25  C 367.42 25  370.5 28.08  370.5 32  C 370.5 35.92  367.42 39  363.5 39  C 359.58 39  356.5 35.92  356.5 32  C 356.5 28.08  359.58 25  363.5 25  Z " stroke-width="1" stroke="#cccccc" fill="none" />
  <path d="M 363.5 35.75  C 361.4 35.75  359.75 34.1  359.75 32  C 359.75 29.9  361.4 28.25  363.5 28.25  C 365.6 28.25  367.25 29.9  367.25 32  C 367.25 34.1  365.6 35.75  363.5 35.75  " fill-rule="nonzero" fill="#cccccc" stroke="none" />
</svg>