<?xml version="1.0" encoding="utf-8"?>
<svg version="1.1" xmlns:xlink="http://www.w3.org/1999/xlink" width="15px" height="15px" viewBox="490 226.5  15 15" xmlns="http://www.w3.org/2000/svg">
  <path d="M 497.5 226.5  C 501.7 226.5  505 229.8  505 234  C 505 238.2  501.7 241.5  497.5 241.5  C 493.3 241.5  490 238.2  490 234  C 490 229.8  493.3 226.5  497.5 226.5  Z " fill-rule="nonzero" fill="#f2f2f2" stroke="none" />
  <path d="M 497.5 227  C 501.42 227  504.5 230.08  504.5 234  C 504.5 237.92  501.42 241  497.5 241  C 493.58 241  490.5 237.92  490.5 234  C 490.5 230.08  493.58 227  497.5 227  Z " stroke-width="1" stroke="#cccccc" fill="none" />
  <path d="M 497.5 237.75  C 495.4 237.75  493.75 236.1  493.75 234  C 493.75 231.9  495.4 230.25  497.5 230.25  C 499.6 230.25  501.25 231.9  501.25 234  C 501.25 236.1  499.6 237.75  497.5 237.75  " fill-rule="nonzero" fill="#cccccc" stroke="none" />
</svg>