<?xml version="1.0" encoding="utf-8"?>
<svg version="1.1" xmlns:xlink="http://www.w3.org/1999/xlink" width="15px" height="15px" viewBox="488 77.5  15 15" xmlns="http://www.w3.org/2000/svg">
  <path d="M 495.5 77.5  C 499.7 77.5  503 80.8  503 85  C 503 89.2  499.7 92.5  495.5 92.5  C 491.3 92.5  488 89.2  488 85  C 488 80.8  491.3 77.5  495.5 77.5  Z " fill-rule="nonzero" fill="#f2f2f2" stroke="none" />
  <path d="M 495.5 78  C 499.42 78  502.5 81.08  502.5 85  C 502.5 88.92  499.42 92  495.5 92  C 491.58 92  488.5 88.92  488.5 85  C 488.5 81.08  491.58 78  495.5 78  Z " stroke-width="1" stroke="#cccccc" fill="none" />
  <path d="M 495.5 88.75  C 493.4 88.75  491.75 87.1  491.75 85  C 491.75 82.9  493.4 81.25  495.5 81.25  C 497.6 81.25  499.25 82.9  499.25 85  C 499.25 87.1  497.6 88.75  495.5 88.75  " fill-rule="nonzero" fill="#cccccc" stroke="none" />
</svg>