<?xml version="1.0" encoding="utf-8"?>
<svg version="1.1" xmlns:xlink="http://www.w3.org/1999/xlink" width="15px" height="15px" viewBox="228 76.5  15 15" xmlns="http://www.w3.org/2000/svg">
  <path d="M 235.5 76.5  C 239.7 76.5  243 79.8  243 84  C 243 88.2  239.7 91.5  235.5 91.5  C 231.3 91.5  228 88.2  228 84  C 228 79.8  231.3 76.5  235.5 76.5  Z " fill-rule="nonzero" fill="#ffffff" stroke="none" />
  <path d="M 235.5 77  C 239.42 77  242.5 80.08  242.5 84  C 242.5 87.92  239.42 91  235.5 91  C 231.58 91  228.5 87.92  228.5 84  C 228.5 80.08  231.58 77  235.5 77  Z " stroke-width="1" stroke="#409eff" fill="none" />
  <path d="M 235.5 87.75  C 233.4 87.75  231.75 86.1  231.75 84  C 231.75 81.9  233.4 80.25  235.5 80.25  C 237.6 80.25  239.25 81.9  239.25 84  C 239.25 86.1  237.6 87.75  235.5 87.75  " fill-rule="nonzero" fill="#409eff" stroke="none" />
</svg>