<?xml version="1.0" encoding="utf-8"?>
<svg version="1.1" xmlns:xlink="http://www.w3.org/1999/xlink" width="15px" height="15px" viewBox="226 13.5  15 15" xmlns="http://www.w3.org/2000/svg">
  <path d="M 233.5 13.5  C 237.7 13.5  241 16.8  241 21  C 241 25.2  237.7 28.5  233.5 28.5  C 229.3 28.5  226 25.2  226 21  C 226 16.8  229.3 13.5  233.5 13.5  Z " fill-rule="nonzero" fill="#ffffff" stroke="none" />
  <path d="M 233.5 14  C 237.42 14  240.5 17.08  240.5 21  C 240.5 24.92  237.42 28  233.5 28  C 229.58 28  226.5 24.92  226.5 21  C 226.5 17.08  229.58 14  233.5 14  Z " stroke-width="1" stroke="#409eff" fill="none" />
  <path d="M 233.5 24.75  C 231.4 24.75  229.75 23.1  229.75 21  C 229.75 18.9  231.4 17.25  233.5 17.25  C 235.6 17.25  237.25 18.9  237.25 21  C 237.25 23.1  235.6 24.75  233.5 24.75  " fill-rule="nonzero" fill="#409eff" stroke="none" />
</svg>