<?xml version="1.0" encoding="utf-8"?>
<svg version="1.1" xmlns:xlink="http://www.w3.org/1999/xlink" width="15px" height="15px" viewBox="356 13.5  15 15" xmlns="http://www.w3.org/2000/svg">
  <path d="M 363.5 13.5  C 367.7 13.5  371 16.8  371 21  C 371 25.2  367.7 28.5  363.5 28.5  C 359.3 28.5  356 25.2  356 21  C 356 16.8  359.3 13.5  363.5 13.5  Z " fill-rule="nonzero" fill="#ffffff" stroke="none" />
  <path d="M 363.5 14  C 367.42 14  370.5 17.08  370.5 21  C 370.5 24.92  367.42 28  363.5 28  C 359.58 28  356.5 24.92  356.5 21  C 356.5 17.08  359.58 14  363.5 14  Z " stroke-width="1" stroke="#409eff" fill="none" />
  <path d="M 363.5 24.75  C 361.4 24.75  359.75 23.1  359.75 21  C 359.75 18.9  361.4 17.25  363.5 17.25  C 365.6 17.25  367.25 18.9  367.25 21  C 367.25 23.1  365.6 24.75  363.5 24.75  " fill-rule="nonzero" fill="#409eff" stroke="none" />
</svg>