<?xml version="1.0" encoding="utf-8"?>
<svg version="1.1" xmlns:xlink="http://www.w3.org/1999/xlink" width="15px" height="15px" viewBox="226 53.5  15 15" xmlns="http://www.w3.org/2000/svg">
  <path d="M 233.5 53.5  C 237.7 53.5  241 56.8  241 61  C 241 65.2  237.7 68.5  233.5 68.5  C 229.3 68.5  226 65.2  226 61  C 226 56.8  229.3 53.5  233.5 53.5  Z " fill-rule="nonzero" fill="#f2f2f2" stroke="none" />
  <path d="M 233.5 54  C 237.42 54  240.5 57.08  240.5 61  C 240.5 64.92  237.42 68  233.5 68  C 229.58 68  226.5 64.92  226.5 61  C 226.5 57.08  229.58 54  233.5 54  Z " stroke-width="1" stroke="#cccccc" fill="none" />
  <path d="M 233.5 64.75  C 231.4 64.75  229.75 63.1  229.75 61  C 229.75 58.9  231.4 57.25  233.5 57.25  C 235.6 57.25  237.25 58.9  237.25 61  C 237.25 63.1  235.6 64.75  233.5 64.75  " fill-rule="nonzero" fill="#cccccc" stroke="none" />
</svg>