<?xml version="1.0" encoding="utf-8"?>
<svg version="1.1" xmlns:xlink="http://www.w3.org/1999/xlink" width="15px" height="15px" viewBox="359 53.5  15 15" xmlns="http://www.w3.org/2000/svg">
  <path d="M 366.5 53.5  C 370.7 53.5  374 56.8  374 61  C 374 65.2  370.7 68.5  366.5 68.5  C 362.3 68.5  359 65.2  359 61  C 359 56.8  362.3 53.5  366.5 53.5  Z " fill-rule="nonzero" fill="#ffffff" stroke="none" />
  <path d="M 366.5 54  C 370.42 54  373.5 57.08  373.5 61  C 373.5 64.92  370.42 68  366.5 68  C 362.58 68  359.5 64.92  359.5 61  C 359.5 57.08  362.58 54  366.5 54  Z " stroke-width="1" stroke="#409eff" fill="none" />
  <path d="M 366.5 64.75  C 364.4 64.75  362.75 63.1  362.75 61  C 362.75 58.9  364.4 57.25  366.5 57.25  C 368.6 57.25  370.25 58.9  370.25 61  C 370.25 63.1  368.6 64.75  366.5 64.75  " fill-rule="nonzero" fill="#409eff" stroke="none" />
</svg>