<?xml version="1.0" encoding="utf-8"?>
<svg version="1.1" xmlns:xlink="http://www.w3.org/1999/xlink" width="15px" height="15px" viewBox="486 53.5  15 15" xmlns="http://www.w3.org/2000/svg">
  <path d="M 493.5 53.5  C 497.7 53.5  501 56.8  501 61  C 501 65.2  497.7 68.5  493.5 68.5  C 489.3 68.5  486 65.2  486 61  C 486 56.8  489.3 53.5  493.5 53.5  Z " fill-rule="nonzero" fill="#ffffff" stroke="none" />
  <path d="M 493.5 54  C 497.42 54  500.5 57.08  500.5 61  C 500.5 64.92  497.42 68  493.5 68  C 489.58 68  486.5 64.92  486.5 61  C 486.5 57.08  489.58 54  493.5 54  Z " stroke-width="1" stroke="#409eff" fill="none" />
  <path d="M 493.5 64.75  C 491.4 64.75  489.75 63.1  489.75 61  C 489.75 58.9  491.4 57.25  493.5 57.25  C 495.6 57.25  497.25 58.9  497.25 61  C 497.25 63.1  495.6 64.75  493.5 64.75  " fill-rule="nonzero" fill="#409eff" stroke="none" />
</svg>