<?xml version="1.0" encoding="utf-8"?>
<svg version="1.1" xmlns:xlink="http://www.w3.org/1999/xlink" width="15px" height="15px" viewBox="369 53.5  15 15" xmlns="http://www.w3.org/2000/svg">
  <path d="M 376.5 53.5  C 380.7 53.5  384 56.8  384 61  C 384 65.2  380.7 68.5  376.5 68.5  C 372.3 68.5  369 65.2  369 61  C 369 56.8  372.3 53.5  376.5 53.5  Z " fill-rule="nonzero" fill="#ffffff" stroke="none" />
  <path d="M 376.5 54  C 380.42 54  383.5 57.08  383.5 61  C 383.5 64.92  380.42 68  376.5 68  C 372.58 68  369.5 64.92  369.5 61  C 369.5 57.08  372.58 54  376.5 54  Z " stroke-width="1" stroke="#409eff" fill="none" />
  <path d="M 376.5 64.75  C 374.4 64.75  372.75 63.1  372.75 61  C 372.75 58.9  374.4 57.25  376.5 57.25  C 378.6 57.25  380.25 58.9  380.25 61  C 380.25 63.1  378.6 64.75  376.5 64.75  " fill-rule="nonzero" fill="#409eff" stroke="none" />
</svg>