<?xml version="1.0" encoding="utf-8"?>
<svg version="1.1" xmlns:xlink="http://www.w3.org/1999/xlink" width="25px" height="25px" xmlns="http://www.w3.org/2000/svg">
  <g transform="matrix(1 0 0 1 -777 -88 )">
    <path d="M 6.2255859375 1.67643229166667  C 8.14073350694444 0.558810763888887  10.2322048611111 0  12.5 0  C 14.7677951388889 0  16.8592664930556 0.558810763888887  18.7744140625 1.67643229166667  C 20.6895616319444 2.79405381944444  22.2059461805556 4.31043836805556  23.3235677083333 6.2255859375  C 24.4411892361111 8.14073350694444  25 10.2322048611111  25 12.5  C 25 14.7677951388889  24.4411892361111 16.8592664930556  23.3235677083333 18.7744140625  C 22.2059461805556 20.6895616319444  20.6895616319444 22.2059461805556  18.7744140625 23.3235677083333  C 16.8592664930556 24.4411892361111  14.7677951388889 25  12.5 25  C 10.2322048611111 25  8.14073350694444 24.4411892361111  6.2255859375 23.3235677083333  C 4.31043836805556 22.2059461805556  2.79405381944444 20.6895616319444  1.67643229166667 18.7744140625  C 0.558810763888889 16.8592664930556  0 14.7677951388889  0 12.5  C 0 10.2322048611111  0.558810763888889 8.14073350694444  1.67643229166667 6.2255859375  C 2.79405381944444 4.31043836805556  4.31043836805556 2.79405381944444  6.2255859375 1.67643229166667  Z M 14.4368489583333 20.6787109375  C 14.5345052083333 20.5756293402778  14.5833333333333 20.4481336805556  14.5833333333333 20.2962239583333  L 14.5833333333333 17.2037760416667  C 14.5833333333333 17.0518663194444  14.5345052083333 16.9243706597222  14.4368489583333 16.8212890625  C 14.3391927083333 16.7182074652778  14.2198350694444 16.6666666666667  14.0787760416667 16.6666666666667  L 10.9537760416667 16.6666666666667  C 10.8127170138889 16.6666666666667  10.6879340277778 16.7209201388889  10.5794270833333 16.8294270833333  C 10.4709201388889 16.9379340277778  10.4166666666667 17.0627170138889  10.4166666666667 17.2037760416667  L 10.4166666666667 20.2962239583333  C 10.4166666666667 20.4372829861111  10.4709201388889 20.5620659722222  10.5794270833333 20.6705729166667  C 10.6879340277778 20.7790798611111  10.8127170138889 20.8333333333333  10.9537760416667 20.8333333333333  L 14.0787760416667 20.8333333333333  C 14.2198350694444 20.8333333333333  14.3391927083333 20.7817925347222  14.4368489583333 20.6787109375  Z M 14.3798828125 14.9820963541667  C 14.4829644097222 14.9007161458333  14.5399305555556 14.8057725694444  14.55078125 14.697265625  L 14.84375 4.58984375  C 14.84375 4.45963541666667  14.7894965277778 4.36197916666667  14.6809895833333 4.296875  C 14.5724826388889 4.21006944444444  14.4422743055556 4.16666666666667  14.2903645833333 4.16666666666667  L 10.7096354166667 4.16666666666667  C 10.5577256944444 4.16666666666667  10.4275173611111 4.21006944444444  10.3190104166667 4.296875  C 10.2105034722222 4.36197916666667  10.15625 4.45963541666667  10.15625 4.58984375  L 10.4329427083333 14.697265625  C 10.4329427083333 14.8057725694444  10.4871961805556 14.9007161458333  10.595703125 14.9820963541667  C 10.7042100694444 15.0634765625  10.8344184027778 15.1041666666667  10.986328125 15.1041666666667  L 13.9973958333333 15.1041666666667  C 14.1493055555556 15.1041666666667  14.2768012152778 15.0634765625  14.3798828125 14.9820963541667  Z " fill-rule="nonzero" fill="#d9001b" stroke="none" transform="matrix(1 0 0 1 777 88 )" />
  </g>
</svg>