<?xml version="1.0" encoding="utf-8"?>
<svg version="1.1" xmlns:xlink="http://www.w3.org/1999/xlink" width="15px" height="15px" viewBox="226 14.5  15 15" xmlns="http://www.w3.org/2000/svg">
  <path d="M 233.5 14.5  C 237.7 14.5  241 17.8  241 22  C 241 26.2  237.7 29.5  233.5 29.5  C 229.3 29.5  226 26.2  226 22  C 226 17.8  229.3 14.5  233.5 14.5  Z " fill-rule="nonzero" fill="#ffffff" stroke="none" />
  <path d="M 233.5 15  C 237.42 15  240.5 18.08  240.5 22  C 240.5 25.92  237.42 29  233.5 29  C 229.58 29  226.5 25.92  226.5 22  C 226.5 18.08  229.58 15  233.5 15  Z " stroke-width="1" stroke="#409eff" fill="none" />
  <path d="M 233.5 25.75  C 231.4 25.75  229.75 24.1  229.75 22  C 229.75 19.9  231.4 18.25  233.5 18.25  C 235.6 18.25  237.25 19.9  237.25 22  C 237.25 24.1  235.6 25.75  233.5 25.75  " fill-rule="nonzero" fill="#409eff" stroke="none" />
</svg>