<?xml version="1.0" encoding="utf-8"?>
<svg version="1.1" xmlns:xlink="http://www.w3.org/1999/xlink" width="15px" height="15px" viewBox="356 14.5  15 15" xmlns="http://www.w3.org/2000/svg">
  <path d="M 363.5 14.5  C 367.7 14.5  371 17.8  371 22  C 371 26.2  367.7 29.5  363.5 29.5  C 359.3 29.5  356 26.2  356 22  C 356 17.8  359.3 14.5  363.5 14.5  Z " fill-rule="nonzero" fill="#f2f2f2" stroke="none" />
  <path d="M 363.5 15  C 367.42 15  370.5 18.08  370.5 22  C 370.5 25.92  367.42 29  363.5 29  C 359.58 29  356.5 25.92  356.5 22  C 356.5 18.08  359.58 15  363.5 15  Z " stroke-width="1" stroke="#cccccc" fill="none" />
  <path d="M 363.5 25.75  C 361.4 25.75  359.75 24.1  359.75 22  C 359.75 19.9  361.4 18.25  363.5 18.25  C 365.6 18.25  367.25 19.9  367.25 22  C 367.25 24.1  365.6 25.75  363.5 25.75  " fill-rule="nonzero" fill="#cccccc" stroke="none" />
</svg>