<?xml version="1.0" encoding="utf-8"?>
<svg version="1.1" xmlns:xlink="http://www.w3.org/1999/xlink" width="15px" height="15px" viewBox="226 55.5  15 15" xmlns="http://www.w3.org/2000/svg">
  <path d="M 233.5 55.5  C 237.7 55.5  241 58.8  241 63  C 241 67.2  237.7 70.5  233.5 70.5  C 229.3 70.5  226 67.2  226 63  C 226 58.8  229.3 55.5  233.5 55.5  Z " fill-rule="nonzero" fill="#ffffff" stroke="none" />
  <path d="M 233.5 56  C 237.42 56  240.5 59.08  240.5 63  C 240.5 66.92  237.42 70  233.5 70  C 229.58 70  226.5 66.92  226.5 63  C 226.5 59.08  229.58 56  233.5 56  Z " stroke-width="1" stroke="#409eff" fill="none" />
  <path d="M 233.5 66.75  C 231.4 66.75  229.75 65.1  229.75 63  C 229.75 60.9  231.4 59.25  233.5 59.25  C 235.6 59.25  237.25 60.9  237.25 63  C 237.25 65.1  235.6 66.75  233.5 66.75  " fill-rule="nonzero" fill="#409eff" stroke="none" />
</svg>