<?xml version="1.0" encoding="utf-8"?>
<svg version="1.1" xmlns:xlink="http://www.w3.org/1999/xlink" width="11px" height="5px" xmlns="http://www.w3.org/2000/svg">
  <g transform="matrix(1 0 0 1 -465 -1232 )">
    <path d="M 10.7021951219512 0.0595528455284011  L 10.8921463414634 0.20325203252033  C 10.9968829590649 0.282621921033789  10.9968829590649 0.411280517990728  10.8921463414634 0.490650406504187  L 5.67519512195122 4.44308943089425  C 5.62487193101058 4.48125549655098  5.55658540802658 4.50270053992199  5.48537804878047 4.50270053992199  C 5.41417068953442 4.50270053992199  5.34588416655036 4.48125549655098  5.29556097560975 4.44308943089425  L 0.0786097560975833 0.490650406504187  C -0.026126861503937 0.411280517990728  -0.026126861503937 0.282621921033789  0.0786097560975833 0.20325203252033  L 0.268292682926835 0.0595528455284011  C 0.373060935764477 -0.0197930768968035  0.54289028374773 -0.0197930768968035  0.647658536585371 0.0595528455284011  L 5.48524390243901 3.72439024390246  L 10.3230975609756 0.0595528455284011  C 10.4278658138133 -0.0197930768968035  10.5976951617965 -0.0197930768968035  10.7024634146341 0.0595528455284011  Z " fill-rule="nonzero" fill="#909399" stroke="none" fill-opacity="0.647058823529412" transform="matrix(1 0 0 1 465 1232 )" />
  </g>
</svg>