<?xml version="1.0" encoding="utf-8"?>
<svg version="1.1" xmlns:xlink="http://www.w3.org/1999/xlink" width="9px" height="3px" xmlns="http://www.w3.org/2000/svg">
  <g transform="matrix(1 0 0 1 -277 -123 )">
    <path d="M 8.75634146341465 0.0357317073170407  L 8.91175609756098 0.121951219512198  C 8.99744969378041 0.169573152620274  8.99744969378041 0.246768310794437  8.91175609756098 0.294390243902512  L 4.64334146341463 2.66585365853655  C 4.60216794355411 2.68875329793059  4.54629715202175 2.70162032395319  4.48803658536584 2.70162032395319  C 4.42977601870998 2.70162032395319  4.37390522717757 2.68875329793059  4.33273170731707 2.66585365853655  L 0.06431707317075 0.294390243902512  C -0.0213765230486757 0.246768310794437  -0.0213765230486757 0.169573152620274  0.06431707317075 0.121951219512198  L 0.219512195121956 0.0357317073170407  C 0.30523167471639 -0.0118758461380821  0.444182959429961 -0.0118758461380821  0.529902439024394 0.0357317073170407  L 4.48792682926828 2.23463414634148  L 8.44617073170734 0.0357317073170407  C 8.53189021130177 -0.0118758461380821  8.67084149601531 -0.0118758461380821  8.75656097560975 0.0357317073170407  Z " fill-rule="nonzero" fill="#909399" stroke="none" fill-opacity="0.647058823529412" transform="matrix(1 0 0 1 277 123 )" />
  </g>
</svg>