<?xml version="1.0" encoding="utf-8"?>
<svg version="1.1" xmlns:xlink="http://www.w3.org/1999/xlink" width="9px" height="5px" xmlns="http://www.w3.org/2000/svg">
  <g transform="matrix(1 0 0 1 -203 -75 )">
    <path d="M 8.75634146341465 0.0595528455284011  L 8.91175609756098 0.20325203252033  C 8.99744969378041 0.282621921033789  8.99744969378041 0.411280517990728  8.91175609756098 0.490650406504187  L 4.64334146341463 4.44308943089425  C 4.60216794355411 4.48125549655098  4.54629715202175 4.50270053992199  4.48803658536584 4.50270053992199  C 4.42977601870998 4.50270053992199  4.37390522717757 4.48125549655098  4.33273170731707 4.44308943089425  L 0.06431707317075 0.490650406504187  C -0.0213765230486757 0.411280517990728  -0.0213765230486757 0.282621921033789  0.06431707317075 0.20325203252033  L 0.219512195121956 0.0595528455284011  C 0.30523167471639 -0.0197930768968035  0.444182959429961 -0.0197930768968035  0.529902439024394 0.0595528455284011  L 4.48792682926828 3.72439024390246  L 8.44617073170734 0.0595528455284011  C 8.53189021130177 -0.0197930768968035  8.67084149601531 -0.0197930768968035  8.75656097560975 0.0595528455284011  Z " fill-rule="nonzero" fill="#909399" stroke="none" fill-opacity="0.647058823529412" transform="matrix(1 0 0 1 203 75 )" />
  </g>
</svg>