<?xml version="1.0" encoding="utf-8"?>
<svg version="1.1" xmlns:xlink="http://www.w3.org/1999/xlink" width="15px" height="15px" viewBox="317 331.5  15 15" xmlns="http://www.w3.org/2000/svg">
  <path d="M 324.5 331.5  C 328.7 331.5  332 334.8  332 339  C 332 343.2  328.7 346.5  324.5 346.5  C 320.3 346.5  317 343.2  317 339  C 317 334.8  320.3 331.5  324.5 331.5  Z " fill-rule="nonzero" fill="#ffffff" stroke="none" />
  <path d="M 324.5 332  C 328.42 332  331.5 335.08  331.5 339  C 331.5 342.92  328.42 346  324.5 346  C 320.58 346  317.5 342.92  317.5 339  C 317.5 335.08  320.58 332  324.5 332  Z " stroke-width="1" stroke="#409eff" fill="none" />
  <path d="M 324.5 342.75  C 322.4 342.75  320.75 341.1  320.75 339  C 320.75 336.9  322.4 335.25  324.5 335.25  C 326.6 335.25  328.25 336.9  328.25 339  C 328.25 341.1  326.6 342.75  324.5 342.75  " fill-rule="nonzero" fill="#409eff" stroke="none" />
</svg>