<?xml version="1.0" encoding="utf-8"?>
<svg version="1.1" xmlns:xlink="http://www.w3.org/1999/xlink" width="15px" height="15px" viewBox="436 248.5  15 15" xmlns="http://www.w3.org/2000/svg">
  <path d="M 443.5 248.5  C 447.7 248.5  451 251.8  451 256  C 451 260.2  447.7 263.5  443.5 263.5  C 439.3 263.5  436 260.2  436 256  C 436 251.8  439.3 248.5  443.5 248.5  Z " fill-rule="nonzero" fill="#ffffff" stroke="none" />
  <path d="M 443.5 249  C 447.42 249  450.5 252.08  450.5 256  C 450.5 259.92  447.42 263  443.5 263  C 439.58 263  436.5 259.92  436.5 256  C 436.5 252.08  439.58 249  443.5 249  Z " stroke-width="1" stroke="#409eff" fill="none" />
  <path d="M 443.5 259.75  C 441.4 259.75  439.75 258.1  439.75 256  C 439.75 253.9  441.4 252.25  443.5 252.25  C 445.6 252.25  447.25 253.9  447.25 256  C 447.25 258.1  445.6 259.75  443.5 259.75  " fill-rule="nonzero" fill="#409eff" stroke="none" />
</svg>