<?xml version="1.0" encoding="utf-8"?>
<svg version="1.1" xmlns:xlink="http://www.w3.org/1999/xlink" width="15px" height="15px" viewBox="329 348.5  15 15" xmlns="http://www.w3.org/2000/svg">
  <path d="M 336.5 348.5  C 340.7 348.5  344 351.8  344 356  C 344 360.2  340.7 363.5  336.5 363.5  C 332.3 363.5  329 360.2  329 356  C 329 351.8  332.3 348.5  336.5 348.5  Z " fill-rule="nonzero" fill="#ffffff" stroke="none" />
  <path d="M 336.5 349  C 340.42 349  343.5 352.08  343.5 356  C 343.5 359.92  340.42 363  336.5 363  C 332.58 363  329.5 359.92  329.5 356  C 329.5 352.08  332.58 349  336.5 349  Z " stroke-width="1" stroke="#409eff" fill="none" />
  <path d="M 336.5 359.75  C 334.4 359.75  332.75 358.1  332.75 356  C 332.75 353.9  334.4 352.25  336.5 352.25  C 338.6 352.25  340.25 353.9  340.25 356  C 340.25 358.1  338.6 359.75  336.5 359.75  " fill-rule="nonzero" fill="#409eff" stroke="none" />
</svg>