<?xml version="1.0" encoding="utf-8"?>
<svg version="1.1" xmlns:xlink="http://www.w3.org/1999/xlink" width="15px" height="15px" viewBox="217 84.5  15 15" xmlns="http://www.w3.org/2000/svg">
  <path d="M 224.5 84.5  C 228.7 84.5  232 87.8  232 92  C 232 96.2  228.7 99.5  224.5 99.5  C 220.3 99.5  217 96.2  217 92  C 217 87.8  220.3 84.5  224.5 84.5  Z " fill-rule="nonzero" fill="#f2f2f2" stroke="none" />
  <path d="M 224.5 85  C 228.42 85  231.5 88.08  231.5 92  C 231.5 95.92  228.42 99  224.5 99  C 220.58 99  217.5 95.92  217.5 92  C 217.5 88.08  220.58 85  224.5 85  Z " stroke-width="1" stroke="#cccccc" fill="none" />
  <path d="M 224.5 95.75  C 222.4 95.75  220.75 94.1  220.75 92  C 220.75 89.9  222.4 88.25  224.5 88.25  C 226.6 88.25  228.25 89.9  228.25 92  C 228.25 94.1  226.6 95.75  224.5 95.75  " fill-rule="nonzero" fill="#cccccc" stroke="none" />
</svg>