<?xml version="1.0" encoding="utf-8"?>
<svg version="1.1" xmlns:xlink="http://www.w3.org/1999/xlink" width="15px" height="15px" viewBox="324 348.5  15 15" xmlns="http://www.w3.org/2000/svg">
  <path d="M 331.5 348.5  C 335.7 348.5  339 351.8  339 356  C 339 360.2  335.7 363.5  331.5 363.5  C 327.3 363.5  324 360.2  324 356  C 324 351.8  327.3 348.5  331.5 348.5  Z " fill-rule="nonzero" fill="#ffffff" stroke="none" />
  <path d="M 331.5 349  C 335.42 349  338.5 352.08  338.5 356  C 338.5 359.92  335.42 363  331.5 363  C 327.58 363  324.5 359.92  324.5 356  C 324.5 352.08  327.58 349  331.5 349  Z " stroke-width="1" stroke="#409eff" fill="none" />
  <path d="M 331.5 359.75  C 329.4 359.75  327.75 358.1  327.75 356  C 327.75 353.9  329.4 352.25  331.5 352.25  C 333.6 352.25  335.25 353.9  335.25 356  C 335.25 358.1  333.6 359.75  331.5 359.75  " fill-rule="nonzero" fill="#409eff" stroke="none" />
</svg>