<?xml version="1.0" encoding="utf-8"?>
<svg version="1.1" xmlns:xlink="http://www.w3.org/1999/xlink" width="15px" height="15px" viewBox="329 308.5  15 15" xmlns="http://www.w3.org/2000/svg">
  <path d="M 336.5 308.5  C 340.7 308.5  344 311.8  344 316  C 344 320.2  340.7 323.5  336.5 323.5  C 332.3 323.5  329 320.2  329 316  C 329 311.8  332.3 308.5  336.5 308.5  Z " fill-rule="nonzero" fill="#ffffff" stroke="none" />
  <path d="M 336.5 309  C 340.42 309  343.5 312.08  343.5 316  C 343.5 319.92  340.42 323  336.5 323  C 332.58 323  329.5 319.92  329.5 316  C 329.5 312.08  332.58 309  336.5 309  Z " stroke-width="1" stroke="#409eff" fill="none" />
  <path d="M 336.5 319.75  C 334.4 319.75  332.75 318.1  332.75 316  C 332.75 313.9  334.4 312.25  336.5 312.25  C 338.6 312.25  340.25 313.9  340.25 316  C 340.25 318.1  338.6 319.75  336.5 319.75  " fill-rule="nonzero" fill="#409eff" stroke="none" />
</svg>