<?xml version="1.0" encoding="utf-8"?>
<svg version="1.1" xmlns:xlink="http://www.w3.org/1999/xlink" width="15px" height="15px" viewBox="447 291.5  15 15" xmlns="http://www.w3.org/2000/svg">
  <path d="M 454.5 291.5  C 458.7 291.5  462 294.8  462 299  C 462 303.2  458.7 306.5  454.5 306.5  C 450.3 306.5  447 303.2  447 299  C 447 294.8  450.3 291.5  454.5 291.5  Z " fill-rule="nonzero" fill="#f2f2f2" stroke="none" />
  <path d="M 454.5 292  C 458.42 292  461.5 295.08  461.5 299  C 461.5 302.92  458.42 306  454.5 306  C 450.58 306  447.5 302.92  447.5 299  C 447.5 295.08  450.58 292  454.5 292  Z " stroke-width="1" stroke="#cccccc" fill="none" />
  <path d="M 454.5 302.75  C 452.4 302.75  450.75 301.1  450.75 299  C 450.75 296.9  452.4 295.25  454.5 295.25  C 456.6 295.25  458.25 296.9  458.25 299  C 458.25 301.1  456.6 302.75  454.5 302.75  " fill-rule="nonzero" fill="#cccccc" stroke="none" />
</svg>