<?xml version="1.0" encoding="utf-8"?>
<svg version="1.1" xmlns:xlink="http://www.w3.org/1999/xlink" width="15px" height="15px" viewBox="447 331.5  15 15" xmlns="http://www.w3.org/2000/svg">
  <path d="M 454.5 331.5  C 458.7 331.5  462 334.8  462 339  C 462 343.2  458.7 346.5  454.5 346.5  C 450.3 346.5  447 343.2  447 339  C 447 334.8  450.3 331.5  454.5 331.5  Z " fill-rule="nonzero" fill="#ffffff" stroke="none" />
  <path d="M 454.5 332  C 458.42 332  461.5 335.08  461.5 339  C 461.5 342.92  458.42 346  454.5 346  C 450.58 346  447.5 342.92  447.5 339  C 447.5 335.08  450.58 332  454.5 332  Z " stroke-width="1" stroke="#409eff" fill="none" />
  <path d="M 454.5 342.75  C 452.4 342.75  450.75 341.1  450.75 339  C 450.75 336.9  452.4 335.25  454.5 335.25  C 456.6 335.25  458.25 336.9  458.25 339  C 458.25 341.1  456.6 342.75  454.5 342.75  " fill-rule="nonzero" fill="#409eff" stroke="none" />
</svg>