<?xml version="1.0" encoding="utf-8"?>
<svg version="1.1" xmlns:xlink="http://www.w3.org/1999/xlink" width="15px" height="15px" viewBox="306 248.5  15 15" xmlns="http://www.w3.org/2000/svg">
  <path d="M 313.5 248.5  C 317.7 248.5  321 251.8  321 256  C 321 260.2  317.7 263.5  313.5 263.5  C 309.3 263.5  306 260.2  306 256  C 306 251.8  309.3 248.5  313.5 248.5  Z " fill-rule="nonzero" fill="#f2f2f2" stroke="none" />
  <path d="M 313.5 249  C 317.42 249  320.5 252.08  320.5 256  C 320.5 259.92  317.42 263  313.5 263  C 309.58 263  306.5 259.92  306.5 256  C 306.5 252.08  309.58 249  313.5 249  Z " stroke-width="1" stroke="#cccccc" fill="none" />
  <path d="M 313.5 259.75  C 311.4 259.75  309.75 258.1  309.75 256  C 309.75 253.9  311.4 252.25  313.5 252.25  C 315.6 252.25  317.25 253.9  317.25 256  C 317.25 258.1  315.6 259.75  313.5 259.75  " fill-rule="nonzero" fill="#cccccc" stroke="none" />
</svg>