<?xml version="1.0" encoding="utf-8"?>
<svg version="1.1" xmlns:xlink="http://www.w3.org/1999/xlink" width="15px" height="15px" viewBox="459 348.5  15 15" xmlns="http://www.w3.org/2000/svg">
  <path d="M 466.5 348.5  C 470.7 348.5  474 351.8  474 356  C 474 360.2  470.7 363.5  466.5 363.5  C 462.3 363.5  459 360.2  459 356  C 459 351.8  462.3 348.5  466.5 348.5  Z " fill-rule="nonzero" fill="#f2f2f2" stroke="none" />
  <path d="M 466.5 349  C 470.42 349  473.5 352.08  473.5 356  C 473.5 359.92  470.42 363  466.5 363  C 462.58 363  459.5 359.92  459.5 356  C 459.5 352.08  462.58 349  466.5 349  Z " stroke-width="1" stroke="#cccccc" fill="none" />
  <path d="M 466.5 359.75  C 464.4 359.75  462.75 358.1  462.75 356  C 462.75 353.9  464.4 352.25  466.5 352.25  C 468.6 352.25  470.25 353.9  470.25 356  C 470.25 358.1  468.6 359.75  466.5 359.75  " fill-rule="nonzero" fill="#cccccc" stroke="none" />
</svg>