<?xml version="1.0" encoding="utf-8"?>
<svg version="1.1" xmlns:xlink="http://www.w3.org/1999/xlink" width="15px" height="15px" viewBox="454 348.5  15 15" xmlns="http://www.w3.org/2000/svg">
  <path d="M 461.5 348.5  C 465.7 348.5  469 351.8  469 356  C 469 360.2  465.7 363.5  461.5 363.5  C 457.3 363.5  454 360.2  454 356  C 454 351.8  457.3 348.5  461.5 348.5  Z " fill-rule="nonzero" fill="#ffffff" stroke="none" />
  <path d="M 461.5 349  C 465.42 349  468.5 352.08  468.5 356  C 468.5 359.92  465.42 363  461.5 363  C 457.58 363  454.5 359.92  454.5 356  C 454.5 352.08  457.58 349  461.5 349  Z " stroke-width="1" stroke="#409eff" fill="none" />
  <path d="M 461.5 359.75  C 459.4 359.75  457.75 358.1  457.75 356  C 457.75 353.9  459.4 352.25  461.5 352.25  C 463.6 352.25  465.25 353.9  465.25 356  C 465.25 358.1  463.6 359.75  461.5 359.75  " fill-rule="nonzero" fill="#409eff" stroke="none" />
</svg>