<?xml version="1.0" encoding="utf-8"?>
<svg version="1.1" xmlns:xlink="http://www.w3.org/1999/xlink" width="15px" height="15px" viewBox="317 291.5  15 15" xmlns="http://www.w3.org/2000/svg">
  <path d="M 324.5 291.5  C 328.7 291.5  332 294.8  332 299  C 332 303.2  328.7 306.5  324.5 306.5  C 320.3 306.5  317 303.2  317 299  C 317 294.8  320.3 291.5  324.5 291.5  Z " fill-rule="nonzero" fill="#f2f2f2" stroke="none" />
  <path d="M 324.5 292  C 328.42 292  331.5 295.08  331.5 299  C 331.5 302.92  328.42 306  324.5 306  C 320.58 306  317.5 302.92  317.5 299  C 317.5 295.08  320.58 292  324.5 292  Z " stroke-width="1" stroke="#cccccc" fill="none" />
  <path d="M 324.5 302.75  C 322.4 302.75  320.75 301.1  320.75 299  C 320.75 296.9  322.4 295.25  324.5 295.25  C 326.6 295.25  328.25 296.9  328.25 299  C 328.25 301.1  326.6 302.75  324.5 302.75  " fill-rule="nonzero" fill="#cccccc" stroke="none" />
</svg>