<?xml version="1.0" encoding="utf-8"?>
<svg version="1.1" xmlns:xlink="http://www.w3.org/1999/xlink" width="15px" height="15px" viewBox="454 308.5  15 15" xmlns="http://www.w3.org/2000/svg">
  <path d="M 461.5 308.5  C 465.7 308.5  469 311.8  469 316  C 469 320.2  465.7 323.5  461.5 323.5  C 457.3 323.5  454 320.2  454 316  C 454 311.8  457.3 308.5  461.5 308.5  Z " fill-rule="nonzero" fill="#f2f2f2" stroke="none" />
  <path d="M 461.5 309  C 465.42 309  468.5 312.08  468.5 316  C 468.5 319.92  465.42 323  461.5 323  C 457.58 323  454.5 319.92  454.5 316  C 454.5 312.08  457.58 309  461.5 309  Z " stroke-width="1" stroke="#cccccc" fill="none" />
  <path d="M 461.5 319.75  C 459.4 319.75  457.75 318.1  457.75 316  C 457.75 313.9  459.4 312.25  461.5 312.25  C 463.6 312.25  465.25 313.9  465.25 316  C 465.25 318.1  463.6 319.75  461.5 319.75  " fill-rule="nonzero" fill="#cccccc" stroke="none" />
</svg>