<?xml version="1.0" encoding="utf-8"?>
<svg version="1.1" xmlns:xlink="http://www.w3.org/1999/xlink" width="15px" height="15px" viewBox="459 308.5  15 15" xmlns="http://www.w3.org/2000/svg">
  <path d="M 466.5 308.5  C 470.7 308.5  474 311.8  474 316  C 474 320.2  470.7 323.5  466.5 323.5  C 462.3 323.5  459 320.2  459 316  C 459 311.8  462.3 308.5  466.5 308.5  Z " fill-rule="nonzero" fill="#ffffff" stroke="none" />
  <path d="M 466.5 309  C 470.42 309  473.5 312.08  473.5 316  C 473.5 319.92  470.42 323  466.5 323  C 462.58 323  459.5 319.92  459.5 316  C 459.5 312.08  462.58 309  466.5 309  Z " stroke-width="1" stroke="#409eff" fill="none" />
  <path d="M 466.5 319.75  C 464.4 319.75  462.75 318.1  462.75 316  C 462.75 313.9  464.4 312.25  466.5 312.25  C 468.6 312.25  470.25 313.9  470.25 316  C 470.25 318.1  468.6 319.75  466.5 319.75  " fill-rule="nonzero" fill="#409eff" stroke="none" />
</svg>