<?xml version="1.0" encoding="utf-8"?>
<svg version="1.1" xmlns:xlink="http://www.w3.org/1999/xlink" width="15px" height="15px" viewBox="317 297.5  15 15" xmlns="http://www.w3.org/2000/svg">
  <path d="M 324.5 297.5  C 328.7 297.5  332 300.8  332 305  C 332 309.2  328.7 312.5  324.5 312.5  C 320.3 312.5  317 309.2  317 305  C 317 300.8  320.3 297.5  324.5 297.5  Z " fill-rule="nonzero" fill="#f2f2f2" stroke="none" />
  <path d="M 324.5 298  C 328.42 298  331.5 301.08  331.5 305  C 331.5 308.92  328.42 312  324.5 312  C 320.58 312  317.5 308.92  317.5 305  C 317.5 301.08  320.58 298  324.5 298  Z " stroke-width="1" stroke="#cccccc" fill="none" />
  <path d="M 324.5 308.75  C 322.4 308.75  320.75 307.1  320.75 305  C 320.75 302.9  322.4 301.25  324.5 301.25  C 326.6 301.25  328.25 302.9  328.25 305  C 328.25 307.1  326.6 308.75  324.5 308.75  " fill-rule="nonzero" fill="#cccccc" stroke="none" />
</svg>