<?xml version="1.0" encoding="utf-8"?>
<svg version="1.1" xmlns:xlink="http://www.w3.org/1999/xlink" width="15px" height="15px" viewBox="447 337.5  15 15" xmlns="http://www.w3.org/2000/svg">
  <path d="M 454.5 337.5  C 458.7 337.5  462 340.8  462 345  C 462 349.2  458.7 352.5  454.5 352.5  C 450.3 352.5  447 349.2  447 345  C 447 340.8  450.3 337.5  454.5 337.5  Z " fill-rule="nonzero" fill="#f2f2f2" stroke="none" />
  <path d="M 454.5 338  C 458.42 338  461.5 341.08  461.5 345  C 461.5 348.92  458.42 352  454.5 352  C 450.58 352  447.5 348.92  447.5 345  C 447.5 341.08  450.58 338  454.5 338  Z " stroke-width="1" stroke="#cccccc" fill="none" />
  <path d="M 454.5 348.75  C 452.4 348.75  450.75 347.1  450.75 345  C 450.75 342.9  452.4 341.25  454.5 341.25  C 456.6 341.25  458.25 342.9  458.25 345  C 458.25 347.1  456.6 348.75  454.5 348.75  " fill-rule="nonzero" fill="#cccccc" stroke="none" />
</svg>