<?xml version="1.0" encoding="utf-8"?>
<svg version="1.1" xmlns:xlink="http://www.w3.org/1999/xlink" width="15px" height="15px" viewBox="217 49.5  15 15" xmlns="http://www.w3.org/2000/svg">
  <path d="M 224.5 49.5  C 228.7 49.5  232 52.8  232 57  C 232 61.2  228.7 64.5  224.5 64.5  C 220.3 64.5  217 61.2  217 57  C 217 52.8  220.3 49.5  224.5 49.5  Z " fill-rule="nonzero" fill="#ffffff" stroke="none" />
  <path d="M 224.5 50  C 228.42 50  231.5 53.08  231.5 57  C 231.5 60.92  228.42 64  224.5 64  C 220.58 64  217.5 60.92  217.5 57  C 217.5 53.08  220.58 50  224.5 50  Z " stroke-width="1" stroke="#409eff" fill="none" />
  <path d="M 224.5 60.75  C 222.4 60.75  220.75 59.1  220.75 57  C 220.75 54.9  222.4 53.25  224.5 53.25  C 226.6 53.25  228.25 54.9  228.25 57  C 228.25 59.1  226.6 60.75  224.5 60.75  " fill-rule="nonzero" fill="#409eff" stroke="none" />
</svg>