<?xml version="1.0" encoding="utf-8"?>
<svg version="1.1" xmlns:xlink="http://www.w3.org/1999/xlink" width="15px" height="15px" xmlns="http://www.w3.org/2000/svg">
  <defs>
    <mask fill="white" id="clip34">
      <path d="M 5.23615056818183 8.99733664772723  L 6.75106534090905 7.5  L 5.23615056818183 6.00159801136361  C 5.13636363636359 5.89044744318181  5.08647017045454 5.76278409090912  5.08647017045454 5.61860795454541  C 5.08647017045454 5.47443181818183  5.13920454545456 5.34960937500005  5.24467329545449 5.244140625  C 5.35014204545454 5.13867187499995  5.47496448863638 5.08593750000005  5.61914062500002 5.08593750000005  C 5.76331676136367 5.08593750000005  5.89098011363636 5.13583096590904  6.0021306818181 5.23561789772728  L 7.50053267045449 6.75053267045456  L 8.99893465909088 5.23561789772728  C 9.15447443181815 5.0914417613637  9.32919034090905 5.04705255681817  9.52308238636359 5.10245028409088  C 9.71697443181812 5.15784801136365  9.84179687499997 5.28267045454549  9.89754971590912 5.47691761363635  C 9.95330255681828 5.67116477272728  9.90891335227275 5.84588068181818  9.76438210227278 6.00106534090912  L 8.24946732954544 7.49946732954551  L 9.76438210227278 8.99786931818184  C 9.9085582386363 9.15340909090905  9.95294744318183 9.32812499999995  9.89754971590912 9.52201704545449  C 9.84215198863641 9.71590909090909  9.71732954545457 9.84073153409093  9.52308238636359 9.89648437500002  C 9.32883522727272 9.95223721590912  9.15411931818182 9.90784801136365  8.99893465909088 9.76331676136362  L 7.50053267045449 8.24840198863634  L 6.0021306818181 9.76331676136362  C 5.89098011363636 9.8631036931818  5.76331676136367 9.91299715909091  5.61914062500002 9.91299715909091  C 5.47496448863638 9.91299715909091  5.35014204545454 9.86026278409095  5.24467329545449 9.7547940340909  C 5.13920454545456 9.64932528409091  5.08647017045454 9.52450284090907  5.08647017045454 9.38032670454549  C 5.08647017045454 9.23615056818178  5.13636363636359 9.10848721590909  5.23615056818183 8.99733664772723  Z M 2.98082386363644 12.0191761363636  C 4.18501420454545 13.2230113636364  5.69140625000001 13.8473011363636  7.5 13.8920454545455  C 9.30894886363644 13.84765625  10.8153409090909 13.2233664772727  12.0191761363636 12.0191761363636  C 13.2230113636364 10.8149857954546  13.8473011363636 9.30859374999999  13.8920454545455 7.5  C 13.84765625 5.69105113636362  13.2233664772727 4.18465909090912  12.0191761363636 2.98082386363638  C 10.8149857954546 1.77698863636363  9.30859374999999 1.15269886363637  7.5 1.10795454545451  C 5.69105113636356 1.15234374999998  4.18465909090912 1.77663352272725  2.98082386363644 2.98082386363638  C 1.77698863636363 4.18501420454545  1.15269886363637 5.69140625000001  1.10795454545451 7.5  C 1.15234375000004 9.30894886363638  1.77663352272719 10.8153409090909  2.98082386363644 12.0191761363636  Z M 12.7686434659091 12.7686434659091  C 11.3648792613636 14.1724076704545  9.60866477272723 14.9019886363636  7.5 14.9573863636363  C 5.39133522727277 14.9019886363636  3.63512073863636 14.1724076704545  2.23135653409088 12.7686434659091  C 0.827592329545399 11.3648792613636  0.0980113636363659 9.60866477272723  0.0426136363636585 7.5  C 0.0980113636363659 5.39133522727277  0.827592329545399 3.63512073863636  2.23135653409088 2.23135653409088  C 3.63512073863636 0.827592329545459  5.39133522727277 0.0980113636363659  7.5 0.0426136363636585  C 9.60866477272723 0.0980113636363659  11.3648792613636 0.827592329545459  12.7686434659091 2.23135653409088  C 14.1724076704546 3.63512073863636  14.9019886363636 5.39133522727277  14.9573863636363 7.5  C 14.9019886363636 9.60866477272723  14.1724076704546 11.3648792613636  12.7686434659091 12.7686434659091  Z " fill-rule="evenodd" />
    </mask>
  </defs>
  <g transform="matrix(1 0 0 1 -387 -389 )">
    <path d="M 5.23615056818183 8.99733664772723  L 6.75106534090905 7.5  L 5.23615056818183 6.00159801136361  C 5.13636363636359 5.89044744318181  5.08647017045454 5.76278409090912  5.08647017045454 5.61860795454541  C 5.08647017045454 5.47443181818183  5.13920454545456 5.34960937500005  5.24467329545449 5.244140625  C 5.35014204545454 5.13867187499995  5.47496448863638 5.08593750000005  5.61914062500002 5.08593750000005  C 5.76331676136367 5.08593750000005  5.89098011363636 5.13583096590904  6.0021306818181 5.23561789772728  L 7.50053267045449 6.75053267045456  L 8.99893465909088 5.23561789772728  C 9.15447443181815 5.0914417613637  9.32919034090905 5.04705255681817  9.52308238636359 5.10245028409088  C 9.71697443181812 5.15784801136365  9.84179687499997 5.28267045454549  9.89754971590912 5.47691761363635  C 9.95330255681828 5.67116477272728  9.90891335227275 5.84588068181818  9.76438210227278 6.00106534090912  L 8.24946732954544 7.49946732954551  L 9.76438210227278 8.99786931818184  C 9.9085582386363 9.15340909090905  9.95294744318183 9.32812499999995  9.89754971590912 9.52201704545449  C 9.84215198863641 9.71590909090909  9.71732954545457 9.84073153409093  9.52308238636359 9.89648437500002  C 9.32883522727272 9.95223721590912  9.15411931818182 9.90784801136365  8.99893465909088 9.76331676136362  L 7.50053267045449 8.24840198863634  L 6.0021306818181 9.76331676136362  C 5.89098011363636 9.8631036931818  5.76331676136367 9.91299715909091  5.61914062500002 9.91299715909091  C 5.47496448863638 9.91299715909091  5.35014204545454 9.86026278409095  5.24467329545449 9.7547940340909  C 5.13920454545456 9.64932528409091  5.08647017045454 9.52450284090907  5.08647017045454 9.38032670454549  C 5.08647017045454 9.23615056818178  5.13636363636359 9.10848721590909  5.23615056818183 8.99733664772723  Z M 2.98082386363644 12.0191761363636  C 4.18501420454545 13.2230113636364  5.69140625000001 13.8473011363636  7.5 13.8920454545455  C 9.30894886363644 13.84765625  10.8153409090909 13.2233664772727  12.0191761363636 12.0191761363636  C 13.2230113636364 10.8149857954546  13.8473011363636 9.30859374999999  13.8920454545455 7.5  C 13.84765625 5.69105113636362  13.2233664772727 4.18465909090912  12.0191761363636 2.98082386363638  C 10.8149857954546 1.77698863636363  9.30859374999999 1.15269886363637  7.5 1.10795454545451  C 5.69105113636356 1.15234374999998  4.18465909090912 1.77663352272725  2.98082386363644 2.98082386363638  C 1.77698863636363 4.18501420454545  1.15269886363637 5.69140625000001  1.10795454545451 7.5  C 1.15234375000004 9.30894886363638  1.77663352272719 10.8153409090909  2.98082386363644 12.0191761363636  Z M 12.7686434659091 12.7686434659091  C 11.3648792613636 14.1724076704545  9.60866477272723 14.9019886363636  7.5 14.9573863636363  C 5.39133522727277 14.9019886363636  3.63512073863636 14.1724076704545  2.23135653409088 12.7686434659091  C 0.827592329545399 11.3648792613636  0.0980113636363659 9.60866477272723  0.0426136363636585 7.5  C 0.0980113636363659 5.39133522727277  0.827592329545399 3.63512073863636  2.23135653409088 2.23135653409088  C 3.63512073863636 0.827592329545459  5.39133522727277 0.0980113636363659  7.5 0.0426136363636585  C 9.60866477272723 0.0980113636363659  11.3648792613636 0.827592329545459  12.7686434659091 2.23135653409088  C 14.1724076704546 3.63512073863636  14.9019886363636 5.39133522727277  14.9573863636363 7.5  C 14.9019886363636 9.60866477272723  14.1724076704546 11.3648792613636  12.7686434659091 12.7686434659091  Z " fill-rule="nonzero" fill="#c0c4cc" stroke="none" transform="matrix(1 0 0 1 387 389 )" />
    <path d="M 5.23615056818183 8.99733664772723  L 6.75106534090905 7.5  L 5.23615056818183 6.00159801136361  C 5.13636363636359 5.89044744318181  5.08647017045454 5.76278409090912  5.08647017045454 5.61860795454541  C 5.08647017045454 5.47443181818183  5.13920454545456 5.34960937500005  5.24467329545449 5.244140625  C 5.35014204545454 5.13867187499995  5.47496448863638 5.08593750000005  5.61914062500002 5.08593750000005  C 5.76331676136367 5.08593750000005  5.89098011363636 5.13583096590904  6.0021306818181 5.23561789772728  L 7.50053267045449 6.75053267045456  L 8.99893465909088 5.23561789772728  C 9.15447443181815 5.0914417613637  9.32919034090905 5.04705255681817  9.52308238636359 5.10245028409088  C 9.71697443181812 5.15784801136365  9.84179687499997 5.28267045454549  9.89754971590912 5.47691761363635  C 9.95330255681828 5.67116477272728  9.90891335227275 5.84588068181818  9.76438210227278 6.00106534090912  L 8.24946732954544 7.49946732954551  L 9.76438210227278 8.99786931818184  C 9.9085582386363 9.15340909090905  9.95294744318183 9.32812499999995  9.89754971590912 9.52201704545449  C 9.84215198863641 9.71590909090909  9.71732954545457 9.84073153409093  9.52308238636359 9.89648437500002  C 9.32883522727272 9.95223721590912  9.15411931818182 9.90784801136365  8.99893465909088 9.76331676136362  L 7.50053267045449 8.24840198863634  L 6.0021306818181 9.76331676136362  C 5.89098011363636 9.8631036931818  5.76331676136367 9.91299715909091  5.61914062500002 9.91299715909091  C 5.47496448863638 9.91299715909091  5.35014204545454 9.86026278409095  5.24467329545449 9.7547940340909  C 5.13920454545456 9.64932528409091  5.08647017045454 9.52450284090907  5.08647017045454 9.38032670454549  C 5.08647017045454 9.23615056818178  5.13636363636359 9.10848721590909  5.23615056818183 8.99733664772723  Z " stroke-width="2" stroke="#d7d7d7" fill="none" transform="matrix(1 0 0 1 387 389 )" mask="url(#clip34)" />
    <path d="M 2.98082386363644 12.0191761363636  C 4.18501420454545 13.2230113636364  5.69140625000001 13.8473011363636  7.5 13.8920454545455  C 9.30894886363644 13.84765625  10.8153409090909 13.2233664772727  12.0191761363636 12.0191761363636  C 13.2230113636364 10.8149857954546  13.8473011363636 9.30859374999999  13.8920454545455 7.5  C 13.84765625 5.69105113636362  13.2233664772727 4.18465909090912  12.0191761363636 2.98082386363638  C 10.8149857954546 1.77698863636363  9.30859374999999 1.15269886363637  7.5 1.10795454545451  C 5.69105113636356 1.15234374999998  4.18465909090912 1.77663352272725  2.98082386363644 2.98082386363638  C 1.77698863636363 4.18501420454545  1.15269886363637 5.69140625000001  1.10795454545451 7.5  C 1.15234375000004 9.30894886363638  1.77663352272719 10.8153409090909  2.98082386363644 12.0191761363636  Z " stroke-width="2" stroke="#d7d7d7" fill="none" transform="matrix(1 0 0 1 387 389 )" mask="url(#clip34)" />
    <path d="M 12.7686434659091 12.7686434659091  C 11.3648792613636 14.1724076704545  9.60866477272723 14.9019886363636  7.5 14.9573863636363  C 5.39133522727277 14.9019886363636  3.63512073863636 14.1724076704545  2.23135653409088 12.7686434659091  C 0.827592329545399 11.3648792613636  0.0980113636363659 9.60866477272723  0.0426136363636585 7.5  C 0.0980113636363659 5.39133522727277  0.827592329545399 3.63512073863636  2.23135653409088 2.23135653409088  C 3.63512073863636 0.827592329545459  5.39133522727277 0.0980113636363659  7.5 0.0426136363636585  C 9.60866477272723 0.0980113636363659  11.3648792613636 0.827592329545459  12.7686434659091 2.23135653409088  C 14.1724076704546 3.63512073863636  14.9019886363636 5.39133522727277  14.9573863636363 7.5  C 14.9019886363636 9.60866477272723  14.1724076704546 11.3648792613636  12.7686434659091 12.7686434659091  Z " stroke-width="2" stroke="#d7d7d7" fill="none" transform="matrix(1 0 0 1 387 389 )" mask="url(#clip34)" />
  </g>
</svg>