<?xml version="1.0" encoding="utf-8"?>
<svg version="1.1" xmlns:xlink="http://www.w3.org/1999/xlink" width="13px" height="13px" xmlns="http://www.w3.org/2000/svg">
  <defs>
    <mask fill="white" id="clip32">
      <path d="M 4.53799715909092 7.7976917613636  L 5.85092329545451 6.5  L 4.53799715909092 5.20138494318179  C 4.45151515151511 5.10505445075757  4.40827414772726 4.9944128787879  4.40827414772726 4.86946022727269  C 4.40827414772726 4.74450757575759  4.45397727272729 4.63632812500004  4.54538352272722 4.544921875  C 4.63678977272726 4.45351562499996  4.74496922348486 4.40781250000004  4.86992187500002 4.40781250000004  C 4.99487452651518 4.40781250000004  5.10551609848484 4.45105350378784  5.20184659090902 4.53753551136364  L 6.50046164772722 5.85046164772729  L 7.79907670454543 4.53753551136364  C 7.93387784090906 4.41258285984854  8.08529829545451 4.37411221590908  8.25333806818177 4.42212357954543  C 8.42137784090904 4.47013494318183  8.52955729166664 4.57831439393943  8.57787642045457 4.74666193181817  C 8.62619554924251 4.91500946969697  8.58772490530305 5.06642992424242  8.46246448863641 5.20092329545457  L 7.14953835227271 6.49953835227278  L 8.46246448863641 7.79815340909093  C 8.58741714015146 7.93295454545451  8.62588778409092 8.08437499999996  8.57787642045457 8.25241477272722  C 8.52986505681823 8.42045454545454  8.42168560606063 8.52863399621214  8.25333806818177 8.57695312500002  C 8.08499053030303 8.6252722537879  7.93357007575758 8.5868016098485  7.79907670454543 8.46154119318181  L 6.50046164772722 7.14861505681816  L 5.20184659090902 8.46154119318181  C 5.10551609848484 8.54802320075756  4.99487452651518 8.59126420454546  4.86992187500002 8.59126420454546  C 4.74496922348486 8.59126420454546  4.63678977272726 8.54556107954549  4.54538352272722 8.45415482954545  C 4.45397727272729 8.36274857954546  4.40827414772726 8.25456912878786  4.40827414772726 8.12961647727276  C 4.40827414772726 8.00466382575755  4.45151515151511 7.89402225378788  4.53799715909092 7.7976917613636  Z M 2.58338068181825 10.4166193181818  C 3.62701231060605 11.4599431818182  4.93255208333334 12.0009943181818  6.5 12.0397727272728  C 8.06775568181825 12.0013020833334  9.37329545454543 11.4602509469697  10.4166193181818 10.4166193181818  C 11.4599431818182 9.37298768939395  12.0009943181818 8.06744791666666  12.0397727272728 6.5  C 12.0013020833333 4.93224431818181  11.4602509469697 3.62670454545457  10.4166193181818 2.58338068181819  C 9.37298768939395 1.54005681818182  8.06744791666666 0.999005681818184  6.5 0.960227272727244  C 4.93224431818175 0.998697916666649  3.62670454545457 1.53974905303028  2.58338068181825 2.58338068181819  C 1.54005681818182 3.62701231060605  0.999005681818184 4.93255208333334  0.960227272727244 6.5  C 0.998697916666702 8.06775568181819  1.53974905303023 9.37329545454543  2.58338068181825 10.4166193181818  Z M 11.0661576704546 11.0661576704546  C 9.84956202651516 12.2827533143939  8.32750946969693 12.9150568181818  6.5 12.9630681818182  C 4.67249053030307 12.9150568181818  3.15043797348484 12.2827533143939  1.93384232954543 11.0661576704546  C 0.717246685606012 9.84956202651516  0.0849431818181837 8.32750946969693  0.0369318181818374 6.5  C 0.0849431818181837 4.67249053030307  0.717246685606012 3.15043797348484  1.93384232954543 1.93384232954543  C 3.15043797348484 0.717246685606065  4.67249053030307 0.0849431818181837  6.5 0.0369318181818374  C 8.32750946969693 0.0849431818181837  9.84956202651516 0.717246685606065  11.0661576704546 1.93384232954543  C 12.282753314394 3.15043797348484  12.9150568181818 4.67249053030307  12.9630681818182 6.5  C 12.9150568181818 8.32750946969693  12.282753314394 9.84956202651516  11.0661576704546 11.0661576704546  Z " fill-rule="evenodd" />
    </mask>
  </defs>
  <g transform="matrix(1 0 0 1 -232 -119 )">
    <path d="M 4.53799715909092 7.7976917613636  L 5.85092329545451 6.5  L 4.53799715909092 5.20138494318179  C 4.45151515151511 5.10505445075757  4.40827414772726 4.9944128787879  4.40827414772726 4.86946022727269  C 4.40827414772726 4.74450757575759  4.45397727272729 4.63632812500004  4.54538352272722 4.544921875  C 4.63678977272726 4.45351562499996  4.74496922348486 4.40781250000004  4.86992187500002 4.40781250000004  C 4.99487452651518 4.40781250000004  5.10551609848484 4.45105350378784  5.20184659090902 4.53753551136364  L 6.50046164772722 5.85046164772729  L 7.79907670454543 4.53753551136364  C 7.93387784090906 4.41258285984854  8.08529829545451 4.37411221590908  8.25333806818177 4.42212357954543  C 8.42137784090904 4.47013494318183  8.52955729166664 4.57831439393943  8.57787642045457 4.74666193181817  C 8.62619554924251 4.91500946969697  8.58772490530305 5.06642992424242  8.46246448863641 5.20092329545457  L 7.14953835227271 6.49953835227278  L 8.46246448863641 7.79815340909093  C 8.58741714015146 7.93295454545451  8.62588778409092 8.08437499999996  8.57787642045457 8.25241477272722  C 8.52986505681823 8.42045454545454  8.42168560606063 8.52863399621214  8.25333806818177 8.57695312500002  C 8.08499053030303 8.6252722537879  7.93357007575758 8.5868016098485  7.79907670454543 8.46154119318181  L 6.50046164772722 7.14861505681816  L 5.20184659090902 8.46154119318181  C 5.10551609848484 8.54802320075756  4.99487452651518 8.59126420454546  4.86992187500002 8.59126420454546  C 4.74496922348486 8.59126420454546  4.63678977272726 8.54556107954549  4.54538352272722 8.45415482954545  C 4.45397727272729 8.36274857954546  4.40827414772726 8.25456912878786  4.40827414772726 8.12961647727276  C 4.40827414772726 8.00466382575755  4.45151515151511 7.89402225378788  4.53799715909092 7.7976917613636  Z M 2.58338068181825 10.4166193181818  C 3.62701231060605 11.4599431818182  4.93255208333334 12.0009943181818  6.5 12.0397727272728  C 8.06775568181825 12.0013020833334  9.37329545454543 11.4602509469697  10.4166193181818 10.4166193181818  C 11.4599431818182 9.37298768939395  12.0009943181818 8.06744791666666  12.0397727272728 6.5  C 12.0013020833333 4.93224431818181  11.4602509469697 3.62670454545457  10.4166193181818 2.58338068181819  C 9.37298768939395 1.54005681818182  8.06744791666666 0.999005681818184  6.5 0.960227272727244  C 4.93224431818175 0.998697916666649  3.62670454545457 1.53974905303028  2.58338068181825 2.58338068181819  C 1.54005681818182 3.62701231060605  0.999005681818184 4.93255208333334  0.960227272727244 6.5  C 0.998697916666702 8.06775568181819  1.53974905303023 9.37329545454543  2.58338068181825 10.4166193181818  Z M 11.0661576704546 11.0661576704546  C 9.84956202651516 12.2827533143939  8.32750946969693 12.9150568181818  6.5 12.9630681818182  C 4.67249053030307 12.9150568181818  3.15043797348484 12.2827533143939  1.93384232954543 11.0661576704546  C 0.717246685606012 9.84956202651516  0.0849431818181837 8.32750946969693  0.0369318181818374 6.5  C 0.0849431818181837 4.67249053030307  0.717246685606012 3.15043797348484  1.93384232954543 1.93384232954543  C 3.15043797348484 0.717246685606065  4.67249053030307 0.0849431818181837  6.5 0.0369318181818374  C 8.32750946969693 0.0849431818181837  9.84956202651516 0.717246685606065  11.0661576704546 1.93384232954543  C 12.282753314394 3.15043797348484  12.9150568181818 4.67249053030307  12.9630681818182 6.5  C 12.9150568181818 8.32750946969693  12.282753314394 9.84956202651516  11.0661576704546 11.0661576704546  Z " fill-rule="nonzero" fill="#c0c4cc" stroke="none" transform="matrix(1 0 0 1 232 119 )" />
    <path d="M 4.53799715909092 7.7976917613636  L 5.85092329545451 6.5  L 4.53799715909092 5.20138494318179  C 4.45151515151511 5.10505445075757  4.40827414772726 4.9944128787879  4.40827414772726 4.86946022727269  C 4.40827414772726 4.74450757575759  4.45397727272729 4.63632812500004  4.54538352272722 4.544921875  C 4.63678977272726 4.45351562499996  4.74496922348486 4.40781250000004  4.86992187500002 4.40781250000004  C 4.99487452651518 4.40781250000004  5.10551609848484 4.45105350378784  5.20184659090902 4.53753551136364  L 6.50046164772722 5.85046164772729  L 7.79907670454543 4.53753551136364  C 7.93387784090906 4.41258285984854  8.08529829545451 4.37411221590908  8.25333806818177 4.42212357954543  C 8.42137784090904 4.47013494318183  8.52955729166664 4.57831439393943  8.57787642045457 4.74666193181817  C 8.62619554924251 4.91500946969697  8.58772490530305 5.06642992424242  8.46246448863641 5.20092329545457  L 7.14953835227271 6.49953835227278  L 8.46246448863641 7.79815340909093  C 8.58741714015146 7.93295454545451  8.62588778409092 8.08437499999996  8.57787642045457 8.25241477272722  C 8.52986505681823 8.42045454545454  8.42168560606063 8.52863399621214  8.25333806818177 8.57695312500002  C 8.08499053030303 8.6252722537879  7.93357007575758 8.5868016098485  7.79907670454543 8.46154119318181  L 6.50046164772722 7.14861505681816  L 5.20184659090902 8.46154119318181  C 5.10551609848484 8.54802320075756  4.99487452651518 8.59126420454546  4.86992187500002 8.59126420454546  C 4.74496922348486 8.59126420454546  4.63678977272726 8.54556107954549  4.54538352272722 8.45415482954545  C 4.45397727272729 8.36274857954546  4.40827414772726 8.25456912878786  4.40827414772726 8.12961647727276  C 4.40827414772726 8.00466382575755  4.45151515151511 7.89402225378788  4.53799715909092 7.7976917613636  Z " stroke-width="2" stroke="#d7d7d7" fill="none" transform="matrix(1 0 0 1 232 119 )" mask="url(#clip32)" />
    <path d="M 2.58338068181825 10.4166193181818  C 3.62701231060605 11.4599431818182  4.93255208333334 12.0009943181818  6.5 12.0397727272728  C 8.06775568181825 12.0013020833334  9.37329545454543 11.4602509469697  10.4166193181818 10.4166193181818  C 11.4599431818182 9.37298768939395  12.0009943181818 8.06744791666666  12.0397727272728 6.5  C 12.0013020833333 4.93224431818181  11.4602509469697 3.62670454545457  10.4166193181818 2.58338068181819  C 9.37298768939395 1.54005681818182  8.06744791666666 0.999005681818184  6.5 0.960227272727244  C 4.93224431818175 0.998697916666649  3.62670454545457 1.53974905303028  2.58338068181825 2.58338068181819  C 1.54005681818182 3.62701231060605  0.999005681818184 4.93255208333334  0.960227272727244 6.5  C 0.998697916666702 8.06775568181819  1.53974905303023 9.37329545454543  2.58338068181825 10.4166193181818  Z " stroke-width="2" stroke="#d7d7d7" fill="none" transform="matrix(1 0 0 1 232 119 )" mask="url(#clip32)" />
    <path d="M 11.0661576704546 11.0661576704546  C 9.84956202651516 12.2827533143939  8.32750946969693 12.9150568181818  6.5 12.9630681818182  C 4.67249053030307 12.9150568181818  3.15043797348484 12.2827533143939  1.93384232954543 11.0661576704546  C 0.717246685606012 9.84956202651516  0.0849431818181837 8.32750946969693  0.0369318181818374 6.5  C 0.0849431818181837 4.67249053030307  0.717246685606012 3.15043797348484  1.93384232954543 1.93384232954543  C 3.15043797348484 0.717246685606065  4.67249053030307 0.0849431818181837  6.5 0.0369318181818374  C 8.32750946969693 0.0849431818181837  9.84956202651516 0.717246685606065  11.0661576704546 1.93384232954543  C 12.282753314394 3.15043797348484  12.9150568181818 4.67249053030307  12.9630681818182 6.5  C 12.9150568181818 8.32750946969693  12.282753314394 9.84956202651516  11.0661576704546 11.0661576704546  Z " stroke-width="2" stroke="#d7d7d7" fill="none" transform="matrix(1 0 0 1 232 119 )" mask="url(#clip32)" />
  </g>
</svg>