<?xml version="1.0" encoding="utf-8"?>
<svg version="1.1" xmlns:xlink="http://www.w3.org/1999/xlink" width="34px" height="31px" xmlns="http://www.w3.org/2000/svg">
  <g transform="matrix(1 0 0 1 -369 -44 )">
    <path d="M 33.9242761692651 8.0116883116882  C 33.969710467706 7.00519480519495  33.2200445434298 6.18389610389613  32.2280623608017 6.13558441558439  L 25.980846325167 5.81350649350645  L 25.6173719376391 1.48155844155849  C 25.5416481069042 0.571688311688376  24.7768374164812 -0.0644155844155421  23.8832962138083 0.00805194805195697  L 1.47661469933189 1.96467532467534  C 0.583073496659267 2.04519480519468  -0.0605790645879551 2.81012987012991  0.00757238307357966 3.71194805194807  L 1.61291759465473 22.6984415584416  C 1.68864142538962 23.6083116883117  2.46102449888645 24.2444155844155  3.34699331848549 24.1719480519481  L 4.48285077951005 24.0753246753247  L 4.30111358574607 27.7631168831168  C 4.25567928730527 28.7776623376623  4.99777282850778 29.5989610389611  5.99732739420926 29.6553246753248  L 30.9937639198217 30.9194805194807  C 31.9933184855232 30.9677922077922  32.8187082405345 30.2270129870132  32.871714922049 29.2124675324677  L 33.9242761692651 8.0116883116882  Z M 7.22405345211587 4.84727272727275  C 6.22449888641415 4.81506493506481  5.39910913140318 5.55584415584406  5.35367483296227 6.56233766233765  L 4.8160356347438 17.4163636363636  L 3.49086859688191 19.4051948051947  L 2.27171492204889 5.07272727272721  L 2.27171492204889 5.03246753246742  L 2.27171492204889 4.99220779220786  C 2.347438752784 4.58961038961036  2.60489977728287 4.26753246753242  2.99866369710469 4.23532467532482  L 22.7625835189309 2.51220779220773  C 23.1563474387528 2.48000000000013  23.4971046770602 2.75376623376633  23.5576837416481 3.14831168831165  C 23.5576837416481 3.16441558441545  23.5804008908686 3.16441558441545  23.5804008908686 3.18051948051959  C 23.5804008908686 3.18857142857144  23.603118040089 3.19662337662339  23.603118040089 3.21272727272719  L 23.8075723830734 5.69272727272732  L 7.22405345211587 4.84727272727275  Z M 31.4102449888642 9.60597402597398  L 30.6454342984409 25.6374025974026  L 24.2240534521159 17.6257142857143  L 21.3919821826281 20.3875324675325  L 16.1518930957683 13.8815584415586  L 6.86057906458791 24.4054545454545  L 7.64810690423167 8.37402597402593  L 7.64810690423167 8.34181818181833  C 7.72383073496655 7.90701298701288  8.11759465478849 7.59298701298712  8.54922048997776 7.61714285714288  L 30.6 8.74441558441549  C 31.0391982182629 8.76857142857148  31.3799554565702 9.12285714285713  31.3875278396438 9.56571428571442  C 31.3875278396438 9.58181818181822  31.4102449888642 9.58987012987006  31.4102449888642 9.60597402597398  Z " fill-rule="nonzero" fill="#5c6b77" stroke="none" transform="matrix(1 0 0 1 369 44 )" />
  </g>
</svg>