<?xml version="1.0" encoding="utf-8"?>
<svg version="1.1" xmlns:xlink="http://www.w3.org/1999/xlink" width="12px" height="12px" xmlns="http://www.w3.org/2000/svg">
  <g transform="matrix(1 0 0 1 -779 -272 )">
    <path d="M 11.75 12  C 11.909375 12  12.028125 11.8531250000001  11.99375 11.6968750000001  C 11.76875 10.703125  10.484375 10.21875  10.040625 10.0625  C 9.55312499999999 9.890625  8.859375 9.84999999999991  8.41249999999999 9.75  C 8.15625 9.69375000000014  7.78437500000001 9.55312500000014  7.659375 9.40312500000005  C 7.53437499999998 9.25312499999995  7.609375 7.86249999999995  7.609375 7.86249999999995  C 7.609375 7.86249999999995  7.84062500000002 7.50312499999995  7.96562499999999 7.18437500000005  C 8.090625 6.86875000000009  8.22812500000001 6  8.22812500000001 6  C 8.22812500000001 6  8.484375 6  8.57499999999999 5.54999999999995  C 8.671875 5.05937500000005  8.82500000000002 4.86875000000009  8.80624999999999 4.50312499999995  C 8.78749999999999 4.14374999999995  8.59062500000002 4.15312500000005  8.59062500000002 4.15312500000005  C 8.59062500000002 4.15312500000005  8.78125 3.63124999999991  8.80312499999999 2.54999999999995  C 8.83125 1.265625  7.82499999999999 0  6.00312500000001 0  C 4.15625000000001 0  3.17187500000001 1.265625  3.19999999999999 2.54999999999995  C 3.22499999999999 3.63124999999991  3.40937500000001 4.15312500000005  3.40937500000001 4.15312500000005  C 3.40937500000001 4.15312500000005  3.21250000000001 4.14374999999995  3.19375000000001 4.50312499999995  C 3.17500000000001 4.86875000000009  3.328125 5.05937500000005  3.425 5.54999999999995  C 3.5125 6  3.77187499999999 6  3.77187499999999 6  C 3.77187499999999 6  3.909375 6.86875000000009  4.034375 7.18437500000005  C 4.15937500000001 7.50312499999995  4.39062500000001 7.86249999999995  4.39062500000001 7.86249999999995  C 4.39062500000001 7.86249999999995  4.46562499999999 9.25312499999995  4.340625 9.40312500000005  C 4.215625 9.55312500000014  3.84375 9.69375000000014  3.58750000000001 9.75  C 3.140625 9.84999999999991  2.44687500000001 9.890625  1.95937499999999 10.0625  C 1.51562499999999 10.21875  0.231249999999996 10.703125  0.00625000000000853 11.6968750000001  C -0.0281250000000028 11.8531250000001  0.0906249999999957 12  0.253124999999997 12  L 11.75 12  Z " fill-rule="nonzero" fill="#808695" stroke="none" transform="matrix(1 0 0 1 779 272 )" />
  </g>
</svg>