<?xml version="1.0" encoding="utf-8"?>
<svg version="1.1" xmlns:xlink="http://www.w3.org/1999/xlink" width="10px" height="12px" xmlns="http://www.w3.org/2000/svg">
  <g transform="matrix(1 0 0 1 -779 -335 )">
    <path d="M 9.13580728124998 5.15087970535717  C 9.13580728124998 4.525356375  8.62916106696423 4.01871017410713  8.00363774999994 4.01871017410713  L 7.43755297767848 4.01871017410713  L 7.43755297767848 2.88654064285714  C 7.43755297767848 1.32415765178573  6.16952584821422 0.056130522321439  4.60714285714289 0.056130522321439  C 3.04475986607144 0.056130522321439  1.77673273660719 1.32415765178573  1.77673273660719 2.88654064285714  L 1.77673273660719 4.01871017410713  L 1.21064796428573 4.01871017410713  C 0.585124633928558 4.01871017410713  0.0784784330356842 4.52535638839288  0.0784784330356842 5.15087970535717  L 0.0784784330356842 10.8116999598215  C 0.0784784330356842 11.4372232901786  0.585124647321436 11.9438694910714  1.21064796428573 11.9438694910714  L 8.00363774999994 11.9438694910714  C 8.62916108035711 11.9438694910714  9.13580728124998 11.4372232767857  9.13580728124998 10.8116999598215  L 9.13580728124998 5.15087970535717  Z M 5.73931238839282 7.98127612500002  C 5.73929868749997 8.60681315624998  5.23266618749994 9.11344565625001  4.60714285714289 9.11344565625001  C 3.98161952678572 9.11344565625001  3.47497332589285 8.60679944196431  3.47497332589285 7.98127612500002  C 3.47497332589285 7.35575279464285  3.9816195401786 6.84910659374998  4.60714285714289 6.84910659374998  C 5.23266617410707 6.84910659374998  5.73931238839282 7.35575280803573  5.73931238839282 7.98127612500002  Z M 6.36199877678564 2.88654064285714  L 6.36199877678564 4.01871017410713  L 2.85228693750003 4.01871017410713  L 2.85228693750003 2.88654064285714  C 2.85228693750003 1.91854323214287  3.63914544642853 1.13168472321428  4.60714285714289 1.13168472321428  C 5.57514026785714 1.13168472321428  6.36199877678564 1.91854323214287  6.36199877678564 2.88654064285714  Z " fill-rule="nonzero" fill="#808695" stroke="none" transform="matrix(1 0 0 1 779 335 )" />
  </g>
</svg>