<?xml version="1.0" encoding="utf-8"?>
<svg version="1.1" xmlns:xlink="http://www.w3.org/1999/xlink" width="14px" height="14px" xmlns="http://www.w3.org/2000/svg">
  <g transform="matrix(1 0 0 1 -768 -389 )">
    <path d="M 768.5 390  A 0.5 0.5 0 0 1 769 389.5 L 781 389.5  A 0.5 0.5 0 0 1 781.5 390 L 781.5 402  A 0.5 0.5 0 0 1 781 402.5 L 769 402.5  A 0.5 0.5 0 0 1 768.5 402 L 768.5 390  Z " fill-rule="nonzero" fill="#ffffff" stroke="none" />
    <path d="M 768.5 390  A 0.5 0.5 0 0 1 769 389.5 L 781 389.5  A 0.5 0.5 0 0 1 781.5 390 L 781.5 402  A 0.5 0.5 0 0 1 781 402.5 L 769 402.5  A 0.5 0.5 0 0 1 768.5 402 L 768.5 390  Z " stroke-width="1" stroke="#dcdee2" fill="none" />
  </g>
</svg>