<?xml version="1.0" encoding="utf-8"?>
<svg version="1.1" xmlns:xlink="http://www.w3.org/1999/xlink" width="12px" height="12px" xmlns="http://www.w3.org/2000/svg">
  <g transform="matrix(1 0 0 1 -1843 -335 )">
    <path d="M 11.8098701298701 11.8597402597402  C 12.0155844155844 11.6633766233767  12.0218181818182 11.3392207792208  11.8285714285715 11.1335064935065  L 8.49974025974024 7.7735064935066  C 9.15116883116889 6.95688311688332  9.54389610389609 5.92207792207796  9.54389610389609 4.79688311688324  C 9.54389610389609 2.1631168831168  7.40883116883106 0.0280519480518251  4.77194805194804 0.0280519480518251  C 2.13506493506503 0.0280519480518251  0 2.16623376623375  0 4.79999999999995  C 0 7.43376623376639  2.13506493506503 9.56883116883114  4.77194805194804 9.56883116883114  C 5.91272727272735 9.56883116883114  6.95688311688318 9.16987012987011  7.77974025974035 8.50285714285701  L 11.0867532467531 11.841038961039  C 11.1864935064934 11.9470129870128  11.3236363636364 12  11.4576623376624 12  C 11.5854545454546 12  11.7132467532469 11.9532467532467  11.8098701298701 11.8597402597402  Z M 7.42129870129867 7.44623376623372  C 6.71376623376636 8.15376623376642  5.77246753246754 8.54337662337662  4.77194805194804 8.54337662337662  C 3.77142857142854 8.54337662337662  2.83012987012998 8.15376623376642  2.12259740259742 7.44623376623372  C 1.41506493506486 6.73870129870124  1.02545454545444 5.79740259740265  1.02545454545444 4.79999999999995  C 1.02545454545444 3.79948051948054  1.41506493506486 2.85818181818172  2.12259740259742 2.15376623376642  C 2.83012987012998 1.44623376623372  3.77142857142854 1.05662337662329  4.77194805194804 1.05662337662329  C 5.77246753246754 1.05662337662329  6.71376623376636 1.44623376623372  7.42129870129867 2.15376623376642  C 8.12883116883123 2.86129870129867  8.51844155844165 3.80259740259726  8.51844155844165 4.79999999999995  C 8.51844155844165 5.80051948051937  8.12883116883123 6.74181818181819  7.42129870129867 7.44623376623372  Z " fill-rule="nonzero" fill="#808695" stroke="none" transform="matrix(1 0 0 1 1843 335 )" />
  </g>
</svg>