<?xml version="1.0" encoding="utf-8"?>
<svg version="1.1" xmlns:xlink="http://www.w3.org/1999/xlink" width="1560px" height="36px" xmlns="http://www.w3.org/2000/svg">
  <g transform="matrix(1 0 0 1 -296 -377 )">
    <path d="M 297 379  A 1 1 0 0 1 298 378 L 1854 378  A 1 1 0 0 1 1855 379 L 1855 411  A 1 1 0 0 1 1854 412 L 298 412  A 1 1 0 0 1 297 411 L 297 379  Z " fill-rule="nonzero" fill="#ffffff" stroke="none" />
    <path d="M 296.5 379  A 1.5 1.5 0 0 1 298 377.5 L 1854 377.5  A 1.5 1.5 0 0 1 1855.5 379 L 1855.5 411  A 1.5 1.5 0 0 1 1854 412.5 L 298 412.5  A 1.5 1.5 0 0 1 296.5 411 L 296.5 379  Z " stroke-width="1" stroke-dasharray="3,1" stroke="#57a3f3" fill="none" stroke-dashoffset="0.5" />
  </g>
</svg>