<?xml version="1.0" encoding="utf-8"?>
<svg version="1.1" xmlns:xlink="http://www.w3.org/1999/xlink" width="10px" height="10px" xmlns="http://www.w3.org/2000/svg">
  <g transform="matrix(1 0 0 1 -133 -4 )">
    <path d="M 10 5.00005714285714  C 10 2.23861714285715  7.76146285714287 5.71428571447541E-05  4.99997714285712 5.71428571447541E-05  C 2.23870857142856 5.71428571447541E-05  0 2.23861714285715  0 5.00005714285714  C 0 7.76142857142855  2.23870857142856 9.99993142857141  4.99997714285712 9.99993142857141  C 7.76146285714287 9.99993142857141  10 7.76141714285717  10 5.00005714285714  Z M 7.29793142857147 6.94437714285715  C 7.39556571428568 7.04203428571429  7.39556571428568 7.20029714285715  7.29793142857147 7.29792000000003  C 7.20032000000003 7.3955542857143  7.04202285714291 7.3955542857143  6.94430857142856 7.29792000000003  L 4.99997714285712 5.35353142857139  L 3.05566857142856 7.29792000000003  C 2.95804571428573 7.3955542857143  2.79975999999999 7.3955542857143  2.70212571428578 7.29792000000003  C 2.60443428571432 7.20029714285715  2.60443428571432 7.04203428571429  2.70212571428578 6.94437714285715  L 4.64648 5.00001142857144  L 2.70212571428578 3.05559999999997  C 2.60443428571432 2.95805714285711  2.60443428571432 2.79974857142855  2.70212571428578 2.70207999999997  C 2.79977142857138 2.60451428571429  2.95805714285711 2.60451428571429  3.05566857142856 2.70207999999997  L 5.00002285714288 4.64645714285717  L 6.76764571428566 2.87882285714289  C 6.8652571428571 2.78125714285716  7.02355428571434 2.78125714285716  7.12106285714287 2.87882285714289  C 7.21870857142858 2.97649142857142  7.21870857142858 3.13479999999998  7.12106285714287 3.23236571428572  L 5.35353142857139 4.99996571428568  L 7.29793142857147 6.94437714285715  Z " fill-rule="nonzero" fill="#ed4014" stroke="none" transform="matrix(1 0 0 1 133 4 )" />
  </g>
</svg>