<?xml version="1.0" encoding="utf-8"?>
<svg version="1.1" xmlns:xlink="http://www.w3.org/1999/xlink" width="40px" height="50px" xmlns="http://www.w3.org/2000/svg">
  <defs>
    <filter x="1599px" y="373px" width="40px" height="50px" filterUnits="userSpaceOnUse" id="filter355">
      <feOffset dx="1" dy="1" in="SourceAlpha" result="shadowOffsetInner" />
      <feGaussianBlur stdDeviation="2.5" in="shadowOffsetInner" result="shadowGaussian" />
      <feComposite in2="shadowGaussian" operator="atop" in="SourceAlpha" result="shadowComposite" />
      <feColorMatrix type="matrix" values="0 0 0 0 0  0 0 0 0 0  0 0 0 0 0  0 0 0 0.698039215686274 0  " in="shadowComposite" />
    </filter>
    <g id="widget356">
      <path d="M 1618 416.036928468354  C 1612.2 406.40734059591  1603.5 400.629587872444  1603.5 391  C 1603.5 385.985714285714  1606.4 377.5  1618 377.5  C 1629.6 377.5  1632.5 385.985714285714  1632.5 391  C 1632.5 400.629587872444  1623.8 406.40734059591  1618 416.036928468354  Z " fill-rule="nonzero" fill="#009dd9" stroke="none" />
      <path d="M 1618 417  C 1612 407  1603 401  1603 391  C 1603 385.8  1606 377  1618 377  C 1630 377  1633 385.8  1633 391  C 1633 401  1624 407  1618 417  Z M 1618 415.073856936707  C 1623.6 405.81468119182  1632 400.259175744887  1632 391  C 1632 386.171428571429  1629.2 378  1618 378  C 1606.8 378  1604 386.171428571429  1604 391  C 1604 400.259175744887  1612.4 405.81468119182  1618 415.073856936707  Z " fill-rule="nonzero" fill="#ffffff" stroke="none" />
    </g>
  </defs>
  <g transform="matrix(1 0 0 1 -1599 -373 )">
    <use xlink:href="#widget356" filter="url(#filter355)" />
    <use xlink:href="#widget356" />
  </g>
</svg>